<svg width="587" height="660" viewBox="0 0 587 660" fill="none" xmlns="http://www.w3.org/2000/svg">
<g clip-path="url(#clip0_464_2)">
<path d="M128.175 314.418H422.985C432.647 314.418 440.478 322.25 440.478 331.911C440.478 341.572 432.647 349.404 422.985 349.404H128.175C118.514 349.404 110.682 341.572 110.682 331.911C110.682 322.25 118.514 314.418 128.175 314.418Z" fill="white"/>
<path d="M171.3 646.861L182.1 646.86L187.239 605.198L171.297 605.199L171.3 646.861Z" fill="#A0616A"/>
<path d="M170.919 658.128L204.134 658.127V657.707C204.133 650.567 198.346 644.779 191.206 644.779L185.138 640.176L173.818 644.78L170.919 644.78L170.919 658.128Z" fill="#2F2E41"/>
<path d="M84.7412 616.945L93.3802 623.426L122.493 593.185L109.741 583.619L84.7412 616.945Z" fill="#A0616A"/>
<path d="M77.6748 625.729L104.244 645.661L104.496 645.325C108.78 639.614 107.624 631.511 101.913 627.226L99.8217 619.903L88.0043 616.792L85.685 615.052L77.6748 625.729Z" fill="#2F2E41"/>
<path d="M120.644 451.353C120.644 451.353 121.24 467.617 121.993 480.66C122.116 482.799 117.104 485.123 117.234 487.45C117.32 488.994 118.262 490.495 118.35 492.105C118.442 493.804 117.141 495.308 117.234 497.065C117.325 498.782 118.808 500.75 118.898 502.507C119.861 521.417 123.352 544.054 119.856 550.382C118.133 553.501 96.1709 596.706 96.1709 596.706C96.1709 596.706 108.408 615.061 111.904 608.943C116.521 600.862 152.11 563.055 152.11 555.836C152.11 548.625 160.343 494.583 160.343 494.583L166.084 526.564L168.717 532.901L167.89 536.621L169.591 541.641L169.683 546.61L171.339 555.836C171.339 555.836 166.357 627.717 169.163 629.719C171.977 631.729 185.603 635.339 187.212 631.729C188.811 628.119 199.222 556.71 199.222 556.71C199.222 556.71 200.9 523.986 202.719 493.569C202.823 491.803 204.065 489.67 204.161 487.931C204.274 485.912 203.488 483.29 203.593 481.332C203.706 479.086 204.703 477.504 204.799 475.354C205.542 458.738 201.371 438.504 200.043 436.512C196.031 430.498 192.421 425.691 192.421 425.691C192.421 425.691 138.385 407.937 123.946 425.977L120.644 451.353Z" fill="#2F2E41"/>
<path d="M174.537 284.104L153.116 279.82L143.12 293.386C124.467 311.727 124.186 327.914 127.516 353.86V390.276L125.106 414.688C125.106 414.688 116.575 432.533 125.374 436.688C134.174 440.843 191.973 440.488 197.491 438.83C203.01 437.171 198.226 435.135 196.777 427.405C194.055 412.886 195.876 419.89 196.063 415.267C198.749 348.953 192.493 321.729 191.858 314.573L180.964 294.814L174.537 284.104Z" fill="#D6EBDC"/>
<path d="M287.44 337.571C285.207 341.801 279.968 343.42 275.738 341.188C275.287 340.95 274.858 340.672 274.456 340.359L228.195 369.732L228.329 353.74L273.267 327.661C276.468 324.072 281.972 323.758 285.561 326.959C288.564 329.637 289.341 334.024 287.44 337.571Z" fill="#A0616A"/>
<path d="M157.625 302.624L152.359 302.066C147.492 301.561 142.718 303.646 139.779 307.557C138.654 309.041 137.845 310.74 137.404 312.549L137.401 312.563C136.08 318.009 138.152 323.715 142.659 327.044L160.849 340.456C173.615 357.704 197.606 369.148 225.748 378.445L269.49 351.279L254.018 332.54L224.015 348.62L179.417 314.096L179.391 314.075L162.417 303.139L157.625 302.624Z" fill="#3F3D56"/>
<path d="M167.3 273.585C181.096 273.585 192.28 262.401 192.28 248.605C192.28 234.809 181.096 223.625 167.3 223.625C153.504 223.625 142.32 234.809 142.32 248.605C142.32 262.401 153.504 273.585 167.3 273.585Z" fill="#A0616A"/>
<path d="M167.877 273.59C167.676 273.597 167.474 273.601 167.272 273.607C167.186 273.831 167.093 274.053 166.985 274.27L167.877 273.59Z" fill="#2F2E41"/>
<path d="M174.732 249.298C174.772 249.544 174.832 249.787 174.912 250.023C174.879 249.776 174.818 249.533 174.732 249.298Z" fill="#2F2E41"/>
<path d="M192.598 224.694C191.57 227.887 190.652 223.837 187.27 224.565C183.201 225.442 178.466 225.141 175.134 222.647C170.169 219.004 163.735 218.023 157.911 220.022C152.209 222.039 142.657 223.461 141.172 229.323C140.655 231.361 140.45 233.573 139.199 235.262C138.104 236.738 136.377 237.58 134.933 238.717C130.055 242.554 133.783 253.456 136.091 259.217C138.4 264.978 143.695 269.174 149.517 271.324C155.149 273.404 161.263 273.77 167.272 273.607C168.317 270.896 167.866 267.766 167.003 264.956C166.07 261.914 164.687 258.978 164.297 255.82C163.907 252.662 164.764 249.074 167.412 247.31C169.846 245.688 173.806 246.676 174.732 249.298C174.192 246.02 177.513 242.847 180.937 242.289C184.614 241.69 188.29 243.018 191.956 243.678C195.622 244.339 194.321 228.905 192.598 224.694Z" fill="#2F2E41"/>
<path d="M332.304 289.927C334.633 261.79 313.712 237.093 285.575 234.765C257.438 232.436 232.741 253.357 230.413 281.494C228.084 309.631 249.006 334.328 277.142 336.656C305.279 338.985 329.976 318.064 332.304 289.927Z" fill="#EE5353"/>
<path d="M294.786 264.411L281.358 277.839L267.93 264.411C265.756 262.237 262.232 262.237 260.058 264.411C257.884 266.584 257.884 270.109 260.058 272.282L273.486 285.711L260.058 299.139C257.886 301.315 257.89 304.839 260.065 307.011C262.238 309.179 265.757 309.179 267.93 307.011L281.358 293.582L294.786 307.011C296.962 309.182 300.486 309.179 302.658 307.003C304.827 304.83 304.827 301.312 302.658 299.139L289.23 285.711L302.658 272.282C304.832 270.109 304.832 266.584 302.658 264.411C300.484 262.237 296.96 262.237 294.786 264.411Z" fill="white"/>
<path d="M261.214 242.744C262.721 247.283 260.263 252.185 255.723 253.692C255.239 253.852 254.742 253.97 254.237 254.043L243.407 307.76L231.959 296.592L244.252 246.11C243.878 241.316 247.462 237.126 252.256 236.753C256.268 236.44 259.971 238.917 261.214 242.744Z" fill="#A0616A"/>
<path d="M146.125 312.225L142.076 315.639C138.343 318.801 136.542 323.689 137.33 328.518C137.621 330.357 138.288 332.116 139.288 333.687L139.296 333.699C142.311 338.423 147.863 340.878 153.386 339.931L175.656 336.089C196.941 338.819 221.808 329.429 247.999 315.558L258.679 265.186L234.446 263.377L225.278 296.16L169.49 304.442L169.457 304.446L149.814 309.123L146.125 312.225Z" fill="#3F3D56"/>
<path d="M272.937 658.991L1.18684 659.298C0.529247 659.296 -0.00212362 658.761 6.38126e-06 658.104C0.00211638 657.449 0.532236 656.919 1.18684 656.917L272.937 656.609C273.594 656.612 274.126 657.146 274.124 657.804C274.122 658.458 273.591 658.989 272.937 658.991Z" fill="black"/>
</g>
<defs>
<clipPath id="clip0_464_2">
<rect width="586.479" height="659.298" fill="white"/>
</clipPath>
</defs>
</svg>
