<svg width="440" height="538" viewBox="0 0 440 538" fill="none" xmlns="http://www.w3.org/2000/svg">
<g clip-path="url(#clip0_464_2)">
<path d="M171.3 525.861L182.1 525.86L187.239 484.198L171.297 484.199L171.3 525.861Z" fill="#A0616A"/>
<path d="M170.919 537.128L204.134 537.127V536.707C204.133 529.567 198.346 523.779 191.206 523.779L185.138 519.176L173.818 523.78L170.919 523.78L170.919 537.128Z" fill="#2F2E41"/>
<path d="M84.7412 495.945L93.3802 502.426L122.493 472.185L109.741 462.619L84.7412 495.945Z" fill="#A0616A"/>
<path d="M77.6748 504.729L104.244 524.661L104.496 524.325C108.78 518.614 107.624 510.511 101.913 506.226L99.8217 498.903L88.0043 495.792L85.685 494.052L77.6748 504.729Z" fill="#2F2E41"/>
<path d="M120.644 330.353C120.644 330.353 121.24 346.617 121.993 359.66C122.116 361.799 117.104 364.123 117.234 366.45C117.32 367.994 118.262 369.495 118.35 371.105C118.442 372.804 117.141 374.308 117.234 376.065C117.325 377.782 118.808 379.75 118.898 381.507C119.861 400.417 123.352 423.054 119.856 429.382C118.133 432.501 96.1709 475.706 96.1709 475.706C96.1709 475.706 108.408 494.061 111.904 487.943C116.521 479.862 152.11 442.055 152.11 434.836C152.11 427.625 160.343 373.583 160.343 373.583L166.084 405.564L168.717 411.901L167.89 415.621L169.591 420.641L169.683 425.61L171.339 434.836C171.339 434.836 166.357 506.717 169.163 508.719C171.977 510.729 185.603 514.339 187.212 510.729C188.811 507.119 199.222 435.71 199.222 435.71C199.222 435.71 200.9 402.986 202.719 372.569C202.823 370.803 204.065 368.67 204.161 366.931C204.274 364.912 203.488 362.29 203.593 360.332C203.706 358.086 204.703 356.504 204.799 354.354C205.542 337.738 201.371 317.504 200.043 315.512C196.031 309.498 192.421 304.691 192.421 304.691C192.421 304.691 138.385 286.937 123.946 304.977L120.644 330.353Z" fill="#2F2E41"/>
<path d="M174.537 163.104L153.116 158.82L143.12 172.386C124.467 190.727 124.186 206.914 127.516 232.86V269.276L125.106 293.688C125.106 293.688 116.575 311.533 125.374 315.688C134.174 319.843 191.973 319.488 197.491 317.83C203.01 316.171 198.226 314.135 196.777 306.405C194.055 291.886 195.876 298.89 196.063 294.267C198.749 227.953 192.493 200.729 191.858 193.573L180.964 173.814L174.537 163.104Z" fill="#D6EBDC"/>
<path d="M287.44 216.571C285.207 220.801 279.968 222.42 275.738 220.188C275.287 219.95 274.858 219.672 274.456 219.359L228.195 248.732L228.329 232.74L273.267 206.661C276.468 203.072 281.972 202.758 285.561 205.959C288.564 208.637 289.341 213.024 287.44 216.571Z" fill="#A0616A"/>
<path d="M157.625 181.624L152.359 181.066C147.492 180.561 142.718 182.646 139.779 186.557C138.654 188.041 137.845 189.74 137.404 191.549L137.401 191.563C136.08 197.009 138.152 202.715 142.659 206.044L160.849 219.456C173.615 236.704 197.606 248.148 225.748 257.445L269.49 230.279L254.018 211.54L224.015 227.62L179.417 193.096L179.391 193.075L162.417 182.139L157.625 181.624Z" fill="#3F3D56"/>
<path d="M167.3 152.585C181.096 152.585 192.28 141.401 192.28 127.605C192.28 113.809 181.096 102.625 167.3 102.625C153.504 102.625 142.32 113.809 142.32 127.605C142.32 141.401 153.504 152.585 167.3 152.585Z" fill="#A0616A"/>
<path d="M167.877 152.59C167.676 152.597 167.474 152.601 167.272 152.607C167.186 152.831 167.093 153.053 166.985 153.27L167.877 152.59Z" fill="#2F2E41"/>
<path d="M174.732 128.298C174.772 128.544 174.832 128.787 174.912 129.023C174.879 128.776 174.818 128.533 174.732 128.298Z" fill="#2F2E41"/>
<path d="M192.598 103.694C191.57 106.887 190.652 102.837 187.27 103.565C183.201 104.442 178.466 104.141 175.134 101.647C170.169 98.0039 163.735 97.0233 157.911 99.0215C152.209 101.039 142.657 102.461 141.172 108.323C140.655 110.361 140.45 112.573 139.199 114.262C138.104 115.738 136.377 116.58 134.933 117.717C130.055 121.554 133.783 132.456 136.091 138.217C138.4 143.978 143.695 148.174 149.517 150.324C155.149 152.404 161.263 152.77 167.272 152.607C168.317 149.896 167.866 146.766 167.003 143.956C166.07 140.914 164.687 137.978 164.297 134.82C163.907 131.662 164.764 128.074 167.412 126.31C169.846 124.688 173.806 125.676 174.732 128.298C174.192 125.02 177.513 121.847 180.937 121.289C184.614 120.69 188.29 122.018 191.956 122.678C195.622 123.339 194.321 107.905 192.598 103.694Z" fill="#2F2E41"/>
<path d="M332.304 168.927C334.633 140.79 313.712 116.093 285.575 113.765C257.438 111.436 232.741 132.357 230.413 160.494C228.084 188.631 249.006 213.328 277.142 215.656C305.279 217.985 329.976 197.064 332.304 168.927Z" fill="#EE5353"/>
<path d="M294.786 143.411L281.358 156.839L267.93 143.411C265.756 141.237 262.232 141.237 260.058 143.411C257.884 145.584 257.884 149.109 260.058 151.282L273.486 164.711L260.058 178.139C257.886 180.315 257.89 183.839 260.065 186.011C262.238 188.179 265.757 188.179 267.93 186.011L281.358 172.582L294.786 186.011C296.962 188.182 300.486 188.179 302.658 186.003C304.827 183.83 304.827 180.312 302.658 178.139L289.23 164.711L302.658 151.282C304.832 149.109 304.832 145.584 302.658 143.411C300.484 141.237 296.96 141.237 294.786 143.411Z" fill="white"/>
<path d="M261.214 121.744C262.721 126.283 260.263 131.185 255.723 132.692C255.239 132.852 254.742 132.97 254.237 133.043L243.407 186.76L231.959 175.592L244.252 125.11C243.878 120.316 247.462 116.126 252.256 115.753C256.268 115.44 259.971 117.917 261.214 121.744Z" fill="#A0616A"/>
<path d="M146.125 191.225L142.076 194.639C138.343 197.801 136.542 202.689 137.33 207.518C137.621 209.357 138.288 211.116 139.288 212.687L139.296 212.699C142.311 217.423 147.863 219.878 153.386 218.931L175.656 215.089C196.941 217.819 221.808 208.429 247.999 194.558L258.679 144.186L234.446 142.377L225.278 175.16L169.49 183.442L169.457 183.446L149.814 188.123L146.125 191.225Z" fill="#3F3D56"/>
<path d="M272.937 537.991L1.18684 538.298C0.529247 538.296 -0.00212362 537.761 6.38126e-06 537.104C0.00211638 536.449 0.532236 535.919 1.18684 535.917L272.937 535.609C273.594 535.612 274.126 536.146 274.124 536.804C274.122 537.458 273.591 537.989 272.937 537.991Z" fill="black"/>
</g>
<defs>
<clipPath id="clip0_464_2">
<rect width="586.479" height="659.298" fill="white" transform="translate(0 -121)"/>
</clipPath>
</defs>
</svg>
