<svg width="255" height="144" viewBox="0 0 255 144" fill="none" xmlns="http://www.w3.org/2000/svg">
<g clip-path="url(#clip0_58_371)">
<path d="M209.41 128.143H154.53V117.368C154.527 113.293 156.05 109.384 158.765 106.497C161.48 103.611 165.165 101.983 169.011 101.971H209.41V128.143Z" fill="#F2F2F2"/>
<path d="M170.528 86.7393H165.263V107.334H170.528V86.7393Z" fill="#F2F2F2"/>
<path d="M209.41 86.7393H204.145V107.334H209.41V86.7393Z" fill="#F2F2F2"/>
<path d="M205.765 88.4556H169.718V88.8846H205.765V88.4556Z" fill="#F2F2F2"/>
<path d="M205.765 95.3206H169.718V95.7496H205.765V95.3206Z" fill="#F2F2F2"/>
<path d="M205.765 98.7529H169.718V99.182H205.765V98.7529Z" fill="#F2F2F2"/>
<path d="M204.237 127.049C204.203 127.331 204.195 127.616 204.213 127.9H218.412C218.541 127.624 218.653 127.34 218.747 127.049C220.483 121.765 217.627 112.97 221.248 99.9293C223.935 90.2529 228.952 82.6841 231.291 79.158C234.165 74.8213 237.422 70.8191 241.195 64.4255C242.013 63.0425 242.855 61.5429 243.725 59.9065C244.017 59.3594 247.379 53.0114 247.073 52.8138C246.929 52.7227 246.04 54.0044 245.739 54.435C243.08 58.2448 241.535 59.9116 239.32 62.6524C237.977 64.3141 236.389 66.3659 234.16 69.5322C228.445 77.6432 225.59 81.6962 224.595 84.7308C223.403 88.3817 221.965 91.9372 220.291 95.3698C218.943 98.146 218.268 99.5342 217.9 99.4227C216.857 99.1035 218.264 87.6084 222.682 76.1183C223.438 74.1627 224.002 72.9114 225.074 70.5455C226.814 66.6851 236.508 45.2298 243.634 32.387C244.529 30.7709 245.385 29.2966 246.174 28.0047C246.327 27.7616 246.475 27.5234 246.618 27.2955C247.392 26.0174 248.264 24.8093 249.225 23.6833C249.612 23.2577 250.597 22.052 252.573 19.6304C253.357 18.6678 253.931 17.9535 254.318 17.4316C254.376 17.3557 254.428 17.2796 254.471 17.2138C254.94 16.5653 255.074 16.2512 254.964 16.084C254.806 15.8459 254.199 15.9827 253.534 16.2309C253.462 16.2563 253.386 16.2867 253.314 16.3171C252.592 16.6008 251.86 16.9706 251.616 17.0973C249.378 18.2372 247.192 20.2788 245.169 22.7055C244.419 23.6022 243.696 24.5496 242.998 25.5223C240.903 28.5063 239.002 31.6377 237.307 34.8948C235.49 38.36 234.399 40.9083 234.399 40.9083C229.325 52.7784 223.696 66.3558 223.4 66.2393C223.075 66.1126 229.316 49.2118 231.133 40.0319C231.74 36.9567 231.85 34.7478 231.052 34.3223C231.023 34.3058 230.992 34.2922 230.961 34.2818C230.864 34.2481 230.761 34.236 230.66 34.2463C230.152 34.1903 229.639 34.216 229.139 34.3223C228.168 34.5452 227.063 37.4076 225.987 41.4251C223.189 51.7803 220.53 69.7856 220.53 69.7856C217.871 87.7958 213.835 102.371 212.878 102.209C212.348 102.118 213.108 97.5938 212.4 90.0503C211.903 84.7612 211.339 84.9233 209.531 75.3584C206.661 60.1851 205.227 52.5859 205.227 52.5605C205.264 52.0167 205.251 51.4704 205.188 50.9292C205.093 50.2048 204.849 49.4448 204.27 49.0142C203.39 48.3556 201.975 48.6393 201.401 49.0142C200.942 49.3182 200.707 49.8755 200.655 50.6759C200.339 55.7117 207.168 70.3124 209.531 90.0503C210.707 99.8837 211.353 105.249 209.531 112.341C207.728 119.373 204.586 123.852 204.237 127.049Z" fill="#F2F2F2"/>
<path d="M172.737 0.125542C178.24 -0.630643 185.076 2.15137 185.484 5.19173C185.819 7.69445 181.745 9.97949 182.129 10.2579C182.488 10.5181 185.012 7.77213 188.167 7.72482C192.935 7.65332 198.657 13.7506 196.889 17.3506C195.47 20.2403 189.389 21.1855 189.509 21.4035C189.623 21.6091 194.256 19.3664 198.901 19.8837C205.553 20.6243 211.923 26.9887 210.307 31.0293C208.501 35.5441 196.811 36.9421 196.889 37.1087C196.971 37.2847 208.654 32.7679 212.99 35.5888C215.898 37.4809 215.481 41.8914 213.661 44.7079C209.862 50.5866 198.009 52.6698 192.193 49.7741C187.67 47.5226 189.574 38.9508 185.009 31.8454C179.403 23.1197 170.798 25.3558 170.724 18.8704C170.717 18.2807 170.696 16.3818 172.066 15.8307C174.254 14.9507 178.477 18.1177 178.775 17.8572C179.097 17.5754 173.444 14.4914 170.053 9.24468C168.987 7.5944 166.561 3.83985 168.711 1.64541C169.806 0.528148 171.635 0.276851 172.737 0.125542Z" fill="#F2F2F2"/>
<path d="M45.5894 101.971H85.9889C89.8352 101.983 93.52 103.611 96.2348 106.497C98.9496 109.384 100.473 113.293 100.47 117.368V128.143H45.5894V101.971Z" fill="#F2F2F2"/>
<path d="M84.472 107.334H89.7373V86.7394H84.472V107.334Z" fill="#F2F2F2"/>
<path d="M45.5897 107.334H50.855V86.7394H45.5897V107.334Z" fill="#F2F2F2"/>
<path d="M49.2347 88.8848H85.2817V88.4557H49.2347V88.8848Z" fill="#F2F2F2"/>
<path d="M49.2347 95.7495H85.2817V95.3205H49.2347V95.7495Z" fill="#F2F2F2"/>
<path d="M49.2347 99.1819H85.2817V98.7528H49.2347V99.1819Z" fill="#F2F2F2"/>
<path d="M50.7634 127.048C50.7973 127.331 50.8053 127.616 50.7873 127.9H36.5883C36.4591 127.624 36.3473 127.34 36.2535 127.048C34.5175 121.764 37.3726 112.97 33.7523 99.9292C31.0646 90.2528 26.0478 82.6839 23.7092 79.1579C20.835 74.8212 17.5781 70.8189 13.8048 64.4254C12.987 63.0424 12.1453 61.5428 11.2749 59.9064C10.9832 59.3592 7.62113 53.0113 7.92722 52.8137C8.07068 52.7225 8.96021 54.0043 9.2615 54.4349C11.9205 58.2447 13.4653 59.9115 15.6795 62.6522C17.0234 64.314 18.6112 66.3658 20.8398 69.5321C26.5548 77.6431 29.4099 81.696 30.4046 84.7307C31.597 88.3816 33.0354 91.9371 34.7088 95.3697C36.0574 98.1459 36.7317 99.534 37.1 99.4226C38.1426 99.1034 36.7365 87.6083 32.3176 76.1182C31.5619 74.1626 30.9976 72.9113 29.9264 70.5454C28.1856 66.6849 18.4916 45.2296 11.3658 32.3869C10.4715 30.7708 9.61543 29.2965 8.82631 28.0046C8.67327 27.7615 8.52502 27.5233 8.38155 27.2954C7.60814 26.0173 6.73637 24.8091 5.77513 23.6832C5.38775 23.2576 4.40256 22.0519 2.42743 19.6302C1.6431 18.6677 1.06921 17.9533 0.681833 17.4315C0.624458 17.3555 0.571845 17.2795 0.528819 17.2137C0.0601251 16.5652 -0.0737669 16.2511 0.0362208 16.0839C0.194047 15.8458 0.801394 15.9826 1.46616 16.2308C1.53791 16.2562 1.61442 16.2865 1.68616 16.3169C2.40831 16.6006 3.14001 16.9705 3.38391 17.0972C5.62208 18.237 7.80766 20.2787 9.83061 22.7054C10.5815 23.6021 11.3036 24.5495 12.0019 25.5222C14.0971 28.5062 15.9985 31.6376 17.6929 34.8947C19.5102 38.3599 20.6007 40.9082 20.6007 40.9082C25.6748 52.7783 31.3037 66.3556 31.6002 66.2391C31.9254 66.1125 25.6844 49.2117 23.8671 40.0317C23.2597 36.9566 23.1497 34.7477 23.9483 34.3222C23.9774 34.3056 24.0078 34.2921 24.0392 34.2816C24.1363 34.2479 24.2388 34.2359 24.3405 34.2462C24.8482 34.1902 25.3609 34.2158 25.8613 34.3222C26.8322 34.5451 27.9369 37.4075 29.0129 41.4249C31.8106 51.7802 34.4697 69.7855 34.4697 69.7855C37.1287 87.7957 41.1651 102.371 42.1216 102.209C42.6524 102.118 41.892 97.5937 42.5998 90.0502C43.0972 84.7611 43.6615 84.9232 45.4692 75.3583C48.3387 60.185 49.7734 52.5858 49.7734 52.5604C49.7364 52.0166 49.7492 51.4703 49.8117 50.9291C49.9074 50.2047 50.1512 49.4447 50.7299 49.0141C51.6099 48.3555 53.0255 48.6392 53.5994 49.0141C54.0585 49.3181 54.2928 49.8754 54.3454 50.6758C54.6611 55.7116 47.8318 70.3123 45.4692 90.0502C44.2928 99.8836 43.6471 105.249 45.4692 112.341C47.2722 119.373 50.4143 123.852 50.7634 127.048Z" fill="#F2F2F2"/>
<path d="M231.109 127.942C231.109 127.974 231.103 128.005 231.092 128.034C231.081 128.063 231.064 128.09 231.043 128.112C231.022 128.134 230.997 128.152 230.97 128.163C230.942 128.175 230.913 128.181 230.883 128.181H23.584V127.704H230.883C230.913 127.704 230.942 127.71 230.97 127.722C230.997 127.734 231.022 127.751 231.043 127.774C231.064 127.796 231.08 127.822 231.091 127.851C231.103 127.88 231.109 127.911 231.109 127.942Z" fill="#E6E6E6"/>
<path d="M131.201 23.6982C131.973 24.1576 133.218 22.3406 133.501 23.2294C133.783 24.1181 133.099 27.7041 132.747 28.5642C132.571 28.9917 132.323 29.3827 132.151 29.8117C131.954 30.2339 131.914 30.7192 132.039 31.1713C132.304 31.9324 133.177 32.242 133.61 32.911C134.114 33.6902 133.911 34.7396 133.675 35.6507C133.501 36.445 133.229 37.2113 132.864 37.9294C132.493 38.6526 131.881 39.2029 131.146 39.4726C130.208 39.7679 129.206 39.417 128.301 39.0208C127.42 38.6663 126.59 38.1855 125.832 37.5919C125.071 36.9923 124.507 36.1557 124.217 35.1993C123.893 33.9971 124.164 32.6815 124.725 31.5818C125.328 30.5041 126.085 29.5322 126.969 28.7008C128.405 27.2435 129.931 25.8896 131.538 24.6481" fill="#2F2E41"/>
<path d="M119.725 85.3818L121.334 101.287C121.334 101.287 117.58 109.523 121.602 119.463L121.87 125.144L126.428 124.576L125.355 119.747L127.768 100.151L129.645 85.9499L119.725 85.3818Z" fill="#FFB6B6"/>
<path d="M132.594 85.0979C132.594 85.0979 131.521 97.5945 133.666 104.127C133.666 104.127 132.594 114.067 135.543 124.576V132.4L140.369 131.392L140.101 102.139L141.441 86.234L132.594 85.0979Z" fill="#FFB6B6"/>
<path d="M133.28 36.4578C132.618 37.3364 131.688 37.9429 130.649 38.1729C129.611 38.4028 128.529 38.2418 127.591 37.7175C124.83 36.1765 121.061 34.4104 120.395 35.8216C119.746 37.2181 119.381 38.7433 119.323 40.2988L118.25 66.7791C118.25 66.7791 117.714 77.471 124.417 76.5273C131.12 75.5835 141.576 79.5597 141.576 79.5597L139.029 51.5844L138.492 40.5079L136.079 39.3718C136.079 39.3718 135.811 37.3837 135.007 37.3837C134.203 37.3837 134.009 35.4739 133.301 36.4288L133.28 36.4578Z" fill="#FF8833"/>
<path d="M119.189 66.353L114.631 86.518C114.631 86.518 125.623 93.3343 130.717 86.802L131.522 83.6778L132.058 87.086C132.058 87.086 139.833 91.9142 141.978 88.7901L141.575 79.5596L136.616 68.9091L119.189 66.353Z" fill="#2F2E41"/>
<path d="M121.712 121.797C121.712 121.797 119.993 123.156 120.529 124.86C121.066 126.564 125.087 133.096 128.573 132.244C132.058 131.392 130.449 129.404 130.449 129.404L126.428 123.156C126.428 123.156 124.819 123.44 124.015 124.008C123.21 124.576 121.712 121.797 121.712 121.797Z" fill="#2F2E41"/>
<path d="M135.543 129.972C135.543 129.972 132.594 133.096 134.203 134.516C135.811 135.936 146.804 137.072 146.536 135.368C146.268 133.664 140.637 128.836 140.637 128.836C140.637 128.836 139.029 128.268 138.492 129.688C137.956 131.108 135.543 129.972 135.543 129.972Z" fill="#2F2E41"/>
<path d="M136.884 99.0145C134.996 100.22 134.81 100.789 133.666 101.287C133.087 101.538 132.004 101.884 129.913 101.571C127.032 101.138 125.255 99.9055 120.261 97.0264C116.699 94.9729 114.957 94.0749 112.486 93.6182C110.634 93.276 109.558 93.4006 108.732 93.6182C105.854 94.3773 104.283 96.7291 103.907 97.3104C102.606 99.3196 102.441 101.282 102.298 102.991C102.117 105.143 101.856 108.253 103.37 110.659C105.267 113.674 107.909 112.338 112.486 115.203C117.544 118.371 116.698 121.494 120.797 123.156C126.042 125.282 131.752 121.921 132.058 121.736C137.488 118.436 138.599 112.449 141.441 112.931C143.139 113.219 143.309 115.452 145.999 116.055C146.503 116.168 148.574 116.633 150.021 115.203C150.909 114.325 150.882 116.291 150.423 115.061C149.834 113.482 148.645 110.4 147.876 108.671C147.465 107.747 147.928 107.462 147.608 104.979C147.451 103.766 147.372 103.153 147.072 102.423C146.326 100.612 144.879 99.677 143.854 99.0145C142.607 98.2085 141.381 97.4161 139.833 97.5944C138.947 97.6964 138.259 98.1358 136.884 99.0145Z" fill="#3F3D56"/>
<path d="M104.175 105.831C103.699 106.244 103.586 107.08 103.37 108.671C103.171 110.143 103.292 111.046 103.37 112.647C103.488 115.051 103.303 114.828 103.37 118.043C103.426 120.689 103.454 122.013 103.638 123.156C103.97 125.211 104.147 124.422 105.783 129.688C106.115 130.757 106.379 131.663 107.124 131.96C108.056 132.332 109.131 131.502 109.269 131.392C109.495 131.213 110.291 130.58 110.341 129.688C110.404 128.555 109.194 128.268 108.196 126.564C107.573 125.5 107.423 124.434 107.124 122.304C106.839 120.277 106.696 119.264 107.124 118.327C107.904 116.618 109.687 116.088 109.805 116.055C110.872 115.756 111.217 116.18 112.486 116.055C113.672 115.939 115.627 115.347 115.971 114.351C116.915 111.621 106.447 103.859 104.175 105.831Z" fill="#3F3D56"/>
<path d="M108.465 101.855C107.989 102.267 107.876 103.104 107.66 104.695C107.461 106.166 107.582 107.069 107.66 108.671C107.778 111.075 107.593 110.851 107.66 114.067C107.716 116.713 107.744 118.036 107.928 119.179C108.261 121.235 108.437 120.445 110.073 125.712C110.405 126.78 110.67 127.687 111.414 127.984C112.346 128.355 113.421 127.525 113.559 127.416C113.785 127.236 114.581 126.604 114.631 125.712C114.694 124.579 113.484 124.292 112.486 122.588C111.863 121.523 111.713 120.458 111.414 118.327C111.129 116.301 110.986 115.288 111.414 114.351C112.194 112.642 113.977 112.112 114.095 112.079C115.162 111.78 115.507 112.203 116.776 112.079C117.962 111.963 119.917 111.371 120.261 110.375C121.205 107.644 110.737 99.883 108.465 101.855Z" fill="#3F3D56"/>
<path d="M116.507 115.771C116.206 116.259 115.859 117.517 115.167 120.032C114.858 121.153 112.859 128.533 112.218 130.824C112.028 131.658 111.661 132.435 111.145 133.096C110.599 133.762 110.307 133.741 110.073 134.232C109.465 135.51 110.652 137.313 110.877 137.64C111.14 138.022 112.359 139.792 114.094 139.629C114.276 139.612 115.448 139.501 115.703 138.777C116.094 137.666 113.797 136.624 113.826 134.8C113.844 133.724 114.658 133.277 115.703 131.96C117.944 129.134 116.988 127.666 118.652 125.428C121.141 122.08 125.766 122.019 126.427 122.02C128.14 122.022 130.523 122.026 132.058 123.724C134.197 126.091 133.313 130.231 134.202 136.504C134.339 137.366 134.518 138.219 134.739 139.061C135.385 141.6 135.901 142.256 136.079 142.469C136.557 143.081 137.187 143.539 137.898 143.79C138.609 144.041 139.372 144.075 140.101 143.889C140.731 143.738 141.305 143.6 141.709 143.037C141.911 142.757 142.042 142.428 142.089 142.08C142.136 141.732 142.097 141.377 141.977 141.049C141.655 140.282 140.99 140.406 140.101 139.629C139.473 139.08 139.146 138.316 138.492 136.788C138.046 135.784 137.687 134.738 137.42 133.664C137.016 132.018 136.966 130.745 136.883 128.268C136.814 126.181 136.847 124.446 136.883 122.588C136.925 120.424 136.983 119.718 136.883 118.328C136.78 116.869 136.678 115.449 136.347 114.635C134.567 110.258 120.438 109.421 116.507 115.771Z" fill="#3F3D56"/>
<path d="M105.247 96.4584C104.101 95.787 103.938 94.216 103.639 91.3461C103.421 89.2555 103.291 88.0106 103.907 86.5179C104.462 85.1995 105.402 84.1045 106.588 83.3937C106.905 83.2092 108.988 82.0391 111.146 82.8257C111.447 82.9355 112.244 83.5631 113.827 84.8138C115.715 86.3063 115.992 86.5909 116.24 87.0859C116.902 88.4102 116.831 90.2 116.24 90.4941C115.79 90.7175 115.014 90.0908 114.631 89.642C114.174 89.1056 114.242 88.7807 113.827 88.222C113.497 87.7791 113.187 87.6247 112.218 87.0859C109.817 85.7515 109.696 85.5744 109.269 85.6659C108.205 85.8937 107.698 87.2635 107.66 87.3699C107.336 88.283 107.558 89.1133 107.928 90.4941C108.151 91.2687 108.42 92.0276 108.733 92.7662C109.432 94.5368 109.616 94.6696 109.537 95.0383C109.279 96.2477 106.761 97.3451 105.247 96.4584Z" fill="#3F3D56"/>
<path d="M140.278 79.6972C140.236 81.3199 140.993 82.658 141.967 82.6861C142.942 82.7142 143.766 81.4216 143.808 79.7983C143.833 79.1501 143.711 78.505 143.452 77.917L143.548 71.0393L140.5 71.0607L140.73 77.8386C140.441 78.411 140.286 79.0483 140.278 79.6972Z" fill="#FFB6B6"/>
<path d="M138.09 40.3657C138.09 40.3657 142.112 41.7858 142.38 46.614C142.648 51.4422 142.916 54.2824 142.916 54.2824L143.318 56.2551C143.318 56.2551 144.524 59.3946 143.988 61.6667C143.452 63.9388 144.053 73.1391 144.053 73.1391L140.235 73.0273L137.554 62.5188L138.09 40.3657Z" fill="#FF8833"/>
<path d="M132.728 101.429C132.285 101.506 132.07 104.191 132.728 106.541C133.108 107.771 133.618 108.952 134.248 110.062C134.376 110.288 134.499 110.494 134.873 111.085C136.702 113.978 137.625 115.422 138.09 115.345C138.71 115.243 137.014 113.69 136.884 112.206C136.642 109.446 135.472 109.105 133.398 105.106C132.276 102.941 133.074 101.368 132.728 101.429Z" fill="#FF8833"/>
<path d="M142.112 100.577C142.336 99.3681 141.062 97.6898 139.699 97.4524C137.712 97.1063 135.987 99.9026 135.409 101.713C134.615 104.202 135.507 106.341 135.945 107.393C136.495 108.712 136.907 108.798 137.018 108.813C137.829 108.92 138.791 107.347 139.163 105.973C139.49 104.764 139.121 104.599 139.431 103.701C140.069 101.852 141.873 101.866 142.112 100.577Z" fill="#2F2E41"/>
<path d="M134.873 29.6841C134.873 30.8572 134.545 32.004 133.93 32.9794C133.314 33.9548 132.44 34.715 131.417 35.1639C130.394 35.6129 129.268 35.7303 128.182 35.5015C127.095 35.2726 126.098 34.7077 125.315 33.8782C124.532 33.0487 123.998 31.9918 123.782 30.8412C123.566 29.6906 123.677 28.498 124.101 27.4142C124.525 26.3304 125.242 25.4041 126.163 24.7523C127.084 24.1006 128.167 23.7527 129.274 23.7527C130.759 23.7527 132.183 24.3776 133.233 25.4899C134.283 26.6023 134.873 28.111 134.873 29.6841Z" fill="#FFB6B6"/>
<path d="M122.962 38.9734C124.274 40.9693 124.931 43.3671 124.831 45.7973C126.313 45.037 127.313 43.4305 127.653 41.7241C127.993 40.0177 127.734 38.2259 127.187 36.5809C127.181 36.5644 127.176 36.548 127.17 36.5316C126.76 35.3329 126.727 34.0253 127.078 32.8055C127.429 31.5857 128.145 30.5197 129.117 29.7678C130.475 28.7318 131.638 27.4349 132.544 25.9446C133.053 25.1041 133.485 24.0496 133.105 23.136C132.755 22.2941 131.851 21.9007 131.019 21.6374C129.119 21.0362 127.1 20.6941 125.15 21.0745C123.2 21.4549 121.323 22.6429 120.401 24.5028C119.479 26.3626 119.721 28.9008 121.217 30.2796C120.979 30.3612 120.774 30.5255 120.635 30.746C120.496 30.9665 120.431 31.2303 120.451 31.4945C120.471 31.7588 120.575 32.0081 120.746 32.202C120.917 32.3959 121.144 32.5231 121.392 32.5629C121.072 32.5509 120.883 32.9972 120.997 33.3139C121.145 33.6179 121.389 33.8573 121.686 33.9905C122.085 34.2228 122.529 34.4656 122.53 35.0738C122.527 35.3184 122.452 35.5558 122.315 35.7526C121.99 36.2329 121.465 36.4492 120.96 36.6523C121.494 36.8273 121.972 37.1532 122.345 37.595C122.717 38.0368 122.968 38.5777 123.071 39.1596" fill="#2F2E41"/>
<path d="M126.015 69.6668L125.23 69.8557L133.123 106.635L133.907 106.447L126.015 69.6668Z" fill="#FF8833"/>
<path d="M124.603 72.3394C125.833 73.3072 127.302 73.4192 127.883 72.5897C128.464 71.7602 127.938 70.3035 126.707 69.3356C126.221 68.9418 125.652 68.6772 125.049 68.5639L119.788 64.5332L118.055 67.1891L123.426 70.8807C123.702 71.4596 124.106 71.9598 124.603 72.3394Z" fill="#FFB6B6"/>
<path d="M121.288 39.5137C121.288 39.5137 117.044 39.6557 116.24 42.7798C114.611 48.9694 113.887 55.3869 114.095 61.8087C114.095 61.8087 112.754 67.773 116.24 67.489L121.065 69.7611L124.283 65.2169L121.602 61.8087L121.288 39.5137Z" fill="#FF8833"/>
</g>
<defs>
<clipPath id="clip0_58_371">
<rect width="255" height="144" fill="white"/>
</clipPath>
</defs>
</svg>
