<svg width="258" height="181" viewBox="0 0 258 181" fill="none" xmlns="http://www.w3.org/2000/svg">
<g clip-path="url(#clip0_58_196)">
<path d="M1.5909 11.2449L166.067 11.2449C166.428 11.2374 166.715 10.9559 166.707 10.6163C166.699 10.2872 166.417 10.0222 166.067 10.0149L1.5909 10.0149C1.22964 10.0224 0.943283 10.3038 0.951263 10.6435C0.959 10.9725 1.24089 11.2376 1.5909 11.2449Z" fill="#E6E6E6"/>
<path d="M137.101 74.4419L70.7432 74.4419C70.5746 74.4419 70.4378 74.5705 70.4378 74.7291L70.4378 111.008C70.4378 111.166 70.5746 111.295 70.7432 111.295L137.101 111.295L137.101 74.4419Z" fill="#E6E6E6"/>
<path d="M70.8212 111.491L137.189 74.7201L137.014 74.1636L70.6463 110.934C70.4829 110.98 70.3895 111.141 70.4378 111.295C70.4861 111.449 70.6577 111.536 70.8212 111.491Z" fill="white"/>
<path d="M137.014 111.573L137.189 111.017L70.8212 74.2459C70.6577 74.2005 70.4861 74.2882 70.4378 74.4419C70.3895 74.5956 70.4829 74.757 70.6463 74.8024L137.014 111.573Z" fill="white"/>
<path d="M78.2798 38.1501L129.334 38.1501C130.132 38.1501 130.779 38.7584 130.779 39.5087V39.5087C130.779 40.259 130.132 40.8672 129.334 40.8672L78.2798 40.8672C77.4818 40.8672 76.8349 40.259 76.8349 39.5087C76.8349 38.7584 77.4818 38.1501 78.2798 38.1501Z" fill="#E6E6E6"/>
<path d="M71.4166 46.6311L136.197 46.6311C136.995 46.6311 137.642 47.2393 137.642 47.9896V47.9896C137.642 48.7399 136.995 49.3482 136.197 49.3482L71.4166 49.3482C70.6186 49.3482 69.9717 48.7399 69.9717 47.9896C69.9717 47.2393 70.6186 46.6311 71.4166 46.6311Z" fill="#E6E6E6"/>
<path d="M71.4166 55.1123L136.197 55.1123C136.995 55.1123 137.642 55.7205 137.642 56.4708C137.642 57.2211 136.995 57.8294 136.197 57.8294L71.4166 57.8294C70.6186 57.8294 69.9717 57.2211 69.9717 56.4708C69.9717 55.7205 70.6186 55.1123 71.4166 55.1123Z" fill="#FF8833"/>
<path d="M9.9865 83.7426C9.99157 94.2306 17.0408 103.572 27.5677 107.041C27.7913 107.116 28.0149 107.184 28.2408 107.251C42.0481 111.401 56.8193 104.241 61.2333 91.2594C65.6473 78.2774 58.0326 64.3891 44.2254 60.2389C30.4182 56.0887 15.647 63.2483 11.2329 76.2302C10.4072 78.6588 9.98674 81.193 9.9865 83.7426Z" fill="#E6E6E6"/>
<path d="M71.4281 58.3743C71.5337 59.5182 70.6332 60.526 69.4166 60.6253C69.2869 60.6359 69.1564 60.6357 69.0267 60.6247L65.7947 67.3585L63.6124 64.1138L67.0162 58.2167C67.2071 57.0763 68.345 56.2974 69.5579 56.4769C70.5727 56.6271 71.3459 57.4115 71.4281 58.3743Z" fill="#FFB6B6"/>
<path d="M39.5771 83.7333C39.6241 83.5343 39.6842 83.3382 39.7569 83.1461C40.2202 81.9085 41.1636 80.881 42.3983 80.2696C42.4275 80.2536 42.4591 80.2376 42.4883 80.2239L57.2531 73.1799L58.5629 70.7786L63.8555 61.0842L65.1531 61.4475L68.2198 62.3043L68.2903 62.3226L63.2067 78.4075L62.0403 79.2483L48.8282 88.7484L48.3981 89.0591C46.2033 90.6344 43.1131 90.4635 41.1299 88.657C40.9321 88.4787 40.7493 88.2862 40.5831 88.0813C39.5757 86.8452 39.2069 85.2512 39.5771 83.7333Z" fill="#FF8833"/>
<path d="M31.3685 101.399L31.4462 98.7491L31.6698 91.0631C30.8606 86.1439 30.2871 85.5979 34.1897 82.2347C34.4912 82.1739 34.7515 81.9964 34.9066 81.7457C35.2613 81.0648 34.4084 79.9088 35.1447 78.1289L40.9549 78.4419L42.3983 80.2698L48.2061 87.6268C48.4336 87.9905 48.6413 88.3649 48.8282 88.7486C51.3141 93.8254 47.9437 96.5237 47.6812 96.9875L46.0725 101.751L45.1856 106.371L44.8988 107.013L44.0896 107.292C38.9274 108.808 33.3942 108.793 28.241 107.251C29.1082 105.222 30.1544 103.265 31.3685 101.399Z" fill="#FF8833"/>
<path d="M20.1149 120.084C19.6179 119.035 20.1191 117.806 21.2345 117.339C21.3534 117.289 21.4768 117.249 21.6032 117.22L22.3198 109.863L25.5093 112.26L24.3398 118.878C24.5554 120.015 23.7503 121.1 22.5416 121.303C21.5302 121.473 20.527 120.969 20.1149 120.084Z" fill="#FFB6B6"/>
<path d="M31.2275 84.0098C32.0701 82.8111 33.401 81.9921 34.9065 81.7456C35.2289 81.6907 35.5558 81.6632 35.8834 81.6633C36.9752 81.6635 38.0428 81.9663 38.9525 82.5338C39.2411 82.7129 39.5105 82.918 39.7568 83.1462C41.9652 85.1572 42.0215 88.4706 39.8827 90.547L39.8808 90.5489L31.4461 98.749L28.3721 101.737L27.5678 107.04L26.3309 115.199L24.9799 115.254L21.7819 115.387L21.709 115.389L21.1769 103.956L20.929 98.6256L31.2275 84.0098Z" fill="#FF8833"/>
<path d="M42.7537 65.5874C44.8078 69.3942 43.466 73.8037 39.6541 76.1225C35.5322 78.6299 30.1804 78.0809 28.4494 73.2082C26.5217 67.7819 28.1053 65.4541 31.5489 62.6731C35.5844 59.4141 40.5342 61.4743 42.7537 65.5874Z" fill="#2F2E41"/>
<path d="M32.6417 74.0677C34.8204 76.7528 38.9016 77.2689 41.7573 75.2205C44.6094 73.1747 45.1612 69.3439 42.9906 66.6586L42.9342 66.5889C40.6921 63.9503 36.5996 63.5202 33.7934 65.6283C31.0509 67.6884 30.5419 71.4229 32.6433 74.0666L32.6417 74.0677Z" fill="#FFB6B6"/>
<path d="M44.7444 64.9712C43.6874 65.9168 42.3991 66.6032 40.9931 66.9697C40.7112 66.6632 40.3771 66.4028 40.0045 66.1994C40.1829 66.5484 40.3051 66.9203 40.3673 67.3031C39.7402 68.5267 37.1791 69.4061 34.7314 70.3057L31.4893 64.926L35.7806 62.6397C39.2287 60.3983 43.288 61.355 44.7444 64.9712Z" fill="#2F2E41"/>
<path d="M29.0436 62.6799C28.4077 62.4596 27.6963 62.5572 27.154 62.9393C26.6315 63.3128 26.2092 63.7958 25.9205 64.35C25.3956 65.2466 25.0185 66.2129 24.8021 67.2159C24.617 68.0837 24.6483 69.1327 25.4764 69.5856C26.1673 69.9634 27.1552 69.7255 27.7902 69.2212C28.3788 68.6922 28.8252 68.0392 29.0928 67.3162C29.4026 66.6242 29.6957 65.9067 30.2463 65.332L29.6742 65.5831C29.8551 65.0669 29.9393 64.5251 29.9233 63.9819C29.8967 63.4318 29.5618 62.9363 29.0436 62.6799Z" fill="#2F2E41"/>
<path d="M36.4658 63.385L31.8619 65.8378C29.2695 67.2189 28.3588 70.3144 29.8277 72.7519C31.957 76.2843 36.594 77.7151 40.5353 76.0558L36.3284 72.564L42.0354 75.298L43.2539 74.6488C37.1333 73.6025 35.9526 69.0883 36.4658 63.385Z" fill="#2F2E41"/>
<path d="M27.769 67.6959C26.9942 68.544 25.7811 68.8737 24.6867 69.3151C20.7655 70.9324 17.9464 74.2656 17.1535 78.2219C16.8509 79.8092 16.8905 81.4523 16.4126 82.9997C15.9375 84.5471 14.7612 86.0653 13.073 86.3339C11.9306 86.5173 10.7853 86.1025 9.71075 85.6931C9.11973 85.4698 8.52874 85.2455 7.93772 85.0204C8.55418 83.5661 9.1697 82.1117 9.78426 80.6574C8.79654 82.0299 7.64784 83.2937 6.35981 84.4249C4.24179 83.6219 2.12191 82.819 0.00010873 82.016C5.22021 82.0346 4.32945 77.2701 5.49733 72.4896C6.13924 69.8628 11.6053 68.084 12.6771 65.5848C14.351 61.6665 19.0863 59.766 23.2537 61.3398C25.0495 62.018 26.5292 63.2762 27.4268 64.8882C28.4986 65.2897 28.5297 66.8584 27.769 67.6959Z" fill="#2F2E41"/>
<path d="M179.406 113.719C180.384 112.554 180.173 110.865 178.935 109.945C178.815 109.856 178.687 109.776 178.554 109.706L180.044 96.389L176.228 95.0957L174.581 110.925C173.918 112.27 174.54 113.864 175.97 114.487C177.167 115.008 178.587 114.691 179.406 113.719Z" fill="#FFB6B6"/>
<path d="M181.447 64.8936C181.447 64.8936 175.252 67.7357 175.232 71.0769C175.211 74.4182 174.698 77.4402 175.183 78.7331C175.668 80.0259 173.951 89.423 174.755 90.3536C175.558 91.2842 173.903 91.7605 174.773 93.3531C175.643 94.9457 176.028 95.2455 175.709 95.6077C175.39 95.97 174.922 102.874 174.922 102.874L180.027 103.474L185.458 81.1907L181.447 64.8936Z" fill="#3F3D56"/>
<path d="M210.909 115.072C209.748 114.067 209.673 112.367 210.742 111.276C210.845 111.17 210.958 111.072 211.078 110.983L207.373 98.0534L210.924 96.2104L215.206 111.598C216.085 112.827 215.738 114.494 214.431 115.321C213.337 116.013 211.881 115.91 210.909 115.072Z" fill="#FFB6B6"/>
<path d="M200.706 67.1597C200.706 67.1597 207.3 69.0478 207.881 72.3443C208.461 75.6408 209.474 78.5489 209.212 79.8974C208.95 81.246 212.222 90.2711 211.584 91.3092C210.947 92.3473 212.661 92.5721 212.069 94.2738C211.477 95.9755 211.147 96.3286 211.523 96.639C211.898 96.9494 213.519 103.698 213.519 103.698L208.578 105.047L199.479 83.8475L200.706 67.1597Z" fill="#3F3D56"/>
<path d="M175.381 172.919L170.983 172.919L168.89 156.967L175.382 156.967L175.381 172.919Z" fill="#FFB6B6"/>
<path d="M169.519 173.291L169.519 170.487L170.675 170.554L175.382 170.816L176.472 170.879L177.305 180.269L177.349 180.772L174.226 180.772L174.126 180.272L173.672 178L172.501 180.272L172.244 180.772L163.964 180.772C162.939 180.766 162.11 179.985 162.105 179.021C161.756 177.486 168.641 174.168 169.519 173.291Z" fill="#2F2E41"/>
<path d="M226.912 168.417L223.086 170.458L212.894 157.555L218.54 154.543L226.912 168.417Z" fill="#FFB6B6"/>
<path d="M222.007 171.459L220.538 169.023L221.572 168.544L225.807 166.589L226.788 166.135L231.611 172.774L232.745 174.333L231.462 175.018L230.03 175.783L228.09 173.63L228.305 176.703L221.542 180.314L221.538 180.314L221.103 180.545C220.209 181.02 219.074 180.724 218.568 179.884C217.46 178.709 221.706 172.634 222.007 171.459Z" fill="#2F2E41"/>
<path d="M197.21 94.6159C206.958 94.9452 210.384 132.316 207.407 132.994L221.3 157.338L201.526 165.672L188.524 123.225L186.357 138.845L189.246 163.634L176.464 166.541L167.624 165.947C169.921 136.399 175.657 105.235 180.41 93.1799L197.21 94.6159Z" fill="#2F2E41"/>
<path d="M201.685 97.2359L201.749 97.4628C195.518 100.722 191.263 100.025 184.451 98.052L179.479 97.0693C178.393 95.7387 179.278 94.4371 180.48 93.1698L177.499 70.1167C177.52 67.13 180.111 64.7241 183.287 64.7429C183.418 64.7437 183.548 64.7487 183.679 64.7578L188.156 61.6389L194.531 61.8457L198.795 66.2741L201.342 67.13L203.322 67.7934C203.722 68.1322 204.159 68.5228 204.577 68.9536L201.446 86.4721L200.115 91.7104C201.9 93.6242 202.883 95.4923 201.685 97.2359Z" fill="#3F3D56"/>
<path d="M237.849 177.879C242.487 177.359 246.629 174.899 249.119 171.184C250.719 168.745 251.544 165.849 252.342 163.048C252.574 162.233 252.814 161.391 253.069 160.578C253.657 158.762 253.011 156.792 251.437 155.602C249.915 154.403 247.77 154.195 246.02 155.077L245.833 155.17L245.506 162.085C245.021 161.158 243.957 159.066 243.114 156.976L243.044 156.801L242.882 156.911C241.187 158.055 239.653 159.396 238.314 160.902C233.531 166.369 231.548 173.538 232.891 180.504L232.932 180.709L237.849 177.879Z" fill="#F2F2F2"/>
<path d="M182.278 57.7065L182.271 57.7049C181.577 57.5322 181.163 56.863 181.347 56.2103L183.199 49.6136C183.53 48.4314 184.11 47.3238 184.905 46.3566C186.459 44.47 188.728 43.2203 191.239 42.8678C192.534 42.6873 193.856 42.7553 195.123 43.0678C200.306 44.3461 201.754 45.958 202.046 54.2069C202.339 62.4557 200.192 60.8136 200.192 60.8136C200.147 60.9727 200.069 61.1217 199.962 61.2517C199.753 61.5053 199.447 61.673 199.109 61.7198C198.936 61.7436 198.76 61.7345 198.59 61.6929C192.117 61.0664 185.561 60.4959 182.277 57.7062L182.278 57.7065Z" fill="#2F2E41"/>
<path d="M197.497 50.7419C198.447 54.3472 196.109 57.994 192.274 58.8871C190.436 59.3152 188.493 59.0407 186.87 58.1239C185.248 57.2139 184.08 55.7311 183.628 54.0064C182.681 50.4004 185.023 46.7554 188.858 45.8652C190.691 45.4397 192.629 45.713 194.249 46.6255C195.873 47.5342 197.043 49.0166 197.497 50.7419Z" fill="#FFB6B6"/>
<path d="M180.823 49.598C181.085 48.663 181.543 47.7871 182.172 47.0221C183.065 44.9286 184.466 43.2365 187.181 44.2638C188.199 44.1223 189.237 44.1748 190.233 44.4182L191.639 44.7601C191.655 44.764 191.671 44.7678 191.687 44.7718C195.776 45.7891 198.213 49.7302 197.131 53.5746L197.094 53.7067L194.12 52.9807L193.854 50.0686L192.903 52.6842L191.367 52.3097L191.233 50.8406L190.753 52.1593C187.841 53.2232 184.465 52.1677 180.787 49.7307L180.823 49.598Z" fill="#2F2E41"/>
<path d="M187.646 58.8165C187.54 59.0182 187.496 59.2439 187.519 59.468C187.53 59.5825 187.558 59.6949 187.603 59.8021C187.641 59.8934 187.69 59.9803 187.75 60.0607C187.927 60.2984 188.188 60.469 188.487 60.5418C188.506 60.5463 188.524 60.5504 188.543 60.5542C188.562 60.558 188.581 60.5614 188.6 60.5644C188.619 60.5676 188.638 60.5703 188.658 60.5724C188.677 60.5746 188.696 60.5765 188.716 60.578L189.821 60.6595L192.092 58.1028L191.342 60.7748L196.364 61.1531L199.547 49.8142L191.5 47.856L191.638 48.1222C192.093 49.0138 192.278 50.0062 192.172 50.9901C192.059 51.9854 191.766 52.9552 191.305 53.8574C190.846 54.7722 190.295 55.6434 189.659 56.4592C189.1 57.183 188.497 57.8759 187.854 58.5345C187.771 58.6189 187.701 58.7138 187.646 58.8165Z" fill="#2F2E41"/>
<path d="M147.808 4.96565C146.382 4.96565 145.225 3.85408 145.225 2.48289C145.225 1.11169 146.382 0.000122137 147.808 0.000122113C149.235 0.00012209 150.391 1.11169 150.391 2.48289C150.391 3.85408 149.235 4.96565 147.808 4.96565Z" fill="#3F3D56"/>
<path d="M138.885 4.96565C137.459 4.96565 136.302 3.85408 136.302 2.48289C136.302 1.11169 137.459 0.000122137 138.885 0.000122113C140.312 0.00012209 141.468 1.11169 141.468 2.48289C141.468 3.85408 140.312 4.96565 138.885 4.96565Z" fill="#3F3D56"/>
<path d="M129.962 4.96565C128.535 4.96565 127.379 3.85408 127.379 2.48289C127.379 1.11169 128.535 0.000122137 129.962 0.000122113C131.388 0.00012209 132.545 1.11169 132.545 2.48289C132.545 3.85408 131.388 4.96565 129.962 4.96565Z" fill="#3F3D56"/>
<path d="M119.787 4.44519C119.866 4.44519 119.946 4.4163 120.005 4.35881L121.748 2.68364C121.864 2.57202 121.864 2.39365 121.748 2.28202L120.005 0.606992C119.887 0.493687 119.694 0.491864 119.574 0.602506C119.453 0.713426 119.451 0.895303 119.569 1.00861L121.103 2.48283L119.569 3.9572C119.451 4.0705 119.453 4.25238 119.574 4.3633C119.633 4.41799 119.71 4.44519 119.787 4.44519Z" fill="#3F3D56"/>
<path d="M116.858 4.44516C116.935 4.44516 117.013 4.41795 117.072 4.36326C117.193 4.25234 117.195 4.07061 117.077 3.95716L115.543 2.4828L117.077 1.00857C117.195 0.895269 117.193 0.713393 117.072 0.602472C116.952 0.49141 116.758 0.493516 116.64 0.606958L114.897 2.28199C114.781 2.39361 114.781 2.57198 114.897 2.68361L116.64 4.35878C116.7 4.41627 116.779 4.44516 116.858 4.44516Z" fill="#3F3D56"/>
<path d="M25.6802 0.287598L28.9209 0.287598C29.2905 0.287598 29.5898 0.569037 29.5898 0.91654L29.5898 3.96648C29.5898 4.31398 29.2905 4.59542 28.9209 4.59542L25.6802 4.59542C25.3106 4.59542 25.0082 4.31398 25.0082 3.96648L25.0082 0.91654C25.0082 0.569037 25.3106 0.287598 25.6802 0.287598Z" fill="#3F3D56"/>
<path d="M33.6218 0.287598L36.8626 0.287598C37.2322 0.287598 37.5315 0.569037 37.5315 0.91654L37.5315 3.96648C37.5315 4.31398 37.2322 4.59542 36.8626 4.59542L33.6218 4.59542C33.2522 4.59542 32.9498 4.31398 32.9498 3.96648L32.9498 0.91654C32.9498 0.569037 33.2522 0.287598 33.6218 0.287598Z" fill="#3F3D56"/>
<path d="M18.1968 0.431152L21.4375 0.431152C21.8071 0.431152 22.1064 0.712591 22.1064 1.06009L22.1064 4.11004C22.1064 4.45754 21.8071 4.73898 21.4375 4.73898L18.1968 4.73898C17.8272 4.73898 17.5248 4.45754 17.5248 4.11004L17.5248 1.0601C17.5248 0.712591 17.8272 0.431152 18.1968 0.431152Z" fill="#3F3D56"/>
<path d="M67.0441 1.59143L92.9489 1.59143C93.4009 1.59143 93.7644 1.93606 93.7644 2.35824C93.7644 2.78041 93.4009 3.12502 92.9489 3.12502L67.0441 3.12502C66.5951 3.12502 66.2286 2.78039 66.2286 2.35824C66.2286 1.93608 66.5951 1.59143 67.0441 1.59143Z" fill="#3F3D56"/>
</g>
<defs>
<clipPath id="clip0_58_196">
<rect width="258" height="181" fill="white" transform="matrix(-1 1.66468e-08 5.21172e-10 1 258 0.00012207)"/>
</clipPath>
</defs>
</svg>
