<svg width="173" height="132" viewBox="0 0 173 132" fill="none" xmlns="http://www.w3.org/2000/svg">
<g clip-path="url(#clip0_58_115)">
<path d="M132.853 122.455H54.5125C54.0268 122.454 53.5612 122.28 53.2178 121.97C52.8744 121.66 52.6812 121.24 52.6807 120.801V72.5069C52.6812 72.0685 52.8744 71.6481 53.2178 71.3381C53.5612 71.0281 54.0268 70.8537 54.5125 70.8531H132.853C133.338 70.8537 133.804 71.0281 134.147 71.3381C134.491 71.6481 134.684 72.0685 134.685 72.5069V120.801C134.684 121.24 134.491 121.66 134.147 121.97C133.804 122.28 133.338 122.454 132.853 122.455Z" fill="white"/>
<path d="M132.853 122.455H54.5125C54.0268 122.454 53.5612 122.28 53.2178 121.97C52.8744 121.66 52.6812 121.24 52.6807 120.801V72.5069C52.6812 72.0685 52.8744 71.6481 53.2178 71.3381C53.5612 71.0281 54.0268 70.8537 54.5125 70.8531H132.853C133.338 70.8537 133.804 71.0281 134.147 71.3381C134.491 71.6481 134.684 72.0685 134.685 72.5069V120.801C134.684 121.24 134.491 121.66 134.147 121.97C133.804 122.28 133.338 122.454 132.853 122.455ZM54.5125 71.2207C54.1348 71.221 53.7726 71.3567 53.5055 71.5978C53.2384 71.839 53.0882 72.1659 53.0877 72.5069V120.801C53.0882 121.142 53.2384 121.469 53.5055 121.71C53.7726 121.951 54.1348 122.087 54.5125 122.087H132.853C133.23 122.087 133.593 121.951 133.86 121.71C134.127 121.469 134.277 121.142 134.277 120.801V72.5069C134.277 72.1659 134.127 71.839 133.86 71.5978C133.593 71.3567 133.23 71.221 132.853 71.2207H54.5125Z" fill="#3F3D56"/>
<path d="M102.751 122.164H84.6138V95.0571C84.6146 94.4142 84.8978 93.7979 85.4014 93.3433C85.9049 92.8886 86.5877 92.6329 87.2998 92.6322H100.065C100.777 92.6329 101.459 92.8886 101.963 93.3432C102.467 93.7979 102.75 94.4142 102.751 95.0571V122.164Z" fill="#E6E6E6"/>
<path d="M128.58 60.5588H118.223V44.9317C118.223 44.4933 118.416 44.0729 118.76 43.7629C119.103 43.4529 119.569 43.2785 120.054 43.278H126.748C127.234 43.2785 127.7 43.4529 128.043 43.7629C128.387 44.0729 128.58 44.4933 128.58 44.9317V60.5588Z" fill="white"/>
<path d="M128.58 60.5588H118.223V44.9317C118.223 44.4933 118.416 44.0729 118.76 43.7629C119.103 43.4529 119.569 43.2785 120.054 43.278H126.748C127.234 43.2785 127.7 43.4529 128.043 43.7629C128.387 44.0729 128.58 44.4933 128.58 44.9317V60.5588ZM118.63 60.1913H128.173V44.9317C128.173 44.5907 128.023 44.2638 127.755 44.0226C127.488 43.7815 127.126 43.6458 126.748 43.6455H120.054C119.677 43.6458 119.315 43.7815 119.048 44.0226C118.78 44.2638 118.63 44.5907 118.63 44.9317V60.1913Z" fill="#3F3D56"/>
<path d="M70.1837 67.1392C81.199 67.1392 90.1286 59.0776 90.1286 49.133C90.1286 39.1885 81.199 31.1268 70.1837 31.1268C59.1684 31.1268 50.2388 39.1885 50.2388 49.133C50.2388 59.0776 59.1684 67.1392 70.1837 67.1392Z" fill="#F2F2F2"/>
<path d="M123.711 40.5384C121.915 40.4874 120.316 39.0084 120.303 37.3859C120.291 35.7635 121.866 34.264 123.661 34.1899C127.659 34.0249 130.931 30.152 130.052 26.6278C129.172 23.1036 124.376 20.8724 120.686 22.2711C117.856 23.344 114.996 19.9633 115.713 17.2688C116.431 14.5743 119.145 12.7649 121.657 11.1715C124.168 9.57822 126.855 7.70746 127.461 4.99079C128.067 2.27411 124.964 -0.980156 122.23 0.279135" fill="#E6E6E6"/>
<path d="M76.9534 100.506H61.6331C61.022 100.506 60.4361 100.286 60.004 99.8961C59.5719 99.506 59.3288 98.9771 59.3281 98.4254V87.0227C59.3288 86.4711 59.5719 85.9421 60.004 85.552C60.4361 85.1619 61.022 84.9425 61.6331 84.9419H76.9534C77.5645 84.9425 78.1504 85.1619 78.5825 85.552C79.0146 85.9421 79.2576 86.4711 79.2583 87.0227V98.4254C79.2577 98.9771 79.0146 99.506 78.5825 99.8961C78.1504 100.286 77.5645 100.506 76.9534 100.506Z" fill="#E6E6E6"/>
<path d="M126.086 100.506H110.766C110.155 100.506 109.569 100.286 109.137 99.8961C108.705 99.506 108.462 98.9771 108.461 98.4254V87.0227C108.462 86.4711 108.705 85.9421 109.137 85.552C109.569 85.1619 110.155 84.9425 110.766 84.9419H126.086C126.697 84.9425 127.283 85.1619 127.715 85.552C128.147 85.9421 128.391 86.4711 128.391 87.0227V98.4254C128.391 98.9771 128.147 99.506 127.715 99.8961C127.283 100.286 126.697 100.506 126.086 100.506Z" fill="#E6E6E6"/>
<path d="M46.8315 71.8465V64.416C46.8315 63.8452 46.9987 63.2846 47.316 62.7909C47.6333 62.2972 48.0895 61.888 48.6384 61.6048L94.3683 38.0084C94.936 37.7155 95.5815 37.5683 96.2351 37.5826C96.8887 37.5969 97.5256 37.7723 98.0768 38.0897L138.875 61.5824C139.384 61.8751 139.802 62.2786 140.092 62.7557C140.381 63.2329 140.533 63.7683 140.533 64.3124V71.8465C140.533 72.7052 140.155 73.5288 139.483 74.1361C138.81 74.7433 137.898 75.0845 136.947 75.0845H50.4182C49.467 75.0845 48.5547 74.7433 47.8821 74.1361C47.2094 73.5288 46.8315 72.7052 46.8315 71.8465Z" fill="#FF8833"/>
<path opacity="0.2" d="M136.947 71.7762H50.4182C49.467 71.7762 48.5547 71.4351 47.8821 70.8278C47.2094 70.2206 46.8315 69.397 46.8315 68.5382V71.4782C46.8315 72.337 47.2094 73.1606 47.8821 73.7679C48.5547 74.3751 49.467 74.7163 50.4182 74.7163H136.947C137.898 74.7163 138.81 74.3751 139.483 73.7679C140.155 73.1606 140.533 72.337 140.533 71.4782V68.5382C140.533 69.397 140.155 70.2206 139.483 70.8278C138.81 71.4351 137.898 71.7762 136.947 71.7762Z" fill="black"/>
<path d="M143.972 97.2032C143.972 91.5051 149.089 77.9839 155.4 77.9839C161.712 77.9839 166.828 91.5051 166.828 97.2032C166.828 99.9395 165.624 102.564 163.481 104.499C161.338 106.433 158.431 107.52 155.4 107.52C152.369 107.52 149.463 106.433 147.319 104.499C145.176 102.564 143.972 99.9395 143.972 97.2032Z" fill="#F2F2F2"/>
<path d="M155.4 122.236C155.346 122.236 155.295 122.216 155.256 122.182C155.218 122.147 155.197 122.101 155.197 122.052V85.0053C155.197 84.9566 155.218 84.9098 155.256 84.8753C155.295 84.8409 155.346 84.8215 155.4 84.8215C155.454 84.8215 155.506 84.8409 155.544 84.8753C155.582 84.9098 155.604 84.9566 155.604 85.0053V122.052C155.604 122.101 155.582 122.147 155.544 122.182C155.506 122.216 155.454 122.236 155.4 122.236Z" fill="#3F3D56"/>
<path d="M155.4 101.434C155.36 101.434 155.321 101.423 155.288 101.403C155.255 101.384 155.229 101.355 155.213 101.322C155.198 101.289 155.193 101.253 155.2 101.217C155.207 101.182 155.226 101.149 155.253 101.123L161.062 95.6196C161.081 95.6021 161.103 95.5881 161.127 95.5783C161.152 95.5686 161.178 95.5633 161.205 95.5627C161.232 95.5621 161.258 95.5663 161.283 95.575C161.308 95.5837 161.331 95.5967 161.35 95.6134C161.37 95.63 161.385 95.6499 161.396 95.672C161.407 95.6941 161.413 95.7178 161.413 95.742C161.414 95.7661 161.409 95.7901 161.4 95.8126C161.39 95.8351 161.376 95.8557 161.357 95.8731L155.548 101.377C155.529 101.395 155.506 101.409 155.48 101.419C155.455 101.429 155.428 101.434 155.4 101.434Z" fill="#3F3D56"/>
<path d="M155.4 92.1547C155.349 92.1548 155.3 92.1376 155.263 92.1065L150.242 87.9626C150.223 87.9463 150.207 87.9267 150.195 87.9048C150.184 87.883 150.177 87.8593 150.176 87.8351C150.175 87.811 150.179 87.7868 150.188 87.7641C150.197 87.7414 150.211 87.7205 150.229 87.7027C150.247 87.6848 150.269 87.6704 150.293 87.6602C150.318 87.65 150.344 87.6442 150.371 87.6431C150.397 87.6421 150.424 87.6458 150.449 87.6541C150.474 87.6624 150.497 87.6751 150.517 87.6915L155.538 91.8354C155.568 91.8604 155.589 91.8931 155.598 91.9291C155.608 91.9652 155.605 92.003 155.59 92.0375C155.575 92.072 155.549 92.1017 155.515 92.1226C155.481 92.1435 155.441 92.1547 155.4 92.1547Z" fill="#3F3D56"/>
<path d="M4.4834 85.866C4.4834 77.4839 12.01 57.5936 21.2946 57.5936C30.5792 57.5936 38.1059 77.4839 38.1059 85.866C38.1059 89.8912 36.3347 93.7516 33.182 96.5978C30.0293 99.4441 25.7533 101.043 21.2946 101.043C16.836 101.043 12.56 99.4441 9.4073 96.5978C6.25458 93.7516 4.4834 89.8912 4.4834 85.866Z" fill="#FF8833"/>
<path d="M21.2948 122.603C21.2409 122.603 21.1891 122.584 21.1509 122.549C21.1128 122.515 21.0913 122.468 21.0913 122.419V67.9223C21.0913 67.8735 21.1127 67.8268 21.1509 67.7923C21.1891 67.7579 21.2409 67.7385 21.2948 67.7385C21.3488 67.7385 21.4006 67.7579 21.4388 67.7923C21.4769 67.8268 21.4984 67.8735 21.4984 67.9223V122.419C21.4984 122.468 21.4769 122.515 21.4388 122.549C21.4006 122.584 21.3488 122.603 21.2948 122.603Z" fill="#3F3D56"/>
<path d="M21.2948 92.0029C21.255 92.0029 21.216 91.9923 21.1828 91.9725C21.1495 91.9527 21.1234 91.9245 21.1077 91.8914C21.0921 91.8584 21.0875 91.8219 21.0945 91.7865C21.1016 91.7511 21.12 91.7184 21.1475 91.6923L29.6934 83.5962C29.7306 83.5609 29.7819 83.5404 29.8358 83.5392C29.8898 83.5381 29.9421 83.5563 29.9812 83.5899C30.0202 83.6235 30.0429 83.6698 30.0442 83.7185C30.0455 83.7673 30.0253 83.8145 29.9881 83.8497L21.4422 91.9459C21.4232 91.9639 21.4003 91.9782 21.375 91.988C21.3497 91.9978 21.3224 92.0029 21.2948 92.0029Z" fill="#3F3D56"/>
<path d="M21.2949 78.3529C21.2441 78.353 21.1951 78.3358 21.1576 78.3048L13.7722 72.2088C13.7324 72.1759 13.7087 72.1301 13.7063 72.0814C13.7038 72.0327 13.723 71.9851 13.7594 71.9492C13.7958 71.9132 13.8466 71.8918 13.9005 71.8896C13.9544 71.8874 14.0071 71.9047 14.0469 71.9375L21.4323 78.0336C21.4626 78.0586 21.4838 78.0913 21.4931 78.1273C21.5025 78.1634 21.4995 78.2012 21.4847 78.2357C21.4698 78.2702 21.4437 78.2999 21.4099 78.3208C21.376 78.3417 21.3359 78.3529 21.2949 78.3529Z" fill="#3F3D56"/>
<path d="M147.417 122.217C147.437 122.231 147.457 122.243 147.476 122.256H164.026C164.35 121.07 164.465 119.883 163.98 118.851C163.29 117.382 161.248 116.465 159.624 117.096C159.239 117.249 158.904 117.489 158.65 117.791C158.015 116.766 156.877 115.993 155.563 115.994C153.917 115.995 152.548 117.21 152.102 118.614C151.383 117.518 149.962 116.752 148.573 117.081C146.251 117.632 145.517 120.892 147.417 122.217Z" fill="#E6E6E6"/>
<path d="M5.23917 122.546C5.27803 122.573 5.31908 122.597 5.35843 122.624H38.7676C39.4222 120.229 39.6534 117.832 38.6755 115.75C37.2823 112.784 33.1591 110.932 29.881 112.206C29.1043 112.516 28.4278 112.999 27.915 113.611C26.6339 111.54 24.336 109.979 21.6836 109.981C18.3605 109.983 15.5975 112.437 14.6958 115.271C13.2439 113.058 10.376 111.512 7.5728 112.177C2.88438 113.29 1.40347 119.869 5.23917 122.546Z" fill="#E6E6E6"/>
<path d="M172.999 122.1L0 122.384L0.000801395 122.751L173 122.467L172.999 122.1Z" fill="#3F3D56"/>
</g>
<defs>
<clipPath id="clip0_58_115">
<rect width="173" height="132" fill="white"/>
</clipPath>
</defs>
</svg>
