<svg width="192" height="135" viewBox="0 0 192 135" fill="none" xmlns="http://www.w3.org/2000/svg">
<g clip-path="url(#clip0_58_70)">
<g opacity="0.2">
<path d="M161.853 116.671C160.53 117.556 159.181 118.413 157.807 119.242C157.593 119.37 157.38 119.499 157.166 119.631C156.133 120.246 155.083 120.845 154.018 121.427C154.026 121.333 154.036 121.24 154.049 121.147C154.171 120.181 154.442 119.246 154.85 118.383C155.042 117.97 155.271 117.579 155.532 117.217C156.573 115.773 158.018 114.966 159.495 115.202C160.415 115.358 161.252 115.88 161.853 116.671Z" fill="#3F3D56"/>
<path d="M164.277 114.461C164.251 114.669 164.217 114.873 164.177 115.075C163.413 115.621 162.638 116.153 161.852 116.671C160.53 117.556 159.181 118.413 157.806 119.242C157.593 119.37 157.38 119.499 157.166 119.631C156.91 119.422 156.675 119.181 156.466 118.914C156.075 118.411 155.761 117.841 155.538 117.225C155.07 115.88 154.921 114.425 155.105 112.998C155.289 111.571 155.799 110.221 156.587 109.076C157.637 107.632 159.073 106.825 160.549 107.06C162.026 107.295 163.208 108.522 163.841 110.232C164.322 111.574 164.473 113.033 164.277 114.461Z" fill="#3F3D56"/>
<path d="M165.338 106.318C165.814 102.636 164.148 99.3228 161.615 98.9184C159.083 98.514 156.644 101.171 156.168 104.854C155.691 108.536 157.358 111.849 159.89 112.254C162.422 112.658 164.861 110.001 165.338 106.318Z" fill="#3F3D56"/>
<path d="M191.771 38.2192C191.32 41.7414 190.186 45.1128 188.447 48.1L175.432 45.9116L187.195 50.0338C186.557 50.9274 185.866 51.7715 185.125 52.5603C187.613 57.3466 188.581 62.923 187.874 68.3939C187.166 73.8648 184.824 78.9129 181.224 82.7274C183.329 86.7614 184.355 91.378 184.182 96.0366C178.649 103.191 171.899 109.608 164.183 115.083C163.415 115.623 162.639 116.153 161.853 116.671C160.53 117.556 159.182 118.413 157.807 119.242C157.354 119.145 156.907 119.034 156.467 118.906C155.919 118.752 155.382 118.574 154.856 118.375C151.248 117.007 148.018 114.63 145.478 111.472C142.938 108.314 141.173 104.482 140.353 100.346C139.534 96.21 139.687 91.909 140.799 87.8578C141.911 83.8067 143.943 80.1422 146.7 77.2176C146.476 76.7887 146.265 76.3527 146.065 75.9096C146.006 75.7813 145.95 75.6531 145.89 75.5209C144.274 71.7762 143.54 67.6368 143.756 63.4906L143.783 63.0611C143.798 62.8298 143.818 62.5966 143.839 62.3653C143.87 62.0388 143.907 61.7104 143.949 61.3819L143.949 61.3508C144.291 58.7 145.023 56.1295 146.114 53.742L161.982 62.6199L147.514 51.0988C148.406 49.6298 149.438 48.2719 150.593 47.0485C149.084 44.1188 148.133 40.876 147.799 37.5212C147.464 34.1664 147.754 30.7711 148.649 27.5457C149.544 24.3202 151.026 21.3334 153.003 18.7703C154.979 16.2072 157.409 14.1224 160.14 12.6452C162.872 11.168 165.847 10.3298 168.882 10.1825C171.918 10.0353 174.948 10.5822 177.785 11.7893C180.622 12.9963 183.205 14.8379 185.376 17.1999C187.546 19.5618 189.256 22.3938 190.401 25.5203L172.581 36.1105L191.361 28.8281C192.04 31.9001 192.179 35.0887 191.771 38.2192Z" fill="#FF8833"/>
<path opacity="0.1" d="M184.177 96.0289C178.644 103.183 171.894 109.6 164.177 115.075C163.414 115.621 162.639 116.153 161.853 116.671C160.53 117.556 159.182 118.413 157.807 119.242C157.354 119.145 156.907 119.034 156.467 118.906C155.919 118.752 155.382 118.574 154.856 118.375C151.248 117.008 148.018 114.63 145.478 111.472C142.938 108.314 141.173 104.482 140.353 100.346C139.534 96.21 139.687 91.909 140.799 87.8579C141.911 83.8067 143.943 80.1422 146.7 77.2176C146.476 76.7888 146.265 76.3528 146.065 75.9097C146.006 75.7814 145.95 75.6531 145.89 75.521C144.274 71.7762 143.54 67.6368 143.756 63.4906L143.783 63.0611C143.798 62.8298 143.818 62.5966 143.839 62.3653C143.87 62.0388 143.907 61.7104 143.949 61.3819L143.949 61.3508C144.085 60.8261 145.89 61.2673 148.64 62.3226L149.221 62.5519C149.83 62.7949 150.479 63.0631 151.161 63.3565C152.65 63.994 154.294 64.7461 156.029 65.578L156.143 65.6324L156.384 65.749C168.052 71.3696 183.4 80.3875 181.2 82.7158C183.312 86.7486 184.344 91.3669 184.177 96.0289Z" fill="black"/>
</g>
<g opacity="0.2">
<path d="M55.7867 127.578C55.052 127.295 54.3226 127.005 53.5984 126.707C51.9121 126.018 50.252 125.289 48.6182 124.521C48.9494 124.222 49.3254 123.991 49.729 123.837C51.1861 123.281 52.7867 123.811 54.0899 125.09C54.7933 125.791 55.3693 126.636 55.7867 127.578Z" fill="#3F3D56"/>
<path d="M54.0899 125.09C53.9908 125.651 53.8255 126.195 53.5983 126.707C51.912 126.018 50.252 125.289 48.6181 124.521C47.1965 123.856 45.7971 123.162 44.4198 122.439C44.3596 121.975 44.3327 121.507 44.3394 121.038C44.3452 120.55 44.3921 120.063 44.4793 119.584C44.8292 117.674 45.8193 116.152 47.2782 115.596C48.7371 115.04 50.3359 115.571 51.6391 116.852C51.9547 117.162 52.244 117.505 52.5033 117.874C53.0777 118.696 53.5204 119.621 53.8118 120.61C54.2534 122.051 54.3493 123.595 54.0899 125.09Z" fill="#3F3D56"/>
<path d="M48.7499 120.871C51.2666 119.988 52.4441 116.239 51.3799 112.498C50.3158 108.757 47.4129 106.441 44.8962 107.325C42.3795 108.209 41.202 111.958 42.2662 115.698C43.3304 119.439 46.2333 121.755 48.7499 120.871Z" fill="#3F3D56"/>
<path d="M45.9383 112.244C48.4457 111.364 49.6196 107.63 48.5603 103.903C47.501 100.176 44.6095 97.8676 42.1021 98.7473C39.5947 99.627 38.4208 103.362 39.4801 107.089C40.5394 110.816 43.4309 113.124 45.9383 112.244Z" fill="#3F3D56"/>
<path d="M52.4945 117.874C52.0082 118.19 51.509 118.486 50.9971 118.762C50.1719 119.208 49.3231 119.597 48.4554 119.928C47.6636 120.232 46.8571 120.486 46.0396 120.688C45.4717 120.831 44.9031 120.947 44.334 121.036C43.6273 121.149 42.9224 121.223 42.2192 121.258C33.7666 116.593 26.1782 110.887 19.7023 104.37C19.6096 104.094 19.5274 103.817 19.4382 103.535C17.7781 98.0044 17.8064 92.0202 19.5187 86.5096C15.1883 83.2792 11.9545 78.5329 10.3314 73.0255C9.52396 70.3304 9.11055 67.5089 9.1069 64.6684L27.4272 64.6684L9.28533 61.4461C9.48685 59.593 9.86447 57.7689 10.4119 56.0043C6.08128 52.775 2.8473 48.0292 1.22461 42.5222C-2.84423 28.8962 3.55291 14.1469 15.5128 9.5719C23.5193 6.51282 31.9876 8.7945 37.9334 14.7222L26.012 34.1106L40.2057 17.3343C42.1262 19.8818 43.5936 22.8114 44.53 25.9673C45.5976 29.532 45.972 33.3079 45.6285 37.0453L32.7485 41.8458L45.2909 39.5272C45.0819 40.7029 44.8008 41.8614 44.4495 42.9944C48.7797 46.2241 52.0136 50.9698 53.6368 56.4765C54.423 59.0999 54.8361 61.8434 54.8613 64.6082L54.8613 64.6296C54.8613 64.8434 54.8613 65.0571 54.8613 65.2709C54.8613 65.3623 54.8613 65.4517 54.8613 65.543C54.8001 68.2573 54.3629 70.945 53.565 73.5114C55.3249 74.8214 56.9142 76.3942 58.2881 78.1855C58.3231 78.2283 58.3563 78.2711 58.3878 78.3158C60.3252 80.8731 61.8043 83.8186 62.7453 86.9935C66.3261 98.985 61.7937 111.851 52.4945 117.874Z" fill="#FF8833"/>
<path opacity="0.1" d="M52.4945 117.874C52.0082 118.19 51.509 118.486 50.9971 118.762C50.1719 119.208 49.3231 119.597 48.4554 119.928C47.6636 120.232 46.8571 120.486 46.0396 120.688C45.4717 120.831 44.9032 120.947 44.3341 121.036C43.6273 121.149 42.9224 121.223 42.2192 121.258C33.7666 116.593 26.1782 110.887 19.7023 104.37C19.6096 104.094 19.5274 103.817 19.4382 103.535C17.7781 98.0044 17.8064 92.0202 19.5187 86.5096C15.1883 83.2792 11.9545 78.5329 10.3314 73.0255C9.70342 70.9226 35.892 69.226 47.8204 70.8527L48.0985 70.8916C51.7195 71.4105 53.9429 72.252 53.5563 73.4978C55.3162 74.8078 56.9054 76.3806 58.2794 78.1719C58.3144 78.2147 58.3476 78.2575 58.3791 78.3022C60.3164 80.8595 61.7955 83.805 62.7366 86.9799C66.3261 98.985 61.7937 111.851 52.4945 117.874Z" fill="black"/>
</g>
<path opacity="0.1" d="M66.8594 45.0235C66.9546 44.873 67.0069 44.6943 67.0099 44.5104C67.0099 43.3929 64.9615 42.4891 62.4355 42.4891C59.9095 42.4891 57.8646 43.4006 57.8646 44.5104C57.8681 44.7222 57.9338 44.927 58.0518 45.0934C55.2407 45.4413 53.3462 46.0963 53.3462 46.8426C53.3462 47.9582 57.5445 48.8619 62.7136 48.8619C67.8828 48.8619 72.0811 47.9582 72.0811 46.8426C72.0793 46.0419 69.9522 45.3539 66.8594 45.0235Z" fill="#FF8833"/>
<path opacity="0.1" d="M139.441 4.02513C139.592 3.7848 139.675 3.50001 139.68 3.20691C139.68 1.43638 136.43 0.000122377 132.421 0.000122311C128.412 0.000122244 125.161 1.43638 125.161 3.20691C125.169 3.53892 125.274 3.85912 125.46 4.11842C120.996 4.67232 117.989 5.71015 117.989 6.89958C117.989 8.67011 124.637 10.1064 132.858 10.1064C141.08 10.1064 147.727 8.67012 147.727 6.89958C147.727 5.63824 144.349 4.54793 139.441 4.02513Z" fill="#FF8833"/>
<path opacity="0.1" d="M81.1898 4.02513C81.3409 3.7848 81.4243 3.50001 81.4294 3.20691C81.4294 1.43638 78.1793 0.000122377 74.1699 0.000122311C70.1605 0.000122244 66.9104 1.43638 66.9104 3.20691C66.9176 3.53892 67.0227 3.85912 67.2095 4.11842C62.7453 4.67232 59.7383 5.71015 59.7383 6.89958C59.7383 8.67011 66.3943 10.1064 74.6072 10.1064C82.8201 10.1064 89.4762 8.67012 89.4762 6.89958C89.4762 5.63824 86.0983 4.54793 81.1898 4.02513Z" fill="#FF8833"/>
<path opacity="0.1" d="M62.7856 20.7665C63.195 20.5042 63.7443 20.7549 64.0241 21.1766C64.304 21.5984 64.3845 22.1484 64.4545 22.6595C64.6102 23.8081 64.7221 25.1278 64.0259 25.9946C65.1647 22.1523 68.4446 19.2078 72.0726 18.7783" stroke="#6C63FF" stroke-width="3" stroke-miterlimit="10"/>
<path opacity="0.1" d="M108.524 1.7163C108.786 1.54721 109.141 1.7163 109.322 1.97867C109.482 2.26714 109.576 2.59473 109.596 2.93294C109.696 3.67147 109.771 4.51884 109.322 5.07079C109.706 3.83732 110.394 2.74849 111.308 1.92831C112.222 1.10813 113.325 0.589552 114.491 0.431641" stroke="#6C63FF" stroke-width="3" stroke-miterlimit="10"/>
<path opacity="0.1" d="M138.612 37.6711C138.874 37.502 139.229 37.6711 139.409 37.9335C139.57 38.222 139.664 38.5496 139.684 38.8878C139.784 39.6263 139.859 40.4737 139.409 41.0256C139.794 39.7922 140.482 38.7033 141.396 37.8831C142.31 37.063 143.412 36.5444 144.579 36.3865" stroke="#6C63FF" stroke-width="3" stroke-miterlimit="10"/>
<path d="M95.7177 12.631C94.969 13.3268 94.4407 14.2189 93.6185 14.8466C92.6284 15.6046 91.3287 15.8922 90.12 16.2984C88.9112 16.7046 87.671 17.3421 87.1847 18.4479C86.7718 19.3944 87.0097 20.4925 86.6599 21.4604C86.2838 22.4885 85.3077 23.2095 84.5607 24.0394C83.0843 25.6758 82.4284 27.9264 82.8114 30.0254C83.0756 31.4772 83.798 32.8182 84.2266 34.235C84.7514 35.9687 84.8249 37.7858 84.8983 39.5836C85.0348 42.9595 85.1695 46.3684 84.4855 49.6898C84.3106 50.5236 83.8383 63.2011 82.9234 63.1758C85.3514 62.9446 87.7934 62.9193 90.2337 62.8921L126.794 62.5034C125.109 60.0546 124.033 45.5832 123.677 42.6971C123.061 37.7217 124.551 32.7405 124.726 27.7321C124.751 27.0868 124.751 26.4241 124.511 25.8177C124.259 25.1822 123.755 24.6399 123.587 23.9811C123.346 23.0385 123.83 22.0726 123.846 21.1047C123.878 19.1612 122.097 17.6705 120.685 16.2304C119.324 14.8447 118.193 13.2704 116.788 11.9197C115.383 10.5689 113.618 9.42422 111.61 9.21626C109.96 9.04718 108.321 9.52334 106.742 9.99366C104.858 10.5534 103.068 11.2608 101.069 11.2258C98.8629 11.1831 97.5037 11.3872 95.7177 12.631Z" fill="#2F2E41"/>
<g opacity="0.1">
<path d="M120.901 20.2864C120.952 20.499 121.026 20.704 121.121 20.8967C121.097 20.4594 121.002 20.0306 120.839 19.6315C120.832 19.8519 120.852 20.0724 120.901 20.2864Z" fill="black"/>
<path d="M85.4441 51.4934L85.2412 51.5128C85.3093 51.5144 85.3773 51.5079 85.4441 51.4934Z" fill="black"/>
</g>
<path d="M123.409 121.53C123.186 121.722 122.919 121.842 122.639 121.878C118.166 122.898 113.653 123.769 109.092 124.045C105.069 124.289 101.033 124.07 97.0083 123.85C92.9832 123.631 88.9616 123.409 85.0327 122.505C86.6606 118.864 87.6857 114.926 88.059 110.881C88.2242 109.106 88.2646 107.319 88.1797 105.537C88.1667 105.322 88.1434 105.109 88.1097 104.897C87.9225 103.618 87.4607 101.766 87.8806 100.841C88.4193 99.6516 90.4887 99.6127 91.4998 99.3912C93.2176 99.0161 94.9442 98.7032 96.6777 98.4408C103.558 97.401 110.508 97.1639 117.44 96.9326C118.371 96.9016 119.48 96.9715 119.964 97.8558C120.235 98.3514 120.221 98.9694 120.207 99.5505C120.176 100.809 120.187 102.067 120.241 103.325C120.484 108.903 121.558 114.398 123.421 119.586C123.652 120.222 123.863 121.054 123.409 121.53Z" fill="#FBBEBE"/>
<path d="M96.1898 52.3193C95.4586 53.3203 94.4283 53.9927 93.391 54.5835C92.1518 55.2948 90.8755 55.923 89.5688 56.4649C89.3046 56.9099 89.5145 57.5007 89.7437 57.975C91.7956 62.4023 94.542 66.8024 98.6843 68.7051C100.81 69.6768 103.141 69.9198 105.433 70.1472C106.147 70.2171 106.874 70.2871 107.571 70.0966C108.267 69.9062 108.914 69.4455 109.495 68.9577C113.29 65.7669 115.789 61.0321 116.443 55.7943C116.499 55.3298 116.499 54.7604 116.14 54.5116C115.922 54.362 115.644 54.3911 115.387 54.3931C113.709 54.4125 112.222 53.0326 111.447 51.3826C110.672 49.7325 110.466 47.8298 110.275 45.9777C110.275 45.9369 100.413 45.7056 99.5222 45.6978C98.1333 45.6842 97.675 45.865 97.5403 47.447C97.3986 49.1922 97.2237 50.8967 96.1898 52.3193Z" fill="#FBBEBE"/>
<path opacity="0.1" d="M96.1898 52.3193C95.4586 53.3203 94.4283 53.9927 93.391 54.5835C92.1518 55.2948 90.8755 55.923 89.5688 56.4649C89.3046 56.9099 89.5145 57.5007 89.7437 57.975C91.7956 62.4023 94.542 66.8024 98.6843 68.7051C100.81 69.6768 103.141 69.9198 105.433 70.1472C106.147 70.2171 106.874 70.2871 107.571 70.0966C108.267 69.9062 108.914 69.4455 109.495 68.9577C113.29 65.7669 115.789 61.0321 116.443 55.7943C116.499 55.3298 116.499 54.7604 116.14 54.5116C115.922 54.362 115.644 54.3911 115.387 54.3931C113.709 54.4125 112.222 53.0326 111.447 51.3826C110.672 49.7325 110.466 47.8298 110.275 45.9777C110.275 45.9369 100.413 45.7056 99.5222 45.6978C98.1333 45.6842 97.675 45.865 97.5403 47.447C97.3986 49.1922 97.2237 50.8967 96.1898 52.3193Z" fill="black"/>
<path d="M104.029 50.2495C111.468 50.2495 117.498 43.5494 117.498 35.2845C117.498 27.0195 111.468 20.3195 104.029 20.3195C96.5896 20.3195 90.5591 27.0195 90.5591 35.2845C90.5591 43.5494 96.5896 50.2495 104.029 50.2495Z" fill="#FBBEBE"/>
<path d="M113.907 53.0268C114.055 55.1258 93.7515 57.0907 92.9853 54.502C92.5305 55.0986 91.6961 55.1472 91.0313 54.8907C90.3666 54.6341 89.8069 54.1405 89.1771 53.777C88.1275 53.1687 86.945 52.9433 85.7817 52.7236C83.8873 52.368 81.6867 52.1076 80.2837 53.5671C79.7992 54.0705 79.4686 54.7332 78.9823 55.2385C78.1321 56.117 76.9303 56.391 75.8335 56.7934C74.2504 57.3764 72.7915 58.3093 71.2959 59.1256C67.8036 61.036 64.0802 62.3728 60.2421 63.0942C59.4252 63.2477 58.6031 63.3721 57.7931 63.5879C56.6561 63.891 55.5191 64.41 54.7441 65.3837C55.6503 66.6703 56.9517 67.3719 58.3494 67.8791L71.8364 72.7768C73.8656 73.5134 75.9263 74.2655 77.7018 75.5851C80.6598 77.7774 82.584 81.3807 83.6371 85.153C84.6902 88.9254 84.9613 92.9057 85.2237 96.8452C85.3374 98.5574 85.4406 100.343 84.8354 101.929C87.9769 102.341 91.1539 102.282 94.2815 101.756C97.292 101.247 100.269 100.303 103.315 100.334C106.638 100.371 109.859 101.568 113.135 102.215C116.412 102.862 120.028 102.882 122.788 100.816C122.2 99.9354 122.111 98.6779 122.088 97.5857L122.018 92.4101C121.987 91.7854 122.025 91.1589 122.13 90.5443C122.365 89.4365 123.024 88.5075 123.446 87.4716C124.259 85.4718 124.145 83.1862 124.191 80.992C124.236 78.7978 124.513 76.4403 125.847 74.8349C126.722 73.7874 127.947 73.1927 129.189 72.8254C131.312 72.1957 133.534 72.1548 135.727 71.9819C142.879 71.4122 149.876 69.3878 156.369 66.0095C155.981 65.098 155.078 64.581 154.254 64.1573C152.305 63.1564 150.241 62.1302 148.104 62.3537C147.07 62.4626 146.046 62.8629 145.016 62.7172C144.04 62.5772 143.176 61.9631 142.228 61.6696C141.509 61.4481 140.757 61.415 140.018 61.2906C138.315 61.001 136.716 60.2217 135.14 59.4501L131.158 57.5066C130.109 56.9916 129.015 56.4416 128.295 55.4465C128.06 55.1219 127.871 54.7566 127.616 54.4514C127.177 53.9286 126.566 53.6196 125.956 53.4039C125.189 53.1073 124.371 53.0076 123.565 53.1123C123.011 53.2345 122.465 53.3935 121.929 53.5885C119.298 54.3776 116.583 53.5574 113.907 53.0268Z" fill="#FF8833"/>
<path d="M129.313 131.302C122.143 133.217 114.839 134.452 107.481 134.994L107.469 134.994L88.995 134.994L88.9845 134.994C85.6783 134.744 82.42 134.362 79.2095 133.848C80.1569 130.714 81.4626 127.729 83.0946 124.966C83.3558 124.575 83.56 124.141 83.6999 123.679C83.7768 123.25 83.8161 122.813 83.8171 122.375C83.9022 121.034 84.3704 119.758 85.1536 118.733C85.5174 118.953 85.8848 119.165 86.2556 119.368C90.4571 121.687 95.0327 123.052 99.7146 123.382C102.177 123.522 104.646 123.467 107.102 123.217C112.64 122.721 118.399 121.578 122.859 117.95C123.047 117.798 123.232 117.641 123.416 117.479C125.583 119.617 126.837 122.894 127.735 125.957C128.268 127.749 128.762 129.537 129.313 131.302Z" fill="#2F2E41"/>
<path opacity="0.1" d="M103.955 118.937C103.868 119.251 103.846 119.583 103.892 119.907C103.938 120.232 104.051 120.54 104.221 120.809C104.334 120.528 104.368 120.215 104.317 119.912C104.267 119.609 104.134 119.331 103.937 119.114L103.955 118.937Z" fill="black"/>
<path d="M96.3016 56.1112C96.9803 55.6992 97.7132 55.3338 98.4864 55.3221C99.6479 55.3105 100.687 56.0996 101.548 56.9702C102.343 57.7687 103.063 58.6557 103.696 59.6173C104.011 60.0935 104.312 60.6163 104.359 61.2051C104.406 61.794 104.116 62.4568 103.598 62.5967C103.271 62.658 102.935 62.5825 102.655 62.3849C101.458 61.6541 100.572 59.9807 99.2141 60.144C98.2835 60.2548 97.6538 61.2168 97.1447 62.0875C96.6917 62.8649 96.2333 63.6637 96.0304 64.5616C95.8275 65.4595 95.9255 66.5051 96.4887 67.1814C96.9261 67.712 97.5645 67.9588 98.1611 68.2348C99.4805 68.8415 100.688 69.7124 101.724 70.8041C102.226 71.3367 102.704 71.9702 102.774 72.7476C102.844 73.5251 102.314 74.3802 101.621 74.3258C101.309 74.2715 101.014 74.1289 100.766 73.9118C99.5133 72.9925 98.2345 72.0285 96.7651 71.6904C95.2695 71.3464 93.7249 71.6904 92.217 71.9469C90.5633 72.2216 88.9015 72.4173 87.2315 72.5339C86.7359 72.597 86.234 72.5608 85.7499 72.427C84.0985 71.8595 83.6175 69.5253 83.8099 67.8383C84.0146 66.0348 85.2093 65.6247 86.4583 64.7287C89.9709 62.175 92.5773 58.3657 96.3016 56.1112Z" fill="#FBBEBE"/>
<path d="M109.241 56.1112C108.561 55.6992 107.829 55.3338 107.055 55.3221C105.893 55.3105 104.854 56.0996 103.993 56.9702C103.198 57.7688 102.479 58.6558 101.847 59.6173C101.534 60.0935 101.233 60.6163 101.186 61.2051C101.138 61.794 101.427 62.4568 101.945 62.5967C102.272 62.6579 102.609 62.5825 102.889 62.3849C104.086 61.6541 104.973 59.9807 106.329 60.144C107.261 60.2548 107.891 61.2168 108.398 62.0875C108.851 62.8649 109.311 63.6637 109.512 64.5616C109.713 65.4595 109.617 66.5051 109.054 67.1814C108.618 67.712 107.978 67.9588 107.382 68.2348C106.062 68.8418 104.854 69.7126 103.817 70.8041C103.315 71.3367 102.839 71.9702 102.767 72.7476C102.695 73.5251 103.227 74.3802 103.92 74.3258C104.232 74.2718 104.527 74.1292 104.775 73.9118C106.028 72.9925 107.306 72.0285 108.776 71.6904C110.271 71.3464 111.816 71.6904 113.324 71.9469C114.974 72.2346 116.637 72.4347 118.304 72.5455C118.8 72.6087 119.303 72.5725 119.788 72.4386C121.437 71.8711 121.918 69.537 121.728 67.85C121.521 66.0464 120.328 65.6363 119.077 64.7404C115.572 62.175 112.967 58.3657 109.241 56.1112Z" fill="#FBBEBE"/>
<path d="M94.7152 29.8776C95.4989 28.5016 96.4295 27.009 97.7012 26.8496C99.4768 26.6261 100.864 29.0925 102.631 29.4112C104.905 29.8232 107.14 26.5892 109.278 27.7709C110.328 28.3539 111.111 29.9709 112.252 29.9398C113.041 29.9204 113.683 29.0983 114.206 28.2917C115.088 26.9318 115.869 25.494 116.541 23.9927C114.37 21.2271 111.213 20.5954 108.265 20.0921L103.309 19.2466C102.116 19.0426 100.902 18.8404 99.7164 19.1223C98.6441 19.3768 97.6435 20.0182 96.6727 20.6926C95.5146 21.5011 92.791 22.7994 92.0808 24.3036C91.5857 25.3473 92.2662 25.8332 92.9047 26.8846C93.5053 27.8823 94.1088 28.88 94.7152 29.8776Z" fill="#2F2E41"/>
<path opacity="0.1" d="M87.2087 63.6559C85.0591 64.1328 82.8639 64.3065 80.6752 64.1729C79.8163 64.1223 78.9539 64.0232 78.0985 64.1126C77.0664 64.2214 76.0745 64.6004 75.0687 64.8764C69.8576 66.301 64.412 64.9094 59.0925 64.1282C58.1531 63.9902 57.1927 63.8716 56.2621 64.0737C55.4102 64.2584 54.623 64.7015 53.8691 65.1776C52.6475 65.9495 51.4782 66.8192 50.3705 67.78C49.2107 68.7867 48.0405 70.0695 47.96 71.7001C47.89 73.1033 48.6597 74.3957 49.5921 75.35C52.111 77.9407 55.851 78.72 59.2236 78.0184C60.5059 77.7522 61.7566 77.2935 63.0528 77.1341C64.3805 76.9709 65.7222 77.1341 67.057 77.0641C69.7684 76.93 72.3643 75.8825 74.997 75.1537C79.1082 74.0164 83.3609 73.646 87.5813 74.0575C87.5446 74.0752 87.5049 74.0836 87.4649 74.0822C87.4249 74.0808 87.3857 74.0695 87.3501 74.0493C87.3144 74.029 87.2833 74.0003 87.2589 73.9651C87.2344 73.9299 87.2173 73.8891 87.2087 73.8457C86.8991 72.8973 86.8834 71.8653 86.8886 70.8566C86.9026 68.4097 87.0058 66.093 87.2087 63.6559Z" fill="black"/>
<path d="M86.8591 63.8502C84.7095 64.3271 82.5143 64.5008 80.3255 64.3672C79.4666 64.3167 78.6043 64.2175 77.7489 64.3069C76.7168 64.4158 75.7249 64.7948 74.7191 65.0707C69.508 66.4953 64.0624 65.1038 58.7428 64.3225C57.8035 64.1845 56.8431 64.0659 55.9125 64.2681C55.0606 64.4527 54.2734 64.8958 53.5195 65.372C52.2979 66.1438 51.1286 67.0136 50.0209 67.9743C48.8611 68.9811 47.6908 70.2638 47.6104 71.8944C47.5404 73.2976 48.3101 74.5901 49.2425 75.5443C51.7614 78.135 55.5014 78.9144 58.874 78.2127C60.1563 77.9465 61.407 77.4878 62.7032 77.3285C64.0309 77.1652 65.3726 77.3285 66.7073 77.2585C69.4187 77.1244 72.0147 76.0768 74.6474 75.348C78.7586 74.2107 83.0113 73.8403 87.2317 74.2519C87.195 74.2695 87.1553 74.278 87.1153 74.2765C87.0753 74.2751 87.0361 74.2639 87.0005 74.2436C86.9648 74.2234 86.9337 74.1946 86.9093 74.1594C86.8848 74.1242 86.8677 74.0835 86.8591 74.04C86.5495 73.0916 86.5338 72.0596 86.539 71.0509C86.553 68.604 86.6562 66.2874 86.8591 63.8502Z" fill="#FF8833"/>
<path opacity="0.1" d="M118.74 62.6161C121.406 63.2905 127.822 63.5879 130.554 63.4868C131.802 63.4441 133.045 63.3197 134.293 63.3236C136.43 63.3236 138.564 63.7123 140.697 63.5549C143.452 63.345 146.158 62.2197 148.906 62.5092C150.257 62.6531 151.556 63.1312 152.844 63.6093C154.131 64.0874 155.534 64.6277 156.44 65.7899C157.28 66.8666 157.586 68.3164 157.864 69.708C158.02 70.4854 158.176 71.2881 158.039 72.0674C157.779 73.5464 156.552 74.5473 155.375 75.2936C153.976 76.1799 152.44 76.9417 150.827 76.9009C149.87 76.8776 148.939 76.5705 148.028 76.2518C145.416 75.3403 142.747 74.3083 140.018 74.5357C138.11 74.6989 136.203 75.4802 134.326 75.0585C133.222 74.8097 132.227 74.1606 131.177 73.7291C128.62 72.6893 122.128 72.9653 119.417 73.253C119.574 71.5602 119.555 69.8538 119.712 68.159C119.835 66.8627 119.952 65.5197 119.578 64.2837C119.343 63.5432 119.265 63.1409 118.74 62.6161Z" fill="black"/>
<path d="M118.915 63.0048C121.58 63.6792 127.997 63.9766 130.729 63.8755C131.976 63.8327 133.22 63.7084 134.467 63.7122C136.605 63.7122 138.739 64.101 140.872 63.9435C143.627 63.7336 146.333 62.6083 149.081 62.8979C150.431 63.0417 151.731 63.5198 153.019 63.9979C154.306 64.476 155.709 65.0163 156.615 66.1786C157.455 67.2553 157.761 68.7051 158.039 70.0967C158.195 70.8741 158.35 71.6767 158.214 72.4561C157.953 73.9351 156.727 74.936 155.55 75.6823C154.15 76.5686 152.615 77.3304 151.002 77.2896C150.045 77.2663 149.114 76.9592 148.203 76.6405C145.591 75.729 142.922 74.697 140.193 74.9244C138.284 75.0876 136.378 75.8689 134.501 75.4472C133.397 75.1984 132.402 74.5492 131.352 74.1178C128.795 73.078 122.303 73.354 119.592 73.6416C119.749 71.9488 119.73 70.2424 119.887 68.5477C120.01 67.2514 120.127 65.9084 119.752 64.6723C119.518 63.9319 119.439 63.5296 118.915 63.0048Z" fill="#FF8833"/>
<path d="M91.1206 33.409C90.7113 33.2904 90.5538 32.7152 90.1847 32.4839C89.8156 32.2526 89.3538 32.4353 89.0879 32.7793C88.8409 33.1433 88.7071 33.5867 88.7066 34.0426C88.6737 35.0257 88.9149 35.996 89.397 36.8211C89.8792 37.6462 90.5789 38.2859 91.4005 38.6526C91.0347 36.8834 90.8934 35.0662 90.9806 33.2535L91.1206 33.409Z" fill="#FBBEBE"/>
<path d="M116.934 33.409C117.344 33.2904 117.499 32.7152 117.869 32.4839C118.238 32.2526 118.699 32.4353 118.965 32.7793C119.213 33.1429 119.347 33.5865 119.347 34.0426C119.38 35.0257 119.138 35.996 118.656 36.8211C118.174 37.6462 117.474 38.2859 116.653 38.6526C117.019 36.8834 117.16 35.0662 117.073 33.2535L116.934 33.409Z" fill="#FBBEBE"/>
<g opacity="0.1">
<path d="M100.168 76.5063C100.501 77.8611 100.663 79.261 100.649 80.6655C100.649 83.1084 100.217 85.2405 99.5729 86.3852C99.5187 86.9294 99.4574 87.4697 99.3979 88.0003C100.306 87.2229 100.972 84.6691 100.972 81.6372C100.965 79.5654 100.654 77.7172 100.168 76.5063Z" fill="black"/>
</g>
<g opacity="0.1">
<path d="M105.095 76.5063C104.761 77.861 104.599 79.2609 104.612 80.6655C104.612 83.1084 105.046 85.2405 105.69 86.3852C105.744 86.9294 105.804 87.4697 105.865 88.0003C104.957 87.2229 104.291 84.6691 104.291 81.6372C104.289 79.5654 104.6 77.7172 105.095 76.5063Z" fill="black"/>
</g>
<path opacity="0.1" d="M114.192 27.3201C113.667 28.1266 113.027 28.9487 112.238 28.9682C111.095 28.9993 110.313 27.3861 109.264 26.7992C107.135 25.6176 104.905 28.8515 102.617 28.4395C100.85 28.1208 99.4678 25.6545 97.687 25.878C96.4153 26.0373 95.4847 27.53 94.701 28.906C94.0946 27.9096 93.4887 26.9119 92.8835 25.913C92.5336 25.3299 92.154 24.9121 91.9843 24.4806C91.645 25.4057 92.2817 25.8955 92.8835 26.8847C93.4852 27.874 94.094 28.8807 94.701 29.8777C95.4847 28.5017 96.4153 27.0091 97.687 26.8497C99.4625 26.6262 100.85 29.0925 102.617 29.4113C104.891 29.8233 107.126 26.5893 109.264 27.771C110.313 28.354 111.097 29.971 112.238 29.9399C113.027 29.9205 113.668 29.0984 114.192 28.2918C115.074 26.9319 115.855 25.4941 116.527 23.9928C116.432 23.8723 116.334 23.7557 116.235 23.6429C115.631 24.9199 114.949 26.1486 114.192 27.3201Z" fill="black"/>
</g>
<defs>
<clipPath id="clip0_58_70">
<rect width="192" height="135" fill="white"/>
</clipPath>
</defs>
</svg>
