<svg width="125" height="201" viewBox="0 0 125 201" fill="none" xmlns="http://www.w3.org/2000/svg">
<g clip-path="url(#clip0_58_7)">
<path d="M17.4868 200.545C17.4868 200.797 17.705 201 17.9766 201L124.51 201C124.782 201 125 200.797 125 200.545C125 200.292 124.782 200.089 124.51 200.089L17.9766 200.089C17.705 200.089 17.4868 200.292 17.4868 200.545Z" fill="#484565"/>
<path d="M73.5112 0.125655C73.5112 0.125655 64.4934 -1.9057 59.0359 10.3666C54.4879 20.596 51.2611 26.0589 54.953 29.7696C56.2742 31.0971 58.1592 31.8125 60.1019 31.8737L80.8867 32.5087C80.8867 32.5087 88.5174 13.909 83.8789 7.18374C79.2404 0.45465 73.5112 0.125655 73.5112 0.125655Z" fill="#2F2E41"/>
<path d="M77.8162 30.9632L67.8188 34.0198L67.8188 20.642L76.8901 20.642L77.8162 30.9632Z" fill="#F6A6A9"/>
<path d="M70.1445 193.07L60.7769 193.07L55.3481 146.559L69.8235 146.559L70.1445 193.07Z" fill="#F6A6A9"/>
<path d="M51.6563 200.545C50.6726 200.545 49.7959 200.522 49.1333 200.464C46.6432 200.254 44.2725 198.548 43.0789 197.549C42.5439 197.102 42.371 196.386 42.6509 195.771C42.8526 195.327 43.2518 194.998 43.7457 194.868L50.3186 193.123L60.9621 186.448L61.0815 186.647C61.1268 186.719 62.1722 188.471 62.522 189.654C62.6537 190.105 62.6208 190.48 62.4191 190.767C62.2792 190.97 62.0857 191.084 61.9252 191.149C62.1187 191.337 62.7237 191.715 64.5799 191.991C67.2964 192.393 67.8643 189.776 67.889 189.665L67.9055 189.577L67.9878 189.527C69.2802 188.755 70.0745 188.403 70.3503 188.475C70.5231 188.521 70.8071 188.602 71.5768 195.725C71.655 195.947 72.1942 197.588 71.8279 199.152C71.4286 200.859 63.4151 200.269 61.81 200.135C61.7647 200.139 55.7638 200.537 51.6522 200.537L51.6522 200.545L51.6563 200.545Z" fill="#2F2E41"/>
<path d="M91.2998 193.07L81.9363 193.07L76.5034 146.559L90.9787 146.559L91.2998 193.07Z" fill="#F6A6A9"/>
<path d="M72.8157 200.545C71.832 200.545 70.9554 200.522 70.2927 200.464C67.8026 200.254 65.4319 198.548 64.2383 197.549C63.7033 197.102 63.5304 196.386 63.8103 195.771C64.012 195.327 64.4112 194.998 64.9051 194.868L71.4781 193.123L82.1215 186.448L82.2409 186.647C82.2862 186.719 83.3316 188.471 83.6814 189.654C83.8132 190.105 83.7802 190.48 83.5785 190.767C83.4386 190.97 83.2452 191.084 83.0846 191.149C83.2781 191.337 83.8831 191.715 85.7393 191.991C88.4558 192.393 89.0238 189.776 89.0485 189.665L89.0649 189.577L89.1472 189.527C90.4396 188.755 91.234 188.403 91.5097 188.475C91.6826 188.521 91.9666 188.602 92.7362 195.725C92.8144 195.947 93.3536 197.588 92.9873 199.152C92.5881 200.859 84.5746 200.269 82.9694 200.135C82.9241 200.139 76.9233 200.537 72.8116 200.537L72.8116 200.545L72.8157 200.545Z" fill="#2F2E41"/>
<path d="M93.9956 78.832L48.4912 78.832L64.8474 28.798L82.9899 28.798L93.9956 78.832Z" fill="#DDDEDF"/>
<path d="M47.2524 106.908C46.7091 109.972 44.5112 112.171 42.3422 111.816C40.1732 111.46 38.852 108.69 39.3953 105.626C39.5928 104.398 40.1155 103.239 40.9181 102.24L43.3958 89.2833L50.1417 90.5955L46.9807 103.227C47.3964 104.421 47.4911 105.683 47.2565 106.908L47.2524 106.908Z" fill="#F6A6A9"/>
<path d="M67.712 28.8056C67.712 28.8056 56.4099 28.5302 55.2205 31.2922C54.031 34.058 40.0537 99.8494 40.0537 99.8494L49.2731 99.8494L67.712 28.8056Z" fill="#DDDEDF"/>
<path d="M70.1116 23.8019C75.6148 23.8019 80.076 19.6553 80.076 14.5403C80.076 9.42524 75.6148 5.27869 70.1116 5.27869C64.6084 5.27869 60.1472 9.42524 60.1472 14.5403C60.1472 19.6553 64.6084 23.8019 70.1116 23.8019Z" fill="#F6A6A9"/>
<path d="M71.6755 3.18229C71.6755 3.18229 58.8835 20.8677 61.0361 31.9005L53.5947 27.5662C53.5947 27.5662 58.8342 5.23277 66.6418 3.49981L71.6755 3.17847L71.6755 3.18229Z" fill="#2F2E41"/>
<path d="M84.5374 78.8319L54.6772 78.8319L38.3374 141.161C38.037 143.793 39.8315 146.249 42.585 146.934C51.5492 149.164 73.0584 152.328 105.619 143.521C108.751 142.676 110.529 139.604 109.545 136.712L84.5374 78.8357L84.5374 78.8319Z" fill="#2F2E41"/>
<path d="M44.2642 37.6731L44.0584 37.4819L43.8527 37.6731C33.8389 28.3733 17.6102 28.3848 7.60469 37.6923C-2.40085 47.0036 -2.60252 62.2751 7.41125 71.5749L44.0831 105.626L80.7303 71.5329C90.7359 62.2215 90.526 46.95 80.5163 37.6502C70.5025 28.3504 54.2739 28.3618 44.2683 37.6693L44.2642 37.6731Z" fill="#FF8833"/>
<path d="M71.3462 33.4804L79.619 29.5363C83.4014 28.2356 87.6201 28.6717 91.0033 30.7184C101.293 36.9387 121.576 50.6532 112.858 57.432C101.371 66.3684 85.8421 50.5193 85.8421 50.5193L71.3462 33.4804Z" fill="#DDDEDF"/>
<path d="M71.1653 40.221C68.2883 38.6449 66.8766 35.9441 68.0167 34.1882C69.1568 32.4361 72.4124 32.2945 75.2934 33.8706C76.4541 34.4865 77.4295 35.3588 78.1375 36.4146L90.2379 43.247L86.4843 48.618L74.9518 41.3113C73.6018 41.2386 72.3012 40.8637 71.1611 40.2172L71.1653 40.2172L71.1653 40.221Z" fill="#F6A6A9"/>
<path d="M79.3887 46.4145L82.8295 38.7749L99.6426 43.947L92.123 55.5804L79.3887 46.4145Z" fill="#DDDEDF"/>
</g>
<defs>
<clipPath id="clip0_58_7">
<rect width="125" height="201" fill="white"/>
</clipPath>
</defs>
</svg>
