<svg width="145" height="133" viewBox="0 0 145 133" fill="none" xmlns="http://www.w3.org/2000/svg">
<g clip-path="url(#clip0_58_328)">
<path d="M78.9814 126.2C115.442 126.2 145 123.02 145 119.099C145 115.177 115.442 111.998 78.9814 111.998C42.5204 111.998 12.9629 115.177 12.9629 119.099C12.9629 123.02 42.5204 126.2 78.9814 126.2Z" fill="#3F3D56"/>
<path d="M111.723 111.241L112.862 114.619C112.862 114.619 118.345 120.072 116.362 121.55C114.379 123.029 109.929 115.236 109.929 115.236L109.109 111.424L111.723 111.241Z" fill="#FFB8B8"/>
<path d="M101.203 85.1029L102.862 84.5703C102.862 84.5703 105.444 85.2804 105.813 87.7657C106.182 90.2511 108.948 102.855 108.948 102.855C108.948 102.855 110.054 103.388 109.317 104.275C108.579 105.163 113.005 113.152 113.005 113.152L109.501 114.749C109.501 114.749 102.494 107.648 102.494 106.938C102.494 106.228 102.678 105.518 102.678 104.808C102.678 104.098 102.494 104.098 102.678 103.565C102.801 103.101 102.863 102.624 102.862 102.145L101.571 99.3048L101.203 85.1029Z" fill="#FF8833"/>
<path d="M16.6739 97.2805C25.8826 97.2805 33.3477 82.6173 33.3477 64.5294C33.3477 46.4415 25.8826 31.7783 16.6739 31.7783C7.46515 31.7783 -7.64203e-09 46.4415 -1.7069e-08 64.5294C-2.64959e-08 82.6173 7.46515 97.2805 16.6739 97.2805Z" fill="#FF8833"/>
<path d="M16.521 64.869C17.3528 50.6127 19.0286 40.983 19.0454 40.8874L18.6818 40.8281C18.665 40.9238 16.9862 50.5689 16.1531 64.8436C15.3843 78.0183 15.1988 97.9458 18.6817 118.063L19.0455 118.004C15.5685 97.9217 15.7536 78.0244 16.521 64.869Z" fill="#3F3D56"/>
<path d="M31.5763 57.8876L16.5005 65.6553L16.6745 65.9683L31.7504 58.2006L31.5763 57.8876Z" fill="#3F3D56"/>
<path d="M0.759414 61.7807L0.585449 62.0938L15.6634 69.8576L15.8374 69.5445L0.759414 61.7807Z" fill="#3F3D56"/>
<path d="M56.1645 89.6345C68.7659 89.6345 78.9814 69.5691 78.9814 44.8173C78.9814 20.0654 68.7659 5.89602e-07 56.1645 3.79829e-07C43.5631 1.70055e-07 33.3477 20.0654 33.3477 44.8172C33.3477 69.5691 43.5631 89.6345 56.1645 89.6345Z" fill="#E6E6E6"/>
<path d="M55.8875 45.2763C57.0259 25.7645 59.3195 12.5851 59.3426 12.4542L58.979 12.3949C58.956 12.5259 56.6593 25.7208 55.5196 45.2509C54.4676 63.2762 54.2139 90.5403 58.9789 118.063L59.3427 118.004C54.5836 90.516 54.837 63.2823 55.8875 45.2763Z" fill="#3F3D56"/>
<path d="M76.5895 35.786L55.9595 46.4155L56.1335 46.7286L76.7636 36.099L76.5895 35.786Z" fill="#3F3D56"/>
<path d="M34.3551 41.1134L34.1812 41.4265L54.8142 52.0507L54.9882 51.7376L34.3551 41.1134Z" fill="#3F3D56"/>
<path d="M37.1568 107.099C41.865 107.099 45.6818 99.6018 45.6818 90.3538C45.6818 81.1058 41.865 73.6089 37.1568 73.6089C32.4486 73.6089 28.6318 81.1058 28.6318 90.3538C28.6318 99.6018 32.4486 107.099 37.1568 107.099Z" fill="#E6E6E6"/>
<path d="M37.1492 91.0753L37.1996 91.1661L44.9076 87.1945L44.7336 86.8814L37.1653 90.7811C37.5841 83.3603 38.4406 78.3788 38.4579 78.2807L38.0943 78.2214C38.0755 78.3286 37.0577 84.2442 36.6965 92.8041L29.0631 88.8709L28.8892 89.184L36.5971 93.1556L36.6891 92.99C36.4001 100.055 36.5621 108.889 38.0942 117.739L38.458 117.68C36.7875 108.032 36.7507 98.4008 37.1492 91.0753Z" fill="#3F3D56"/>
<path d="M103.459 68.2514C100.495 63.3881 94.6305 63.1614 94.6305 63.1614C94.6305 63.1614 88.9159 62.4518 85.25 69.8587C81.8331 76.7626 77.1173 83.4284 84.4908 85.0445L85.8226 81.0194L86.6475 85.3442C87.6973 85.4175 88.7505 85.435 89.8023 85.3966C97.6987 85.149 105.219 85.469 104.977 82.7176C104.655 79.0601 106.311 72.9309 103.459 68.2514Z" fill="#2F2E41"/>
<path d="M82.7977 107.206C82.715 107.714 82.5948 108.217 82.4382 108.709C82.2619 109.19 81.9897 109.635 81.8285 110.122C81.3145 111.672 82.027 113.401 83.1648 114.598C84.1487 115.63 85.4228 116.364 86.8323 116.712C87.8588 116.963 88.9261 116.999 89.9839 117.034C92.9132 117.13 95.9178 117.216 98.6935 116.302C99.5709 116.006 100.418 115.633 101.224 115.186C101.479 115.068 101.703 114.897 101.88 114.684C102.092 114.392 102.119 114.012 102.117 113.654C102.111 112.449 101.859 111.249 101.919 110.045C101.952 109.377 102.081 108.711 102.018 108.046C101.932 107.293 101.608 106.584 101.089 106.016C100.569 105.447 99.88 105.047 99.1154 104.87C98.328 104.705 97.5113 104.795 96.7097 104.87C94.6289 105.064 92.5392 105.155 90.4487 105.142C88.3129 105.128 86.1902 104.812 84.065 104.779C83.4365 104.769 83.4492 104.957 83.2491 105.548C83.0648 106.091 82.914 106.645 82.7977 107.206Z" fill="#2F2E41"/>
<path d="M74.4457 106.226C73.8715 106.086 73.2796 106.025 72.6877 106.045C72.0654 106.082 71.4583 106.246 70.9061 106.525C70.3539 106.804 69.8689 107.191 69.4828 107.663C69.1005 108.141 68.8258 108.691 68.6763 109.277C68.5267 109.863 68.5056 110.473 68.6142 111.067C68.7574 111.711 68.9918 112.333 69.3108 112.915C69.777 113.834 70.3362 114.751 71.1993 115.339C71.7188 115.663 72.2788 115.922 72.8659 116.11L77.4116 117.772C78.0804 118.017 78.7492 118.262 79.4245 118.488C82.8156 119.627 86.3534 120.31 89.9382 120.518C91.0297 120.581 92.1378 120.599 93.2026 120.357C93.4629 120.324 93.7011 120.199 93.8712 120.007C93.9579 119.86 94.0089 119.696 94.0205 119.528L94.3002 117.626C94.3629 117.361 94.3547 117.086 94.2765 116.825C94.1483 116.505 93.8271 116.304 93.5209 116.133C90.5324 114.467 87.0429 113.547 84.5275 111.26C83.9353 110.721 83.4397 109.868 82.7202 109.502C81.9043 109.087 80.9435 108.85 80.1001 108.468C78.2565 107.632 76.4438 106.672 74.4457 106.226Z" fill="#2F2E41"/>
<path opacity="0.1" d="M78.9843 108.79C80.591 109.279 87.3746 112.665 88.5373 113.848C88.3815 113.902 83.0935 111.025 82.9349 110.979C81.4925 110.558 80.0422 110.135 78.6725 109.52C78.397 109.397 76.8824 108.815 76.951 108.477C77.0284 108.096 78.699 108.703 78.9843 108.79Z" fill="black"/>
<path d="M99.0289 121.504C99.1201 121.511 99.2107 121.485 99.2836 121.431C99.3156 121.391 99.3392 121.345 99.3528 121.297C99.3665 121.248 99.37 121.197 99.3632 121.147L99.3557 118.556C98.5885 118.201 97.7304 118.088 96.8881 117.978L92.9581 117.468C93.0484 117.48 92.3437 119.112 92.4517 119.33C92.6422 119.714 94.0977 120.054 94.5085 120.235C95.9366 120.866 97.4205 121.558 99.0289 121.504Z" fill="#FFB8B8"/>
<path d="M86.6988 118.548C85.9568 118.662 85.1286 118.764 84.6481 119.325C84.0387 120.036 84.2981 121.096 84.5888 121.977C84.6319 122.155 84.7185 122.321 84.8416 122.46C85.04 122.65 85.344 122.678 85.6221 122.695C86.2988 122.736 87.019 122.769 87.6102 122.447C87.8782 122.275 88.136 122.089 88.3825 121.889C88.818 121.608 89.2974 121.395 89.8025 121.259C90.7299 120.976 91.6849 120.785 92.6528 120.689C93.0341 120.672 93.4116 120.607 93.7756 120.496C93.9581 120.439 94.1243 120.342 94.2615 120.213C94.3986 120.083 94.5029 119.925 94.5664 119.751C94.7034 119.28 94.4216 118.8 94.1513 118.387C93.8147 117.873 93.4581 117.332 92.9561 116.953C92.2238 116.401 91.8616 116.825 91.124 117.178C89.7291 117.847 88.2372 118.308 86.6988 118.548Z" fill="#FFB8B8"/>
<path d="M84.7598 119.196L80.0483 117.844C79.4835 117.653 78.8929 117.542 78.295 117.514C77.6975 117.515 77.0723 117.705 76.6848 118.147C76.3194 118.563 76.2149 119.132 76.1238 119.672L75.929 120.827C75.799 121.409 75.7622 122.007 75.8199 122.6C75.909 123.188 76.2183 123.776 76.7559 124.061C77.4079 124.406 78.2069 124.237 78.9346 124.093C80.4041 123.801 81.8992 123.645 83.3995 123.628C83.9634 123.621 84.5549 123.628 85.0533 123.372C85.6456 123.067 86 122.422 86.0609 121.774C86.1536 120.788 85.815 119.499 84.7598 119.196Z" fill="#2F2E41"/>
<path d="M100.881 118.018C101.492 117.914 102.031 117.577 102.616 117.378C103.44 117.098 104.333 117.098 105.206 117.101C105.526 117.102 105.867 117.109 106.134 117.282C106.518 117.53 106.617 118.028 106.682 118.471L107.077 121.15C107.151 121.654 107.225 122.171 107.109 122.667C106.993 123.164 106.645 123.642 106.138 123.77C105.521 123.926 104.917 123.544 104.336 123.293C102.882 122.665 101.192 122.826 99.6757 122.357C99.3943 122.27 99.093 122.137 98.9782 121.873C98.9263 121.724 98.9079 121.566 98.924 121.41C98.9499 120.549 98.7629 119.373 99.0299 118.55C99.2699 117.81 100.199 118.018 100.881 118.018Z" fill="#2F2E41"/>
<path d="M110.852 105.148C111.793 104.919 112.769 104.854 113.734 104.957C114.505 105.039 115.298 105.248 115.861 105.765C116.546 106.396 116.766 107.371 116.784 108.286C116.815 110.108 116.192 111.885 115.021 113.317C114.736 113.677 114.396 113.995 114.013 114.259C113.601 114.509 113.161 114.715 112.702 114.872L102.522 118.771C99.8435 119.797 97.1559 120.826 94.3625 121.502C94.286 121.537 94.2028 121.558 94.1179 121.562C94.033 121.566 93.9481 121.554 93.8683 121.526C93.7885 121.498 93.7153 121.454 93.6532 121.398C93.5911 121.343 93.5413 121.275 93.5068 121.2C92.6143 119.962 91.866 118.633 91.2757 117.238C91.249 117.193 91.2326 117.143 91.2277 117.092C91.2227 117.041 91.2293 116.989 91.2469 116.941C91.2842 116.887 91.3362 116.844 91.3972 116.816L98.5976 112.799C99.126 112.532 99.6183 112.202 100.063 111.819C100.375 111.525 100.629 111.181 100.816 110.802C100.965 110.499 100.979 109.785 101.169 109.561C101.356 109.342 101.995 109.324 102.289 109.238C102.706 109.114 103.113 108.965 103.509 108.791C105.12 108.091 106.554 107.074 108.098 106.255C108.963 105.775 109.889 105.403 110.852 105.148Z" fill="#2F2E41"/>
<path opacity="0.1" d="M106.77 108.148C105.533 109.05 103.931 109.88 102.705 110.806C102.286 111.122 95.311 114.929 95.2124 115.435C96.3562 115.622 103.643 110.673 104.685 110.179C105.728 109.685 106.652 108.989 107.567 108.297C107.801 108.121 108.79 107.591 108.12 107.395C107.743 107.284 107.048 107.968 106.77 108.148Z" fill="black"/>
<path d="M94.3796 80.4874C98.2498 80.4874 101.387 77.4671 101.387 73.7415C101.387 70.0158 98.2498 66.9956 94.3796 66.9956C90.5095 66.9956 87.3721 70.0158 87.3721 73.7415C87.3721 77.4671 90.5095 80.4874 94.3796 80.4874Z" fill="#FFB8B8"/>
<path d="M97.33 79.4223C97.33 79.4223 96.2235 82.0851 98.252 83.1503C100.281 84.2154 91.9821 92.7365 91.9821 92.7365L88.2939 82.4402C88.2939 82.4402 91.4289 81.375 90.8757 78.5347L97.33 79.4223Z" fill="#FFB8B8"/>
<path d="M92.72 86.7006L97.186 81.9544L103.231 84.9254L102.309 105.873L100.834 107.471C100.834 107.471 94.5641 112.797 84.9748 108.358C84.9748 108.358 81.6554 105.696 81.8398 101.613C82.0243 97.5295 81.471 96.9969 81.471 96.9969L81.2866 82.6175L90.3911 80.8977L92.72 86.7006Z" fill="#FF8833"/>
<path d="M72.2416 109.289L71.1031 112.666C71.1031 112.666 65.6195 118.119 67.6027 119.597C69.586 121.076 74.0357 113.283 74.0357 113.283L74.8557 109.471L72.2416 109.289Z" fill="#FFB8B8"/>
<path d="M82.7617 83.1502L81.102 82.6177C81.102 82.6177 78.5203 83.3278 78.1514 85.8131C77.7826 88.2984 75.0165 100.903 75.0165 100.903C75.0165 100.903 73.91 101.435 74.6477 102.323C75.3853 103.21 70.9595 111.199 70.9595 111.199L74.4632 112.797C74.4632 112.797 81.4708 105.696 81.4708 104.986C81.4708 104.276 81.2864 103.565 81.2864 102.855C81.2864 102.145 81.4708 102.145 81.2864 101.613C81.1633 101.149 81.1013 100.671 81.102 100.192L82.3928 97.3521L82.7617 83.1502Z" fill="#FF8833"/>
<path d="M102.149 67.7824L96.3551 64.8357L88.3542 66.0411L86.6987 73.1404L90.8195 72.9865L91.9706 70.3783L91.9706 72.9434L93.8721 72.8724L94.9758 68.7201L95.6654 73.1404L102.425 73.0064L102.149 67.7824Z" fill="#2F2E41"/>
<path d="M61.0771 113.452L61.0771 123.691L28.5879 123.691C28.588 120.976 29.7087 118.371 31.7035 116.451C33.6982 114.531 36.4036 113.452 39.2246 113.452C42.2711 112.537 45.7933 112.246 49.6142 112.342C53.2194 112.431 57.0902 112.866 61.0771 113.452Z" fill="#FF6584"/>
<path d="M56.436 121.458L71.7139 121.458C71.9703 121.458 72.2163 121.556 72.3976 121.73C72.579 121.905 72.6808 122.141 72.6808 122.388C72.6808 122.635 72.579 122.872 72.3976 123.047C72.2163 123.221 71.9703 123.319 71.7139 123.319L56.436 123.319L56.436 121.458Z" fill="#3F3D56"/>
<path d="M59.082 104.689L63.1771 99.9103C63.2715 99.7208 63.4235 99.5634 63.6131 99.4591C63.8026 99.3548 64.0207 99.3086 64.2382 99.3265C64.4557 99.3445 64.6624 99.4258 64.8308 99.5596C64.9991 99.6934 65.1212 99.8733 65.1807 100.076L66.7956 105.564L59.082 104.689Z" fill="#3F3D56"/>
<path d="M54.1152 107.123L55.6624 101.11C55.6624 100.899 55.7288 100.694 55.853 100.521C55.9771 100.348 56.1529 100.216 56.3571 100.142C56.5613 100.067 56.7842 100.055 56.9961 100.105C57.208 100.156 57.3989 100.267 57.5433 100.425L61.4641 104.702L54.1152 107.123Z" fill="#FF6584"/>
<path d="M28.5879 123.692L31.6821 123.692L31.6821 130.021C31.6821 130.413 31.6021 130.8 31.4466 131.161C31.2911 131.523 31.0632 131.851 30.7759 132.128C30.4885 132.404 30.1474 132.624 29.772 132.773C29.3966 132.923 28.9942 133 28.5879 133L28.5879 123.692Z" fill="#FF6584"/>
<path d="M55.856 121.83L71.1338 121.83C71.3902 121.83 71.6362 121.928 71.8175 122.102C71.9989 122.277 72.1007 122.514 72.1007 122.761C72.1007 123.008 71.9989 123.244 71.8175 123.419C71.6362 123.593 71.3902 123.692 71.1338 123.692L55.856 123.692L55.856 121.83Z" fill="#FF6584"/>
<path opacity="0.2" d="M61.0774 113.452L61.0774 123.635C59.5078 123.795 57.9208 123.611 56.4357 123.096C54.9505 122.582 53.6059 121.75 52.5027 120.663C51.3995 119.576 50.5665 118.263 50.0663 116.822C49.5661 115.381 49.4116 113.849 49.6145 112.342C53.2197 112.431 57.0905 112.866 61.0774 113.452Z" fill="black"/>
<path d="M61.0774 123.691C66.8449 123.691 71.5204 119.191 71.5204 113.638C71.5204 108.086 66.8449 103.585 61.0774 103.585C55.3098 103.585 50.6343 108.086 50.6343 113.638C50.6343 119.191 55.3098 123.691 61.0774 123.691Z" fill="#FF6584"/>
<path d="M71.1335 116.989C71.7743 116.989 72.2938 115.822 72.2938 114.383C72.2938 112.944 71.7743 111.777 71.1335 111.777C70.4926 111.777 69.9731 112.944 69.9731 114.383C69.9731 115.822 70.4926 116.989 71.1335 116.989Z" fill="#3F3D56"/>
<path d="M68.3296 112.335C68.4898 112.335 68.6197 112.043 68.6197 111.684C68.6197 111.324 68.4898 111.032 68.3296 111.032C68.1694 111.032 68.0396 111.324 68.0396 111.684C68.0396 112.043 68.1694 112.335 68.3296 112.335Z" fill="#3F3D56"/>
<path d="M70.4571 111.032C70.6173 111.032 70.7472 110.74 70.7472 110.38C70.7472 110.02 70.6173 109.729 70.4571 109.729C70.2969 109.729 70.167 110.02 70.167 110.38C70.167 110.74 70.2969 111.032 70.4571 111.032Z" fill="#3F3D56"/>
<path d="M60.201 103.473C60.201 103.473 59.6206 102.501 59.6206 101.908L60.201 103.473Z" fill="#3F3D56"/>
<path d="M60.4565 102.845C60.4565 102.845 60.7728 101.766 61.2133 101.351L60.4565 102.845Z" fill="#3F3D56"/>
</g>
<defs>
<clipPath id="clip0_58_328">
<rect width="145" height="133" fill="white"/>
</clipPath>
</defs>
</svg>
