<svg width="907" height="342" viewBox="0 0 907 342" fill="none" xmlns="http://www.w3.org/2000/svg">
<g clip-path="url(#clip0_29_13)">
<path d="M1003.61 330.913H-274.756V328.913H1003.61C1004.41 328.913 1005.05 329.363 1005.05 329.913C1005.05 330.463 1004.41 330.913 1003.61 330.913Z" fill="#3F3D56"/>
<path d="M456.076 303.733C463.921 307.152 472.112 310.631 480.692 310.301C489.272 309.971 498.291 304.563 499.629 296.265C500.323 291.976 498.954 287.387 500.63 283.368C502.887 277.97 510.159 275.88 515.807 277.73C521.466 279.579 525.613 284.358 528.595 289.407C534.172 298.864 536.399 311.281 530.424 320.499C525.245 328.486 515.419 332.105 506.288 335.205C494.113 339.334 480.528 343.422 468.731 338.354C456.873 333.255 450.408 318.529 454.8 306.602" fill="#C66521"/>
<path d="M526.829 337.664L671.347 333.645C671.347 333.645 660.469 269.952 695.37 252.276C719.158 240.22 740.271 183.904 734.265 145.585C734.183 145.075 734.101 144.565 734.009 144.065C730.966 126.909 722.263 113.623 705.625 110.014C651.838 98.357 613.454 107.395 613.454 107.395C613.454 107.395 604.568 107.505 591.402 109.924C590.932 110.004 590.462 110.094 589.993 110.194C552.722 117.342 483.829 142.795 480.846 233.171C476.74 357.339 526.829 337.644 526.829 337.644V337.664Z" fill="#FF8833"/>
<path d="M591.403 109.934C591.648 116.412 593.149 122.851 595.887 128.969C601.566 141.656 611.923 151.343 625.037 156.252C664.32 170.968 710.161 156.372 733.346 140.546C733.438 141.046 735.277 150.533 735.358 151.043C725.093 157.921 674.851 164.55 665.321 164.55C650.848 164.55 636.916 162.2 624.527 157.551C611.054 152.503 600.422 142.545 594.59 129.519C591.801 123.3 590.269 116.772 589.993 110.194C590.463 110.094 590.933 110.004 591.403 109.924V109.934Z" fill="#3F3D56"/>
<path d="M580.719 118.182L603.751 61.4867C603.751 61.4867 576.102 15.0989 597.827 9.95023C619.552 4.79159 641.931 32.4943 641.931 32.4943C641.931 32.4943 683.4 18.318 699.19 29.915C699.19 29.915 725.522 -6.16553 741.313 0.922605C757.114 8.01074 735.695 59.0873 735.695 59.0873C735.695 59.0873 768.298 105.935 743.284 132.988C718.27 160.051 624.148 181.955 580.708 118.172L580.719 118.182Z" fill="#FF8833"/>
<path d="M661.072 92.6984C661.072 92.6984 675.249 87.1499 684.452 94.0881L673.819 110.044L661.062 92.7084L661.072 92.6984Z" fill="#3F3D56"/>
<path d="M735.48 165.519L709.261 302.163C709.261 302.163 748.942 341.703 697.924 341.003C646.905 340.313 661.787 314.65 661.787 314.65L678.088 196.041" fill="#FF8833"/>
<path d="M699.211 342.013C713.031 342.013 721.386 338.914 724.062 332.785C728.934 321.628 713.072 304.623 710.355 301.823L727.984 199.67L725.972 199.34L708.169 302.493L708.537 302.853C708.72 303.033 726.86 321.298 722.182 331.995C719.782 337.494 711.642 340.183 697.934 339.993C678.885 339.733 666.608 335.824 662.42 328.696C658.651 322.278 662.635 315.2 662.676 315.13L662.768 314.96L662.798 314.77L674.136 232.232L672.114 231.962L660.796 314.32C660.122 315.57 656.598 322.778 660.633 329.676C665.26 337.574 677.803 341.723 697.904 341.993C698.343 341.993 698.772 341.993 699.201 341.993L699.211 342.013Z" fill="#C66521"/>
<path d="M668.875 165.519L642.656 302.163C642.656 302.163 682.338 341.703 631.319 341.003C580.3 340.313 595.182 314.65 595.182 314.65L611.483 196.041" fill="#FF8833"/>
<path d="M632.605 342.013C646.425 342.013 654.78 338.914 657.456 332.785C662.328 321.648 646.496 304.663 643.759 301.833L654.29 246.848L652.278 246.478L641.553 302.483L641.931 302.853C642.115 303.033 660.255 321.298 655.577 331.995C653.176 337.494 645.026 340.193 631.329 339.993C612.269 339.733 599.982 335.824 595.805 328.676C592.036 322.238 596.029 315.2 596.07 315.13L596.172 314.96L612.494 196.161L610.472 195.891L594.201 314.32C593.527 315.57 590.003 322.778 594.038 329.676C598.664 337.574 611.207 341.723 631.308 341.993C631.747 341.993 632.176 341.993 632.605 341.993V342.013Z" fill="#C66521"/>
</g>
<defs>
<clipPath id="clip0_29_13">
<rect width="907" height="342" fill="white" transform="matrix(-1 0 0 1 907 0)"/>
</clipPath>
</defs>
</svg>
