<svg width="382" height="453" viewBox="0 0 382 453" fill="none" xmlns="http://www.w3.org/2000/svg">
<g clip-path="url(#clip0_465_74)">
<path d="M590.005 396.48C590.006 396.591 589.985 396.7 589.943 396.803C589.901 396.905 589.839 396.998 589.761 397.076C589.683 397.155 589.59 397.216 589.488 397.258C589.385 397.3 589.275 397.321 589.165 397.32H-184.035V395.64H589.165C589.275 395.64 589.385 395.662 589.487 395.704C589.589 395.746 589.681 395.808 589.759 395.886C589.837 395.964 589.899 396.056 589.941 396.158C589.983 396.26 590.005 396.37 590.005 396.48Z" fill="#2F2E41"/>
<path d="M217.364 29.44C220.242 31.0574 224.888 24.66 225.94 27.7893C226.993 30.9185 224.443 43.5447 223.128 46.5729C222.474 48.0781 221.55 49.4547 220.908 50.9652C220.173 52.4517 220.023 54.1606 220.49 55.7523C221.477 58.4323 224.734 59.5224 226.348 61.8779C228.229 64.6213 227.47 68.3164 226.59 71.5243C225.943 74.321 224.926 77.019 223.566 79.5474C222.182 82.0936 219.898 84.0314 217.16 84.981C213.661 86.0207 209.921 84.7851 206.548 83.3902C203.262 82.1421 200.163 80.4492 197.338 78.3589C194.501 76.2479 192.394 73.3024 191.314 69.9348C190.104 65.702 191.115 61.0698 193.209 57.1977C195.457 53.4032 198.281 49.9812 201.58 47.054C206.935 41.9228 212.628 37.1556 218.62 32.7844" fill="#2F2E41"/>
<path d="M174.559 246.626L180.559 302.626C180.559 302.626 166.559 331.626 181.559 366.626L182.559 386.626L199.559 384.626L195.559 367.626L204.559 298.626L211.559 248.626L174.559 246.626Z" fill="#FFB6B6"/>
<path d="M222.559 245.626C222.559 245.626 218.559 289.626 226.559 312.626C226.559 312.626 222.559 347.626 233.559 384.626V412.174L251.559 408.626L250.559 305.626L255.559 249.626L222.559 245.626Z" fill="#FFB6B6"/>
<path d="M225.116 74.3661C222.648 77.4596 219.178 79.5952 215.305 80.4048C211.431 81.2145 207.396 80.6474 203.896 78.8013C193.6 73.3757 179.543 67.1574 177.059 72.1262C174.637 77.0431 173.274 82.4134 173.059 87.89L169.059 181.126C169.059 181.126 167.059 218.772 192.059 215.449C217.059 212.126 256.059 226.126 256.059 226.126L246.559 127.626L244.559 88.6262L235.559 84.6262C235.559 84.6262 234.559 77.6262 231.559 77.6262C228.559 77.6262 227.834 70.9018 225.196 74.264L225.116 74.3661Z" fill="#D6EBDC"/>
<path d="M172.559 179.626L155.559 250.626C155.559 250.626 196.559 274.626 215.559 251.626L218.559 240.626L220.559 252.626C220.559 252.626 249.559 269.626 257.559 258.626L256.059 226.126L237.559 188.626L172.559 179.626Z" fill="#2F2E41"/>
<path d="M181.969 374.843C181.969 374.843 175.558 379.626 177.558 385.626C179.558 391.626 194.558 414.626 207.558 411.626C220.558 408.626 214.558 401.626 214.558 401.626L199.558 379.626C199.558 379.626 193.558 380.626 190.558 382.626C187.558 384.626 181.969 374.843 181.969 374.843Z" fill="#2F2E41"/>
<path d="M233.558 403.627C233.558 403.627 222.558 414.627 228.558 419.627C234.558 424.627 275.558 428.627 274.558 422.627C273.558 416.627 252.558 399.627 252.558 399.627C252.558 399.627 246.558 397.627 244.558 402.627C242.558 407.627 233.558 403.627 233.558 403.627Z" fill="#2F2E41"/>
<path d="M238.559 294.627C231.519 298.872 230.824 300.876 226.559 302.627C224.4 303.513 220.358 304.732 212.559 303.627C201.813 302.104 195.186 297.764 176.559 287.627C163.274 280.396 156.778 277.235 147.559 275.627C140.651 274.422 136.637 274.86 133.559 275.627C122.823 278.299 116.963 286.58 115.559 288.627C110.708 295.701 110.094 302.61 109.559 308.627C108.886 316.205 107.913 327.156 113.559 335.627C120.635 346.241 130.489 341.537 147.559 351.627C166.426 362.778 163.27 373.776 178.559 379.627C198.122 387.113 219.42 375.28 220.559 374.627C240.814 363.01 244.958 341.931 255.559 343.627C261.893 344.64 262.524 352.502 272.559 354.627C274.437 355.024 282.165 356.66 287.559 351.627C290.874 348.534 290.771 355.457 289.059 351.127C286.861 345.566 282.427 334.714 279.559 328.627C278.027 325.375 279.754 324.371 278.559 315.627C277.975 311.356 277.681 309.2 276.559 306.627C273.78 300.252 268.383 296.959 264.559 294.627C259.907 291.789 255.334 288.999 249.559 289.627C246.254 289.986 243.689 291.533 238.559 294.627Z" fill="#3F3D56"/>
<path d="M116.558 318.626C114.784 320.08 114.362 323.025 113.558 328.626C112.815 333.808 113.267 336.987 113.558 342.626C113.996 351.091 113.306 350.303 113.558 361.626C113.766 370.943 113.87 375.601 114.558 379.626C115.797 386.864 116.457 384.083 122.558 402.626C123.796 406.388 124.782 409.582 127.558 410.626C131.037 411.935 135.044 409.012 135.558 408.626C136.401 407.995 139.372 405.768 139.558 402.626C139.795 398.638 135.28 397.628 131.558 391.626C129.234 387.879 128.676 384.128 127.558 376.626C126.496 369.492 125.964 365.925 127.558 362.626C130.467 356.608 137.12 354.742 137.558 354.626C141.54 353.574 142.827 355.064 147.558 354.626C151.984 354.217 159.274 352.134 160.558 348.626C164.078 339.012 125.032 311.684 116.558 318.626Z" fill="#3F3D56"/>
<path d="M132.558 304.626C130.784 306.08 130.362 309.025 129.558 314.626C128.815 319.808 129.267 322.987 129.558 328.626C129.996 337.091 129.306 336.303 129.558 347.626C129.766 356.943 129.87 361.601 130.558 365.626C131.797 372.864 132.457 370.083 138.558 388.626C139.796 392.388 140.782 395.582 143.558 396.626C147.037 397.935 151.044 395.012 151.558 394.626C152.401 393.995 155.372 391.768 155.558 388.626C155.795 384.638 151.28 383.628 147.558 377.626C145.234 373.879 144.676 370.128 143.558 362.626C142.496 355.492 141.964 351.925 143.558 348.626C146.467 342.608 153.12 340.742 153.558 340.626C157.54 339.574 158.827 341.064 163.558 340.626C167.984 340.217 175.274 338.134 176.558 334.626C180.078 325.012 141.032 297.684 132.558 304.626Z" fill="#3F3D56"/>
<path d="M162.559 353.626C161.433 355.343 160.142 359.771 157.559 368.626C156.407 372.575 148.949 398.558 146.559 406.626C145.85 409.562 144.482 412.298 142.559 414.626C140.52 416.971 139.43 416.897 138.559 418.626C136.29 423.126 140.717 429.473 141.559 430.626C142.538 431.969 147.087 438.202 153.559 437.626C154.235 437.566 158.608 437.178 159.559 434.626C161.016 430.716 152.448 427.046 152.559 420.626C152.624 416.835 155.662 415.264 159.559 410.626C167.918 400.677 164.353 395.508 170.559 387.626C179.841 375.838 197.093 375.623 199.559 375.626C205.946 375.636 214.836 375.649 220.559 381.626C228.537 389.96 225.24 404.539 228.559 426.626C229.07 429.659 229.738 432.663 230.559 435.626C232.971 444.569 234.896 446.878 235.559 447.626C237.339 449.782 239.69 451.393 242.342 452.277C244.994 453.162 247.841 453.282 250.559 452.626C252.909 452.095 255.051 451.61 256.559 449.626C257.311 448.643 257.798 447.483 257.973 446.257C258.148 445.031 258.006 443.781 257.559 442.626C256.355 439.927 253.875 440.365 250.559 437.626C248.219 435.694 246.999 433.005 244.559 427.626C242.895 424.088 241.556 420.407 240.559 416.626C239.052 410.829 238.867 406.349 238.559 397.626C238.299 390.278 238.424 384.169 238.559 377.626C238.715 370.009 238.928 367.521 238.559 362.626C238.171 357.491 237.793 352.491 236.559 349.626C229.917 334.214 177.218 331.269 162.559 353.626Z" fill="#3F3D56"/>
<path d="M120.559 285.626C116.284 283.262 115.674 277.731 114.559 267.626C113.746 260.265 113.263 255.882 115.559 250.626C117.629 245.984 121.134 242.129 125.559 239.626C126.742 238.976 134.51 234.857 142.559 237.626C143.682 238.013 146.656 240.222 152.559 244.626C159.602 249.881 160.636 250.883 161.559 252.626C164.028 257.289 163.765 263.591 161.559 264.626C159.883 265.413 156.986 263.206 155.559 261.626C153.852 259.737 154.109 258.594 152.559 256.626C151.33 255.067 150.174 254.523 146.559 252.626C137.604 247.928 137.151 247.304 135.559 247.626C131.591 248.428 129.7 253.252 129.559 253.626C128.348 256.841 129.178 259.765 130.559 264.626C131.388 267.354 132.391 270.026 133.559 272.626C136.166 278.861 136.852 279.328 136.559 280.626C135.597 284.884 126.204 288.748 120.559 285.626Z" fill="#3F3D56"/>
<path d="M251.218 226.611C251.062 232.324 253.883 237.036 257.519 237.134C261.155 237.233 264.228 232.682 264.384 226.967C264.477 224.684 264.023 222.413 263.058 220.342L263.414 196.126L252.047 196.202L252.903 220.066C251.827 222.082 251.249 224.326 251.218 226.611Z" fill="#FFB6B6"/>
<path d="M243.059 88.1265C243.059 88.1265 258.059 93.1265 259.059 110.126C260.059 127.126 261.059 137.126 261.059 137.126L262.559 144.072C262.559 144.072 267.059 155.126 265.059 163.126C263.059 171.126 265.302 203.52 265.302 203.52L251.059 203.126L241.059 166.126L243.059 88.1265Z" fill="#DEEEFE"/>
<path d="M223.059 303.126C221.406 303.399 220.604 312.852 223.059 321.126C224.478 325.458 226.38 329.616 228.73 333.522C229.206 334.318 229.665 335.044 231.059 337.126C237.88 347.311 241.326 352.397 243.059 352.126C245.37 351.765 239.044 346.298 238.559 341.072C237.657 331.355 233.294 330.154 225.559 316.072C221.373 308.452 224.35 302.913 223.059 303.126Z" fill="#FF8833"/>
<path d="M258.059 300.126C258.894 295.871 254.141 289.962 249.059 289.126C241.647 287.908 235.213 297.753 233.059 304.126C230.095 312.891 233.423 320.424 235.059 324.126C237.11 328.77 238.644 329.074 239.059 329.126C242.084 329.505 245.671 323.963 247.059 319.126C248.28 314.871 246.902 314.288 248.059 311.126C250.44 304.617 257.166 304.667 258.059 300.126Z" fill="#2F2E41"/>
<path d="M231.058 50.5165C231.058 54.647 229.834 58.6847 227.539 62.1191C225.244 65.5535 221.982 68.2302 218.166 69.8109C214.35 71.3916 210.151 71.8052 206.1 70.9993C202.049 70.1935 198.328 68.2045 195.407 65.2838C192.486 62.3631 190.497 58.6419 189.691 54.5908C188.886 50.5396 189.299 46.3405 190.88 42.5245C192.46 38.7084 195.137 35.4467 198.572 33.1519C202.006 30.8572 206.044 29.6323 210.174 29.6323C215.713 29.6323 221.025 31.8326 224.942 35.7491C228.858 39.6657 231.058 44.9776 231.058 50.5165Z" fill="#FFB6B6"/>
<path d="M186.632 83.2235C191.528 90.2511 193.978 98.6936 193.603 107.25C199.13 104.573 202.86 98.9169 204.13 92.9087C205.399 86.9004 204.431 80.5918 202.391 74.7997C202.37 74.7417 202.35 74.6839 202.329 74.626C200.797 70.4055 200.677 65.8016 201.986 61.5068C203.296 57.212 205.965 53.4585 209.591 50.8109C214.657 47.1633 218.992 42.5972 222.373 37.3498C224.27 34.3903 225.882 30.6777 224.465 27.4609C223.159 24.4967 219.787 23.1112 216.684 22.1842C209.597 20.0675 202.068 18.863 194.794 20.2024C187.52 21.5418 180.518 25.7247 177.081 32.2731C173.643 38.8215 174.544 47.7585 180.123 52.6131C179.235 52.9003 178.47 53.479 177.952 54.2554C177.433 55.0318 177.193 55.9604 177.268 56.8908C177.343 57.8213 177.731 58.699 178.367 59.3818C179.004 60.0645 179.852 60.5123 180.775 60.6527C179.582 60.6104 178.878 62.1816 179.304 63.2969C179.855 64.367 180.764 65.21 181.873 65.6791C183.364 66.4969 185.016 67.352 185.022 69.4934C185.011 70.3545 184.73 71.1904 184.219 71.8832C183.006 73.5744 181.049 74.336 179.165 75.051C181.156 75.6673 182.942 76.815 184.33 78.3705C185.718 79.926 186.655 81.8306 187.041 83.8792" fill="#2F2E41"/>
<path d="M198.019 191.294L195.094 191.959L224.531 321.459L227.457 320.794L198.019 191.294Z" fill="#FE8834" fill-opacity="0.980132"/>
<path d="M192.753 200.705C197.342 204.112 202.82 204.506 204.988 201.586C207.156 198.665 205.193 193.536 200.602 190.128C198.787 188.742 196.666 187.81 194.417 187.411L174.793 173.219L168.329 182.571L188.362 195.568C189.395 197.607 190.9 199.368 192.753 200.705Z" fill="#FFB6B6"/>
<path d="M180.389 85.1265C180.389 85.1265 164.558 85.6265 161.558 96.6265C155.483 118.42 152.785 141.015 153.558 163.626C153.558 163.626 148.558 184.626 161.558 183.626L179.558 191.626L191.558 175.626L181.558 163.626L180.389 85.1265Z" fill="#DEEEFE"/>
</g>
<defs>
<clipPath id="clip0_465_74">
<rect width="951.117" height="507.018" fill="white" transform="translate(-272 -54)"/>
</clipPath>
</defs>
</svg>
