<svg width="956" height="485" viewBox="0 0 956 485" fill="none" xmlns="http://www.w3.org/2000/svg">
<g clip-path="url(#clip0_28_684)">
<path d="M0.717949 422.968H637.538V420.968H0.717949C0.32144 420.968 0 421.416 0 421.968C0 422.52 0.321433 422.968 0.717949 422.968Z" fill="#3F3D56"/>
<path d="M318.718 423H955.538V421H318.718C318.321 421 318 421.448 318 422C318 422.552 318.321 423 318.718 423Z" fill="#3F3D56"/>
<path d="M176.137 439.503C180.923 463.503 208.205 434.003 208.205 434.003L240.752 430.003C240.752 430.003 261.333 430.503 274.735 441.503C288.137 452.503 297.231 438.003 297.231 438.003C312.33 443.26 330.828 443.239 346.848 441.555C369.934 439.129 388.438 420.515 391.611 396.505C409.508 261.064 311.111 194.503 311.111 194.503L282.393 113.503C282.393 113.503 291.487 90.0029 294.359 69.0029C297.231 48.0029 276.171 28.0029 250.325 8.00286C239.017 -0.747139 226.06 -0.118228 215.062 3.35784C202.724 7.2573 191.961 15.2761 184.009 25.874C177.42 34.654 166.12 47.0887 153.699 49.2429C149.4 49.9828 145.16 51.7629 141.197 55.0029C137.1 58.3528 135.29 63.9429 135.233 70.8929C134.927 101.253 158.925 137.803 179.966 143.503C205.812 150.503 191.932 217.003 191.932 217.003C149.812 279.003 179.487 348.003 179.487 348.003L171.829 404.003C171.829 404.003 171.351 415.503 176.137 439.503Z" fill="#3F3D56"/>
<path d="M316.855 310.503L306.325 447.503C306.325 447.503 320.684 485.503 271.863 483.503C223.043 481.503 251.761 403.503 251.761 403.503L267.077 301.503" fill="#3F3D56"/>
<path d="M275.496 484.579C274.302 484.579 273.081 484.554 271.826 484.502C261.018 484.059 253.06 479.901 248.171 472.143C234.193 449.962 249.74 406.237 250.831 403.244L266.131 301.348C266.213 300.802 266.699 300.434 267.226 300.515C267.747 300.6 268.104 301.112 268.023 301.658L252.707 403.658C252.696 403.727 252.679 403.796 252.655 403.862C252.487 404.314 236.14 449.418 249.771 471.046C254.302 478.232 261.747 482.088 271.901 482.504C287.841 483.153 298.563 479.6 303.776 471.935C310.595 461.907 305.486 448.009 305.434 447.869C305.381 447.727 305.359 447.574 305.37 447.423L315.9 310.423C315.942 309.873 316.395 309.472 316.931 309.506C317.459 309.551 317.851 310.032 317.809 310.583L307.296 447.358C307.992 449.319 312.353 462.763 305.344 473.082C300.159 480.718 290.125 484.579 275.496 484.579Z" fill="#2F2E41"/>
<path d="M229.744 338.503C229.744 338.503 232.615 465.503 172.308 462.503C112 459.503 166.564 419.503 166.564 419.503L171.829 404.003" fill="#3F3D56"/>
<path d="M174.377 463.555C173.677 463.555 172.973 463.537 172.262 463.502C155.042 462.645 145.313 458.615 143.345 451.523C139.799 438.744 162.911 421.002 165.763 418.87L170.927 403.669C171.104 403.147 171.65 402.876 172.149 403.06C172.647 403.245 172.908 403.816 172.731 404.337L167.466 419.837C167.4 420.033 167.276 420.202 167.114 420.321C166.861 420.507 141.863 439.006 145.184 450.967C146.9 457.147 156.041 460.692 172.353 461.504C183.217 462.05 192.74 458.233 200.641 450.175C230.271 419.959 228.805 339.337 228.786 338.526C228.774 337.975 229.192 337.517 229.721 337.503C230.221 337.504 230.688 337.928 230.701 338.479C230.776 341.825 232.206 420.777 201.98 451.604C194.199 459.54 184.921 463.555 174.377 463.555Z" fill="#2F2E41"/>
<path d="M135.233 70.8929C142.106 71.7529 152.866 71.7128 161.778 65.5028C171.322 58.8528 161.414 52.6528 153.699 49.2428C149.4 49.9828 145.16 51.7629 141.197 55.0028C137.1 58.3528 135.29 63.9429 135.233 70.8929Z" fill="#FF8833"/>
<path d="M246.303 52.9119C246.303 52.9119 229.599 8.09551 253.523 7.4684C277.447 6.84129 296.344 45.6783 296.344 45.6783C296.344 45.6783 356.391 160.021 274.122 153.855C191.853 147.689 231.166 102.044 231.166 102.044C231.166 102.044 249.93 77.9447 246.303 52.9119Z" fill="#2F2E41"/>
<path d="M337.951 387.819C348.546 392.742 359.616 397.767 371.203 397.286C382.789 396.805 394.983 389.01 396.788 377.045C397.72 370.868 395.872 364.241 398.136 358.452C401.182 350.663 411.008 347.66 418.646 350.329C426.284 352.998 431.895 359.881 435.918 367.169C443.445 380.806 446.462 398.704 438.391 411.997C431.394 423.521 418.125 428.728 405.781 433.195C389.34 439.144 370.984 445.049 355.052 437.741C339.029 430.391 330.302 409.156 336.235 391.959" fill="#3F3D56"/>
<path d="M302.605 171.889C302.605 171.889 323.665 182.889 313.135 194.889C302.605 206.889 237.511 240.889 213.58 235.889C189.648 230.889 183.904 215.889 183.904 211.889C183.904 207.889 185.71 159.503 193.368 161.503C201.026 163.503 248.998 208.889 302.605 171.889Z" fill="#FF8833"/>
</g>
<defs>
<clipPath id="clip0_28_684">
<rect width="956" height="485" fill="white"/>
</clipPath>
</defs>
</svg>
