<svg width="646" height="448" viewBox="0 0 646 448" fill="none" xmlns="http://www.w3.org/2000/svg">
<g clip-path="url(#clip0_28_393)">
<path d="M107.536 316.406C104.428 316.746 101.037 317.257 97.4305 318.004C82.1374 321.171 81.82 331.731 81.9541 334.152L81.8502 334.086C80.3124 336.595 79.3493 339.134 78.7673 341.53L78.0669 309.163C78.5198 308.203 78.9318 307.114 79.2753 305.998C80.4201 309.583 82.2966 312.97 83.9142 312.746C86.0176 312.454 86.9347 306.16 86.5423 301.687C89.2171 305.19 93.7187 308.937 95.4169 307.781C96.7738 306.858 95.9692 303.058 94.4877 299.603C97.5746 301.494 100.993 302.737 102.054 301.536C103.502 299.897 100.033 294.305 96.8339 291.184C101.116 291.59 106.563 290.896 106.92 288.914C107.214 287.281 103.972 285.22 100.503 283.894C103.988 282.959 107.246 281.331 107.138 279.721C107.01 277.807 102.172 276.525 97.9982 276.33C101.146 273.825 104.039 270.363 103.154 268.797C102.341 267.358 98.5579 267.915 95.0675 269.183C97.1331 266.18 98.5853 262.796 97.4793 261.638C96.1016 260.195 91.2121 262.685 87.8751 265.437C88.5247 261.149 88.1963 255.737 86.3052 255.247C84.7231 254.837 82.4808 257.986 80.9434 261.416C80.264 257.816 78.8885 254.399 77.301 254.399C75.0396 254.399 73.2063 261.333 73.2063 265.851C73.2063 266.106 73.213 266.347 73.2244 266.576C72.9975 266.309 72.7373 266.029 72.4407 265.736C69.254 262.589 63.0855 259.095 61.5099 260.745C60.404 261.903 61.8562 265.287 63.9218 268.291C60.4313 267.023 56.6482 266.465 55.8349 267.905C54.7422 269.839 59.4131 274.668 63.2097 277.01C62.9815 276.982 62.7417 276.958 62.4865 276.941C58.0547 276.633 51.1274 278.021 50.9734 280.316C50.8653 281.926 54.1241 283.554 57.6088 284.489C54.1394 285.815 50.898 287.876 51.1922 289.509C51.5493 291.491 56.9956 292.185 61.2779 291.779C58.0787 294.9 54.6097 300.492 56.0575 302.131C57.1184 303.332 60.5372 302.089 63.6241 300.198C62.1426 303.653 61.338 307.453 62.695 308.376C64.4883 309.596 69.4065 305.35 71.9996 301.697C71.7354 306.167 72.787 312.307 74.8737 312.549C75.7463 312.651 76.6709 311.704 77.5054 310.247L75.142 345.037C74.5895 349.089 78.1234 351.732 78.4392 353.401L78.949 376.961C78.3737 375.283 77.5987 373.565 76.5541 371.861L76.4502 371.927C76.5842 369.506 76.2666 358.946 60.9738 355.779C57.367 355.032 53.9763 354.522 50.8681 354.181C47.1992 353.78 45.768 358.888 49.0824 360.537C53.8824 362.926 58.3977 365.937 60.7512 369.501C66.7681 378.615 75.0817 373.347 76.2638 372.529C77.584 374.764 78.4497 377.016 78.9965 379.158L79.2673 391.67C79.2009 391.966 79.155 392.131 79.1515 392.144L79.2783 392.182L79.9335 422.46L86.011 422.411L83.8372 391.461C84.2024 389.792 85.3262 384.104 83.8372 378.197L81.6633 353.88C81.6579 353.861 81.7867 354.518 81.6633 353.88L78.8278 344.325C79.2401 341.369 80.197 338.044 82.1405 334.754C83.3225 335.572 91.6362 340.84 97.6531 331.726C100.007 328.162 104.522 325.151 109.322 322.762C112.636 321.112 111.205 316.005 107.536 316.406ZM79.7738 388.045L79.6592 382.75C79.8903 384.752 79.8786 386.559 79.7738 388.045Z" fill="#F2F2F2"/>
<path d="M572.646 316.406C569.537 316.746 566.147 317.257 562.54 318.004C547.247 321.171 546.929 331.731 547.063 334.152L546.96 334.086C545.422 336.595 544.459 339.134 543.877 341.53L543.176 309.163C543.629 308.203 544.041 307.114 544.385 305.998C545.529 309.583 547.406 312.97 549.024 312.746C551.127 312.454 552.044 306.16 551.652 301.687C554.326 305.19 558.828 308.937 560.526 307.781C561.883 306.858 561.079 303.058 559.597 299.603C562.684 301.494 566.103 302.737 567.164 301.536C568.611 299.897 565.142 294.305 561.943 291.184C566.226 291.59 571.672 290.896 572.029 288.914C572.323 287.281 569.082 285.22 565.612 283.894C569.097 282.959 572.356 281.331 572.248 279.721C572.119 277.807 567.281 276.525 563.108 276.33C566.256 273.825 569.148 270.363 568.264 268.797C567.45 267.358 563.667 267.915 560.177 269.183C562.242 266.18 563.695 262.796 562.589 261.638C561.211 260.195 556.321 262.685 552.985 265.437C553.634 261.149 553.306 255.737 551.415 255.247C549.832 254.837 547.59 257.986 546.053 261.416C545.373 257.816 543.998 254.399 542.41 254.399C540.149 254.399 538.316 261.333 538.316 265.851C538.316 266.106 538.322 266.347 538.334 266.576C538.107 266.309 537.847 266.029 537.55 265.736C534.363 262.589 528.195 259.095 526.619 260.745C525.513 261.903 526.966 265.287 529.031 268.291C525.541 267.023 521.758 266.465 520.944 267.905C519.852 269.839 524.522 274.668 528.319 277.01C528.091 276.982 527.851 276.958 527.596 276.941C523.164 276.633 516.237 278.021 516.083 280.316C515.975 281.926 519.233 283.554 522.718 284.489C519.249 285.815 516.007 287.876 516.302 289.509C516.659 291.491 522.105 292.185 526.387 291.779C523.188 294.9 519.719 300.492 521.167 302.131C522.228 303.332 525.647 302.089 528.733 300.198C527.252 303.653 526.447 307.453 527.804 308.376C529.598 309.596 534.516 305.35 537.109 301.697C536.845 306.167 537.896 312.307 539.983 312.549C540.856 312.651 541.78 311.704 542.615 310.247L540.251 345.037C539.699 349.089 543.233 351.732 543.549 353.401L544.058 376.961C543.483 375.283 542.708 373.565 541.663 371.861L541.56 371.927C541.694 369.506 541.376 358.946 526.083 355.779C522.476 355.032 519.086 354.522 515.977 354.181C512.309 353.78 510.877 358.888 514.192 360.537C518.992 362.926 523.507 365.937 525.861 369.501C531.877 378.615 540.191 373.347 541.373 372.529C542.693 374.764 543.559 377.016 544.106 379.158L544.377 391.67C544.31 391.966 544.264 392.131 544.261 392.144L544.388 392.182L545.043 422.46L551.12 422.411L548.946 391.461C549.312 389.792 550.436 384.104 548.946 378.197L546.773 353.88C546.767 353.861 546.896 354.518 546.773 353.88L543.937 344.325C544.349 341.369 545.306 338.044 547.25 334.754C548.432 335.572 556.746 340.84 562.762 331.726C565.116 328.162 569.631 325.151 574.431 322.762C577.746 321.112 576.315 316.005 572.646 316.406ZM544.883 388.045L544.769 382.75C545 384.752 544.988 386.559 544.883 388.045Z" fill="#F2F2F2"/>
<path d="M478.288 217.317L475.438 148.224C475.438 148.224 472.237 107.205 469.676 92.8809C467.115 78.5568 449.829 82.4633 449.829 82.4633L451.749 123.483L460.037 165.46L466.487 222.622C466.154 224.276 465.966 226.073 465.966 227.96C465.966 235.969 469.255 242.46 473.311 242.46C477.368 242.46 480.656 235.969 480.656 227.96C480.656 223.748 479.741 219.967 478.288 217.317Z" fill="#FFB6B6"/>
<path d="M339.565 199.415C342.595 195.744 346.225 193.25 349.484 192.29L387.814 148.224C387.814 148.224 391.015 107.205 393.576 92.8809C396.137 78.5567 413.424 82.4633 413.424 82.4633L411.503 123.483L400.619 167.757L355.766 206.483C354.983 207.934 354.023 209.384 352.873 210.777C347.416 217.387 340.013 220.202 336.339 217.064C332.664 213.926 334.108 206.024 339.565 199.415Z" fill="#FFB6B6"/>
<path d="M423.899 76.9289L428.345 59.5454L445.667 58.6981L450.849 82.6606L423.899 76.9289Z" fill="#FFB6B6"/>
<path opacity="0.1" d="M423.899 76.9289L428.345 59.5454L445.667 58.6981L450.849 82.6606L423.899 76.9289Z" fill="black"/>
<path d="M379.667 361.717L363.443 360.775L365.572 411.409L376.565 412.049L379.667 361.717Z" fill="#FFB6B6"/>
<path d="M364.165 395.4L369.799 398.013L369.791 401.486C369.791 401.486 371.151 397.467 378.446 396.59L379.317 399.957C379.317 399.957 382.146 403.259 381.661 409.233L379.804 425.231L374.302 425.102L373.413 413.97C373.413 413.97 371.898 411.444 364.917 423.447C364.917 423.447 357.227 425.418 345.318 421.358C343.681 420.799 342.544 419.245 342.566 417.49C342.578 416.521 342.95 415.626 344.144 415.305C347.185 414.487 350.154 415.524 352.118 413.056C354.081 410.588 364.165 395.4 364.165 395.4Z" fill="#2F2E41"/>
<path d="M466.739 361.717L450.516 360.775L452.644 411.409L463.637 412.049L466.739 361.717Z" fill="#FFB6B6"/>
<path d="M451.238 395.4L456.871 398.013L456.864 401.486C456.864 401.486 458.223 397.467 465.518 396.59L466.389 399.957C466.389 399.957 469.219 403.259 468.733 409.233L466.876 425.231L461.375 425.102L460.486 413.97C460.486 413.97 458.97 411.444 451.99 423.447C451.99 423.447 444.299 425.418 432.391 421.358C430.754 420.799 429.617 419.245 429.638 417.49C429.65 416.521 430.023 415.626 431.217 415.305C434.258 414.487 437.227 415.524 439.191 413.056C441.154 410.588 451.238 395.4 451.238 395.4Z" fill="#2F2E41"/>
<path d="M437.217 69.7827C447.825 69.7827 456.424 61.0374 456.424 50.2497C456.424 39.4619 447.825 30.7167 437.217 30.7167C426.609 30.7167 418.01 39.4619 418.01 50.2497C418.01 61.0374 426.609 69.7827 437.217 69.7827Z" fill="#FFB6B6"/>
<path d="M448.109 53.4967C448.109 53.4967 439.664 39.4448 431.211 40.9958C422.758 42.5467 418.351 43.9471 418.351 43.9471C418.351 43.9471 414.909 32.7434 426.466 27.3682C426.466 27.3682 410.11 13.4423 427.541 4.50514C444.972 -4.43204 455.819 4.22953 455.819 4.22953C455.819 4.22953 470.247 16.6724 454.251 28.1879C454.251 28.1879 468.095 44.2257 454.112 59.5455C454.112 59.5455 456.581 47.8803 453.223 50.2718C449.865 52.6632 448.109 53.4967 448.109 53.4967Z" fill="#2F2E41"/>
<path d="M450.149 78.2311L423.899 74.9756L403.732 91.5786C403.732 91.5786 393.701 119.999 401.171 137.156C401.35 137.567 401.491 166.13 401.491 166.13H457.262C457.262 166.13 457.208 146.688 459.339 139.647C459.643 138.641 459.993 137.888 460.393 137.481C463.594 134.226 471.277 113.39 467.435 104.275C463.594 95.1597 450.149 78.2311 450.149 78.2311Z" fill="#FF8833"/>
<path d="M401.17 164.827L365.957 278.77L358.274 368.622H379.722L397.969 285.281L423.097 237.038L447.908 375.133H469.557L469.036 188.267L457.216 164.827H401.17Z" fill="#2F2E41"/>
<path d="M646 422.46H0.942871V424.46H646V422.46Z" fill="#3F3D56"/>
<path d="M331.597 187.888C325.203 177.418 310.286 174.954 299.207 179.949C288.127 184.944 280.468 195.593 275.262 206.723C270.056 217.853 266.781 229.845 261.43 240.903C245.685 273.442 213.802 294.693 193.745 324.678C178.676 347.207 170.696 374.562 171.246 401.804C171.457 412.239 173.116 423.216 179.519 431.372C189.023 443.478 205.85 445.962 221.002 447.556C229.803 448.482 240.606 448.455 245.138 440.727C246.931 437.67 227.664 427.006 227.973 423.46C229.641 404.328 250.928 392.178 252.596 373.045C255.211 386.376 251.859 400.139 252.388 413.723C252.917 427.306 259.501 442.67 272.58 445.479C276.616 446.346 281.173 445.746 284.232 442.932C287.291 440.118 288.184 434.801 285.459 431.652C288.249 434.55 292.958 435.303 296.489 433.416C300.019 431.529 302.079 427.158 301.314 423.177C300.751 420.249 298.894 417.787 297.285 415.293C288.571 401.783 286.301 384.178 291.295 368.84C300.123 341.726 329.113 324.028 334.024 295.907C337.671 275.022 327.266 251.358 338.308 233.363C343.284 225.254 351.733 220.142 358.472 213.478C365.21 206.814 370.48 196.619 366.624 187.902L332.179 187.864" fill="#3F3D56"/>
<path d="M225.374 427.247C224.517 427.247 223.638 427.014 222.789 426.551C220.834 425.484 219.36 423.376 219.033 421.179C218.489 417.525 220.2 413.976 221.576 411.124C225.338 403.325 229.057 394.986 229.605 386.321C230.203 376.861 226.43 368.092 219.992 363.981C215.208 360.926 208.819 360.14 202.005 361.77C195.969 363.214 190.547 366.164 184.59 369.587C184.117 369.859 183.517 369.69 183.25 369.208C182.983 368.728 183.15 368.117 183.622 367.846C189.489 364.475 195.275 361.325 201.554 359.823C208.885 358.071 215.804 358.945 221.038 362.287C228.079 366.783 232.212 376.268 231.567 386.45C230.996 395.48 227.19 404.026 223.341 412.005C222.021 414.742 220.525 417.844 220.977 420.88C221.211 422.451 222.313 424.022 223.719 424.788C224.404 425.162 225.448 425.499 226.533 424.985C227.026 424.751 227.611 424.969 227.84 425.469C228.069 425.97 227.856 426.565 227.364 426.798C226.732 427.098 226.06 427.247 225.374 427.247Z" fill="#2F2E41"/>
<path d="M300.73 187.202C299.443 190.788 301.161 194.807 303.541 197.759C305.922 200.711 308.98 203.085 311.078 206.251C315.476 212.888 314.816 221.961 311.437 229.188C308.058 236.416 302.362 242.206 296.775 247.842C297.188 245.425 295.987 242.986 294.349 241.185C292.711 239.384 290.65 238.047 288.819 236.45C280.291 229.016 277.623 215.468 282.679 205.268" fill="#2F2E41"/>
<path d="M184.256 400.569C177.032 399.669 170.93 406.279 163.722 407.292C155.385 408.464 147.719 401.756 144.01 394.074C140.301 386.392 139.349 377.672 136.798 369.517C134.246 361.362 129.324 353.102 121.303 350.51C117.939 349.422 114.131 349.481 111.006 351.151C107.88 352.82 105.589 356.228 105.667 359.817C105.763 364.234 109.094 367.77 111.112 371.682C114.323 377.908 114.223 385.281 115.641 392.162C119.051 408.704 132.283 422.733 148.393 426.885C156.725 429.033 166.051 428.541 173.268 423.795C180.485 419.048 184.884 409.488 182.213 401.18" fill="#3F3D56"/>
</g>
<defs>
<clipPath id="clip0_28_393">
<rect width="645.057" height="447.506" fill="white" transform="translate(0.942871 0.460327)"/>
</clipPath>
</defs>
</svg>
