<svg width="324" height="249" viewBox="0 0 324 249" fill="none" xmlns="http://www.w3.org/2000/svg">
<g clip-path="url(#clip0_104_47)" filter="url(#filter0_d_104_47)">
<path d="M296.374 218.179C286.02 226.06 273.406 234.043 261.005 237.807C257.43 238.925 253.741 239.638 250.006 239.934C246.515 240.215 243.002 239.942 239.596 239.127C230.646 236.901 222.344 233.004 214.311 228.452C211.687 226.962 209.093 225.404 206.514 223.812C202.304 221.211 198.136 218.52 193.957 215.893C193.331 215.495 192.709 215.104 192.084 214.718H192.08C191.071 214.085 190.06 213.46 189.046 212.845C188.867 212.735 188.689 212.629 188.507 212.519C186.592 211.359 184.644 210.226 182.663 209.119C182.42 208.986 182.177 208.849 181.935 208.717C178.102 206.592 174.163 204.665 170.132 202.943C167.485 201.829 164.804 200.824 162.096 199.968H162.092C161.057 199.642 160.018 199.334 158.975 199.054C155.848 198.196 152.661 197.573 149.441 197.189C145.003 196.652 140.515 196.688 136.087 197.295C135.788 197.337 135.492 197.378 135.192 197.428C123.208 199.346 112.27 205.813 100.233 207.337C99.8422 207.386 99.4554 207.432 99.0647 207.466C98.8979 207.481 98.731 207.5 98.5641 207.511C95.066 207.811 91.5456 207.724 88.0665 207.253C78.3463 205.972 68.8802 201.996 60.3584 196.984C40.4364 185.267 24.2803 167.257 14.4577 146.4C12.771 142.825 11.2734 139.164 9.97121 135.433C6.33037 125.085 4.32535 114.233 4.02834 103.268C3.10676 65.2232 24.7354 27.0536 58.6935 9.84707C92.6554 -7.35942 137.331 -1.66941 164.721 24.7639C181.336 40.799 190.95 62.528 203.453 81.9407C215.957 101.35 233.729 119.89 256.651 122.718C268.328 124.159 280.548 121.373 291.739 124.997C297.936 127.006 303.223 130.85 307.482 135.747C310.345 139.071 312.741 142.77 314.604 146.741C315.969 149.612 317.077 152.598 317.915 155.664C318.071 156.229 318.215 156.794 318.355 157.359C323.93 180.119 315.021 203.978 296.374 218.179Z" fill="#F2F2F2"/>
<path d="M109.873 176.976H74.2236C68.8825 176.976 64.5527 181.304 64.5527 186.643V186.643C64.5527 191.981 68.8825 196.309 74.2236 196.309H109.873C115.214 196.309 119.544 191.981 119.544 186.643C119.544 181.304 115.214 176.976 109.873 176.976Z" fill="#3F3D56"/>
<path d="M99.0647 191.381V207.466C95.4027 207.82 91.712 207.749 88.0664 207.253V191.381H99.0647Z" fill="#3F3D56"/>
<path d="M136.087 197.295C135.788 197.337 135.492 197.378 135.192 197.428C123.208 199.346 112.27 205.813 100.233 207.337C99.8423 207.386 99.4555 207.432 99.0649 207.466C98.898 207.481 98.7311 207.5 98.5643 207.511C95.6251 204.634 92.6859 201.571 89.9249 198.398C88.4269 196.681 86.9782 194.929 85.6166 193.155C82.082 188.576 79.0859 183.868 77.1062 179.243C77.3072 177.025 75.9268 171.897 75.2669 167.969L75.2631 167.965C74.9824 166.316 74.8307 164.884 74.9711 163.962C75.7751 158.648 80.1175 159.258 81.4525 154.049C82.6567 153.05 83.9389 152.149 85.2867 151.354C85.5104 151.221 85.738 151.089 85.9731 150.956L100.461 140.948L105.998 146.377L114.425 154.641L123.557 163.591L115.805 171.419C115.805 171.419 122.283 178.883 129.856 188.834C131.889 191.506 134.001 194.361 136.087 197.295Z" fill="#2F2E41"/>
<path d="M261.005 191.381V237.807C257.43 238.925 253.741 239.638 250.007 239.934V191.381H261.005Z" fill="#3F3D56"/>
<path d="M275.227 187.59H239.577C234.236 187.59 229.906 191.918 229.906 197.257V197.257C229.906 202.596 234.236 206.924 239.577 206.924H275.227C280.568 206.924 284.898 202.596 284.898 197.257C284.898 191.918 280.568 187.59 275.227 187.59Z" fill="#3F3D56"/>
<path d="M188.507 212.519C186.592 211.359 184.644 210.225 182.663 209.118C182.42 208.986 182.177 208.849 181.935 208.717L183.239 208.159L186.759 206.647L186.793 206.632L186.831 206.761L188.507 212.519Z" fill="#FFB6B6"/>
<path d="M193.957 215.893C193.331 215.495 192.709 215.104 192.084 214.718H192.08C191.071 214.084 190.06 213.46 189.046 212.845C188.867 212.735 188.689 212.629 188.507 212.519C186.592 211.359 184.644 210.225 182.663 209.118C182.42 208.986 182.177 208.849 181.935 208.717C178.102 206.592 174.163 204.665 170.132 202.943C167.485 201.829 164.804 200.824 162.096 199.967H162.092L159.965 196.408L150.389 180.377L148.284 176.855C148.284 176.855 141.105 178.978 130.945 181.013C127.247 181.756 123.159 182.484 118.869 183.098C114.284 183.75 109.475 184.27 104.697 184.52C102.417 184.641 100.146 184.702 97.908 184.683C92.1244 184.645 86.5684 184.103 81.7026 182.814C80.0794 181.29 75.1871 179.217 71.6828 177.317H71.679C70.2075 176.521 68.9863 175.759 68.3454 175.081C64.6515 171.176 67.8069 168.132 64.5226 163.871C64.4783 162.308 64.5582 160.744 64.7615 159.194C64.7956 158.936 64.8298 158.674 64.8715 158.409L65.9068 140.835L73.598 139.819L85.3017 138.272L97.98 136.596L99.3757 147.522C99.3757 147.522 109.248 147.021 121.755 147.188C141.844 147.461 168.725 149.463 172.366 158.052C172.708 158.86 173.049 159.675 173.39 160.49C174.202 162.438 175.006 164.397 175.802 166.366C178.688 173.492 181.442 180.687 183.956 187.488C185.519 191.719 186.99 195.798 188.344 199.615C189.433 202.685 190.441 205.589 191.363 208.262C192.205 210.703 192.967 212.951 193.646 214.968C193.752 215.282 193.855 215.593 193.957 215.893Z" fill="#2F2E41"/>
<path d="M123.206 109.414L98.9131 88.7911L114.718 72.8026L125.745 90.8556L166.618 98.9554C167.847 98.0309 169.319 97.4838 170.854 97.3808C172.388 97.2778 173.92 97.6233 175.262 98.3753C176.603 99.1273 177.697 100.253 178.41 101.616C179.122 102.978 179.422 104.519 179.274 106.049C179.126 107.579 178.536 109.034 177.575 110.234C176.614 111.435 175.325 112.33 173.864 112.811C172.403 113.292 170.833 113.338 169.347 112.942C167.86 112.547 166.521 111.728 165.492 110.585L123.206 109.414Z" fill="#A0616A"/>
<path d="M77.4429 61.6881C74.6354 70.8174 101.373 92.5908 101.373 92.5908C101.671 90.3991 116.83 109.298 117.862 107.587C120.793 102.722 124.018 90.6979 127.402 89.161C129.337 88.2822 118.235 76.0663 118.235 76.0663C118.235 76.0663 112.572 68.5772 105.095 59.0856C103.031 56.363 100.311 54.2067 97.1889 52.8174C94.0667 51.428 90.6437 50.8509 87.2383 51.1396C87.2383 51.1396 80.2504 52.5589 77.4429 61.6881Z" fill="#3F3D56"/>
<path d="M89.2646 41.4779C98.3391 41.4779 105.695 34.1249 105.695 25.0545C105.695 15.9842 98.3391 8.63123 89.2646 8.63123C80.1902 8.63123 72.834 15.9842 72.834 25.0545C72.834 34.1249 80.1902 41.4779 89.2646 41.4779Z" fill="#A0616A"/>
<path d="M97.4801 52.3326C101.02 54.436 103.137 58.3008 104.353 62.2337C106.603 69.5148 107.958 77.0428 108.387 84.6514L109.671 107.43L125.571 155.932C111.791 167.588 59.9916 158.581 59.9916 158.581C59.9916 158.581 58.4015 158.052 59.9916 156.462C61.5816 154.873 63.1296 156.281 61.5395 154.692C59.9495 153.102 61.0456 154.873 61.5756 153.284C62.1057 151.694 61.5756 152.754 61.0456 152.224C60.5156 151.694 65.1488 146.926 65.1488 146.926L60.9086 119.085L55.6084 62.9282C61.9687 54.9814 74.76 50.2969 74.76 50.2969L78.0651 44.3503L94.5906 45.6718L97.4801 52.3326Z" fill="#3F3D56"/>
<path d="M102.809 16.329C104.086 17.2811 105.032 18.6095 105.514 20.1272C105.7 17.6469 105.711 15.1567 105.55 12.6747C105.356 10.9306 104.127 10.5383 102.705 10.0838C101.42 9.67305 99.9677 9.20913 99.5768 7.51602C94.4119 2.49379 85.421 2.74704 79.2678 4.49887C75.882 5.46287 73.9338 6.70142 73.7595 7.42697L73.7234 7.57633L73.5859 7.64505C70.976 8.9494 70.4679 13.0683 70.5015 16.2939C70.5651 22.3711 72.6644 29.2732 73.847 29.8339C73.9096 29.8636 73.9254 29.852 73.9525 29.8294C75.7332 28.407 77.9057 29.9375 78.8604 30.7695C79.4236 26.9924 81.2367 23.5129 84.0104 20.8867C86.784 18.2605 90.3581 16.639 94.1618 16.2813C95.404 16.1613 96.6362 15.9548 97.8497 15.6632C98.4652 15.504 99.0979 15.421 99.7336 15.4161C100.828 15.3995 101.901 15.718 102.809 16.329Z" fill="#2F2E41"/>
<path d="M82.1062 134.157L77.0801 131.584C76.8108 131.392 76.6195 131.11 76.5412 130.789C76.4628 130.468 76.5027 130.129 76.6534 129.835C76.8041 129.541 77.0557 129.311 77.3622 129.187C77.6686 129.063 78.0095 129.053 78.3226 129.159L83.3488 131.732C83.618 131.924 83.8093 132.206 83.8877 132.527C83.966 132.848 83.9262 133.187 83.7754 133.481C83.6247 133.775 83.3731 134.005 83.0667 134.13C82.7602 134.254 82.4193 134.263 82.1062 134.157Z" fill="#6C63FF"/>
<path d="M65.191 127.264L56.9229 96.4968L79.0175 92.3162L77.8293 113.434L106.86 143.313C108.397 143.25 109.919 143.636 111.24 144.423C112.562 145.209 113.626 146.364 114.302 147.744C114.979 149.125 115.239 150.673 115.05 152.199C114.862 153.725 114.234 155.163 113.242 156.338C112.25 157.513 110.938 158.375 109.464 158.817C107.991 159.259 106.421 159.264 104.946 158.83C103.47 158.396 102.153 157.542 101.154 156.372C100.156 155.203 99.5192 153.768 99.3224 152.243L65.191 127.264Z" fill="#A0616A"/>
<path d="M54.6618 62.0006C47.1621 67.9186 56.788 101.021 56.788 101.021C58.2783 99.3865 60.0102 123.548 61.8318 122.725C67.0091 120.387 76.4984 112.324 80.1567 112.981C82.2488 113.357 80.0569 96.9997 80.0569 96.9997C80.0569 96.9997 79.6538 87.6206 78.8961 75.5634C78.7451 72.1507 77.7328 68.8316 75.9533 65.9151C74.1738 62.9987 71.685 60.5797 68.7186 58.8833C68.7186 58.8833 62.1615 56.0826 54.6618 62.0006Z" fill="#3F3D56"/>
<path d="M314.605 146.741L14.4582 146.4C12.7714 142.825 11.2739 139.164 9.97168 135.433L307.482 135.747C310.346 139.071 312.742 142.77 314.605 146.741Z" fill="#3F3D56"/>
<path d="M219.006 226.279C217.455 227.03 215.89 227.754 214.311 228.452C211.687 226.962 209.093 225.404 206.514 223.812L216.078 219.611L219.006 226.279Z" fill="#FFB6B6"/>
<path d="M288.743 174.042C287.188 176.127 285.584 178.17 283.93 180.172C282.406 182.018 280.84 183.829 279.235 185.604C278.571 186.34 277.9 187.071 277.214 187.795C275.951 189.149 274.66 190.479 273.341 191.787C270.967 192.534 266.158 193.849 261.004 195.077C257.254 195.968 253.321 196.814 250.006 197.352C248.151 197.685 246.274 197.885 244.389 197.951C242.152 197.97 239.88 197.909 237.601 197.788C235.03 197.651 232.454 197.439 229.91 197.166C223.292 196.472 216.882 195.392 211.353 194.281C209.328 193.879 207.424 193.47 205.672 193.072C202.353 192.325 199.577 191.628 197.567 191.097C195.303 190.506 194.014 190.123 194.014 190.123L188.344 199.615L185.401 204.539L183.239 208.159L182.663 209.119C182.42 208.986 182.177 208.849 181.934 208.717C178.102 206.592 174.162 204.665 170.132 202.943C167.485 201.829 164.804 200.824 162.096 199.967H162.092C161.057 199.641 160.018 199.334 158.975 199.054C159.301 198.178 159.631 197.296 159.964 196.408C160.586 194.751 161.221 193.08 161.868 191.393C163.268 187.738 164.716 184.031 166.207 180.342C167.428 177.314 168.672 174.296 169.931 171.32C170.511 169.948 171.691 168.743 173.341 167.685C174.129 167.188 174.952 166.747 175.802 166.366C180.524 164.216 187.479 162.818 195.144 161.919C195.777 161.847 196.414 161.775 197.055 161.707C203.4 161.04 210.132 160.695 216.427 160.535C219.579 160.456 222.62 160.426 225.45 160.422C226.364 160.422 227.252 160.424 228.116 160.429H228.12C230.452 160.441 232.599 160.475 234.487 160.513C234.855 160.52 235.212 160.532 235.561 160.539H235.564C235.799 160.543 236.031 160.551 236.258 160.554C240.388 160.661 242.922 160.789 242.922 160.789L243.904 153.087L244.105 151.532L244.295 150.054V150.05L244.317 149.864L244.473 149.861L247.204 149.807L270.156 149.36L282.694 149.114L280.707 157.628L277.426 171.677C277.76 173.898 288.857 172.158 288.743 174.042Z" fill="#2F2E41"/>
<path d="M221.836 224.877C220.899 225.355 219.955 225.825 219.006 226.279C217.455 227.03 215.89 227.754 214.311 228.452C211.687 226.962 209.093 225.404 206.514 223.812C202.304 221.211 198.136 218.52 193.957 215.893C193.331 215.495 192.709 215.104 192.083 214.718H192.08C190.358 212.163 188.602 209.501 186.831 206.761C186.804 206.723 186.781 206.685 186.759 206.647C186.304 205.949 185.851 205.247 185.401 204.539C182.568 200.104 179.72 195.479 176.955 190.756L183.956 187.488L196.972 181.415L199.217 180.369L205.672 193.072L211.429 204.403L212.711 206.924L221.836 224.877Z" fill="#2F2E41"/>
<path d="M223.797 163.889L256.982 131.901L266.179 105.87L252.613 99.973C245.644 106.645 238.111 127.428 238.111 127.428L215.276 156.467C215.098 156.528 214.92 156.593 214.745 156.67C213.716 157.123 212.822 157.834 212.149 158.734C211.476 159.634 211.046 160.692 210.901 161.806C210.756 162.92 210.902 164.053 211.323 165.095C211.744 166.136 212.427 167.052 213.306 167.753C214.185 168.453 215.229 168.916 216.339 169.095C217.449 169.274 218.586 169.164 219.641 168.776C220.695 168.388 221.632 167.734 222.36 166.878C223.088 166.022 223.583 164.992 223.797 163.889Z" fill="#FFB8B8"/>
<path d="M248.795 102.88L266.004 108.34L266.068 108.329C272.473 107.257 277.788 96.8007 281.119 88.2178C282.215 85.3867 282.194 82.2454 281.062 79.4289C279.929 76.6124 277.769 74.3307 275.018 73.0452C272.982 72.1107 270.725 71.7639 268.502 72.0443C266.28 72.3246 264.18 73.2207 262.44 74.6315L253.603 81.8489L248.795 102.88Z" fill="#6C63FF"/>
<path d="M288.674 174.426L288.775 174.293C294.144 167.175 286.8 149.549 285.69 146.992L290.682 145.514L289.812 136.013L289.393 131.776L293.275 128.092L293.288 127.998L295.957 109.009L299.45 96.4406C300.767 91.6894 300.794 86.6735 299.531 81.908C298.267 77.1424 295.757 72.7989 292.259 69.3232L285.119 62.2371L276.564 48.8531L262.221 48.4829L257.064 57.6411C252.267 58.6196 247.966 61.2489 244.91 65.0711C241.853 68.8934 240.235 73.6662 240.338 78.5583L240.823 102.939L235.677 133.147L235.532 138.634L230.481 143.962L231.415 149.349L227.636 150.853L225.787 158.507C225.081 159.39 220.419 165.282 220.376 166.924C220.37 167.17 220.546 167.413 220.93 167.688C223.948 169.846 240.817 174.523 248.409 171.711C256.496 168.719 288.19 174.339 288.509 174.396L288.674 174.426Z" fill="#D6EBDC"/>
<path d="M268.14 44.38C278.635 44.38 287.142 35.8764 287.142 25.3867C287.142 14.897 278.635 6.3934 268.14 6.3934C257.646 6.3934 249.139 14.897 249.139 25.3867C249.139 35.8764 257.646 44.38 268.14 44.38Z" fill="#FFB8B8"/>
<path d="M265.822 44.6342C268.764 44.6801 271.705 44.4747 274.613 44.0201C277.495 43.4343 283.942 38.7118 285.74 35.87C287.075 33.7585 287.929 30.4614 288.41 28.0673C289.058 24.8993 289.034 21.6305 288.338 18.4726C287.642 15.3147 286.29 12.3382 284.37 9.73569C283.632 8.64713 282.613 7.77818 281.422 7.22073C281.316 7.17946 281.208 7.14288 281.098 7.11161C279.362 6.65501 277.802 5.69017 276.618 4.34095C276.389 4.06806 276.14 3.81203 275.873 3.57488C274.536 2.4465 272.95 1.65057 271.246 1.25214C268.494 0.516192 264.513 1.24672 259.412 3.42554C256.85 4.52023 254.047 4.12406 251.891 3.65657C251.77 3.63323 251.645 3.64194 251.528 3.68184C251.412 3.72174 251.308 3.79145 251.227 3.88403C250.309 4.74481 249.1 5.22664 247.842 5.23267C247.071 5.26649 246.263 6.33305 245.285 7.72389C245.064 8.0396 244.805 8.40808 244.618 8.63219L244.593 8.20162L244.157 8.68195C243.472 9.43689 242.989 10.3529 242.753 11.3446C242.518 12.3364 242.537 13.3716 242.809 14.3539C243.082 15.3362 243.598 16.2337 244.311 16.9627C245.024 17.6917 245.91 18.2286 246.886 18.5233C247.661 18.7295 248.455 18.856 249.256 18.9009C249.741 18.9445 250.243 18.9896 250.724 19.073C252.267 19.3889 253.702 20.0995 254.889 21.1353C256.076 22.1711 256.974 23.4968 257.495 24.983C257.618 25.3265 257.818 25.6371 258.081 25.8908C258.343 26.1446 258.66 26.3347 259.008 26.4464C259.355 26.5582 259.724 26.5886 260.085 26.5353C260.446 26.4821 260.791 26.3466 261.091 26.1393C261.592 25.7494 262.18 25.4863 262.804 25.3726C263.429 25.259 264.072 25.298 264.678 25.4863C265.202 25.7776 265.61 26.24 265.834 26.7961C266.105 27.4156 266.555 27.9403 267.126 28.3032C269.079 29.3096 269.214 33.7684 268.512 37.4853C267.836 41.0681 266.499 43.6599 265.262 43.7881C264.309 43.8866 264.2 43.9542 264.131 44.1226L264.07 44.2734L264.177 44.4144C264.703 44.6051 265.264 44.6801 265.822 44.6342Z" fill="#2F2E41"/>
<path d="M253.514 97.1371L246.187 82.5366C235.553 83.2627 214.446 95.5533 214.446 95.5533L174.511 104.016C173.328 103.562 172.046 103.427 170.795 103.625C169.543 103.823 168.365 104.347 167.38 105.145C166.396 105.942 165.639 106.985 165.185 108.168C164.732 109.351 164.598 110.633 164.798 111.884C164.998 113.135 165.524 114.311 166.323 115.295C167.122 116.278 168.166 117.033 169.35 117.485C170.534 117.937 171.817 118.069 173.068 117.868C174.319 117.667 175.495 117.14 176.478 116.34L227.277 112.7L253.514 97.1371Z" fill="#FFB8B8"/>
<path d="M250.559 99.5345L269.694 85.321L273.064 73.1802C273.717 70.7943 273.69 68.2735 272.984 65.9024C272.279 63.5314 270.925 61.4048 269.074 59.7629C266.55 57.5541 263.281 56.3856 259.928 56.4937C256.575 56.6018 253.389 57.9785 251.013 60.3454C243.812 67.5294 235.599 77.5519 237.363 84.5016L237.381 84.5721L250.559 99.5345Z" fill="#93EEAD"/>
<path d="M226.873 137.552H175.674V144.375H226.873V137.552Z" fill="white"/>
<path d="M96.0309 137.552H44.832V144.375H96.0309V137.552Z" fill="white"/>
<path d="M102.009 104.738V137.227C102.009 137.641 102.174 138.038 102.467 138.33C102.76 138.623 103.157 138.788 103.571 138.788H151.737C152.152 138.788 152.549 138.623 152.842 138.33C153.135 138.038 153.299 137.641 153.3 137.227V104.738C153.299 104.324 153.134 103.928 152.841 103.635C152.548 103.343 152.151 103.179 151.737 103.178H103.571C103.157 103.179 102.76 103.343 102.468 103.635C102.175 103.928 102.01 104.324 102.009 104.738Z" fill="#3F3D56"/>
<path d="M103.14 105.142V136.826C103.14 137.047 103.228 137.259 103.385 137.415C103.541 137.572 103.753 137.66 103.975 137.66H151.337C151.559 137.66 151.771 137.572 151.927 137.415C152.084 137.259 152.172 137.047 152.172 136.826V105.142C152.172 104.921 152.084 104.708 151.928 104.551C151.771 104.395 151.559 104.306 151.337 104.306H103.975C103.753 104.306 103.541 104.395 103.384 104.551C103.228 104.708 103.14 104.921 103.14 105.142Z" fill="#CAC7F3"/>
<path d="M101.001 143.563C101.09 143.673 101.202 143.762 101.33 143.824C101.457 143.885 101.597 143.916 101.739 143.915H153.314C153.455 143.915 153.594 143.883 153.721 143.823C153.848 143.762 153.961 143.674 154.049 143.564C154.138 143.455 154.202 143.327 154.235 143.19C154.268 143.053 154.27 142.91 154.241 142.772L153.441 138.971C153.407 138.816 153.336 138.672 153.233 138.551C153.13 138.431 152.998 138.338 152.85 138.282C152.742 138.24 152.628 138.218 152.513 138.218H102.536C102.421 138.218 102.306 138.24 102.199 138.282C102.051 138.338 101.919 138.431 101.816 138.551C101.713 138.672 101.641 138.816 101.608 138.971L100.808 142.772C100.779 142.91 100.782 143.052 100.815 143.189C100.849 143.326 100.912 143.454 101.001 143.563Z" fill="#2F2E41"/>
<path d="M150.744 139.856H151.962C152.065 139.856 152.147 139.773 152.147 139.671V139.088C152.147 138.986 152.065 138.903 151.962 138.903H150.744C150.642 138.903 150.559 138.986 150.559 139.088V139.671C150.559 139.773 150.642 139.856 150.744 139.856Z" fill="#3F3D56"/>
<path d="M147.566 139.856H148.785C148.887 139.856 148.97 139.773 148.97 139.671V139.088C148.97 138.986 148.887 138.903 148.785 138.903H147.566C147.464 138.903 147.381 138.986 147.381 139.088V139.671C147.381 139.773 147.464 139.856 147.566 139.856Z" fill="#3F3D56"/>
<path d="M144.39 139.856H145.608C145.71 139.856 145.793 139.773 145.793 139.67V139.088C145.793 138.986 145.71 138.903 145.608 138.903H144.39C144.287 138.903 144.204 138.986 144.204 139.088V139.67C144.204 139.773 144.287 139.856 144.39 139.856Z" fill="#3F3D56"/>
<path d="M141.213 139.856H142.431C142.533 139.856 142.616 139.773 142.616 139.67V139.088C142.616 138.986 142.533 138.903 142.431 138.903H141.213C141.111 138.903 141.028 138.986 141.028 139.088V139.67C141.028 139.773 141.111 139.856 141.213 139.856Z" fill="#3F3D56"/>
<path d="M138.036 139.856H139.254C139.357 139.856 139.439 139.773 139.439 139.671V139.088C139.439 138.986 139.357 138.903 139.254 138.903H138.036C137.934 138.903 137.851 138.986 137.851 139.088V139.671C137.851 139.773 137.934 139.856 138.036 139.856Z" fill="#3F3D56"/>
<path d="M134.858 139.856H136.077C136.179 139.856 136.262 139.773 136.262 139.671V139.088C136.262 138.986 136.179 138.903 136.077 138.903H134.858C134.756 138.903 134.673 138.986 134.673 139.088V139.671C134.673 139.773 134.756 139.856 134.858 139.856Z" fill="#3F3D56"/>
<path d="M131.682 139.856H132.9C133.002 139.856 133.085 139.773 133.085 139.671V139.088C133.085 138.986 133.002 138.903 132.9 138.903H131.682C131.579 138.903 131.496 138.986 131.496 139.088V139.671C131.496 139.773 131.579 139.856 131.682 139.856Z" fill="#3F3D56"/>
<path d="M128.505 139.856H129.723C129.825 139.856 129.908 139.773 129.908 139.67V139.088C129.908 138.986 129.825 138.903 129.723 138.903H128.505C128.403 138.903 128.32 138.986 128.32 139.088V139.67C128.32 139.773 128.403 139.856 128.505 139.856Z" fill="#3F3D56"/>
<path d="M125.328 139.856H126.546C126.649 139.856 126.731 139.773 126.731 139.67V139.088C126.731 138.986 126.649 138.903 126.546 138.903H125.328C125.226 138.903 125.143 138.986 125.143 139.088V139.67C125.143 139.773 125.226 139.856 125.328 139.856Z" fill="#3F3D56"/>
<path d="M122.151 139.856H123.37C123.472 139.856 123.555 139.773 123.555 139.671V139.088C123.555 138.986 123.472 138.903 123.37 138.903H122.151C122.049 138.903 121.966 138.986 121.966 139.088V139.671C121.966 139.773 122.049 139.856 122.151 139.856Z" fill="#3F3D56"/>
<path d="M118.974 139.856H120.192C120.294 139.856 120.377 139.773 120.377 139.671V139.088C120.377 138.986 120.294 138.903 120.192 138.903H118.974C118.871 138.903 118.788 138.986 118.788 139.088V139.671C118.788 139.773 118.871 139.856 118.974 139.856Z" fill="#3F3D56"/>
<path d="M115.797 139.856H117.015C117.117 139.856 117.2 139.773 117.2 139.67V139.088C117.2 138.986 117.117 138.903 117.015 138.903H115.797C115.695 138.903 115.612 138.986 115.612 139.088V139.67C115.612 139.773 115.695 139.856 115.797 139.856Z" fill="#3F3D56"/>
<path d="M112.62 139.856H113.838C113.941 139.856 114.023 139.773 114.023 139.67V139.088C114.023 138.986 113.941 138.903 113.838 138.903H112.62C112.518 138.903 112.435 138.986 112.435 139.088V139.67C112.435 139.773 112.518 139.856 112.62 139.856Z" fill="#3F3D56"/>
<path d="M109.443 139.856H110.662C110.764 139.856 110.847 139.773 110.847 139.671V139.088C110.847 138.986 110.764 138.903 110.662 138.903H109.443C109.341 138.903 109.258 138.986 109.258 139.088V139.671C109.258 139.773 109.341 139.856 109.443 139.856Z" fill="#3F3D56"/>
<path d="M106.266 139.856H107.484C107.586 139.856 107.669 139.773 107.669 139.671V139.088C107.669 138.986 107.586 138.903 107.484 138.903H106.266C106.163 138.903 106.08 138.986 106.08 139.088V139.671C106.08 139.773 106.163 139.856 106.266 139.856Z" fill="#3F3D56"/>
<path d="M103.089 139.856H104.307C104.409 139.856 104.492 139.773 104.492 139.671V139.088C104.492 138.986 104.409 138.903 104.307 138.903H103.089C102.987 138.903 102.904 138.986 102.904 139.088V139.671C102.904 139.773 102.987 139.856 103.089 139.856Z" fill="#3F3D56"/>
<path d="M150.781 141.443H151.999C152.102 141.443 152.185 141.36 152.185 141.258V140.676C152.185 140.574 152.102 140.491 151.999 140.491H150.781C150.679 140.491 150.596 140.574 150.596 140.676V141.258C150.596 141.36 150.679 141.443 150.781 141.443Z" fill="#3F3D56"/>
<path d="M147.604 141.443H148.823C148.925 141.443 149.008 141.36 149.008 141.258V140.676C149.008 140.574 148.925 140.491 148.823 140.491H147.604C147.502 140.491 147.419 140.574 147.419 140.676V141.258C147.419 141.36 147.502 141.443 147.604 141.443Z" fill="#3F3D56"/>
<path d="M144.428 141.443H145.646C145.748 141.443 145.831 141.361 145.831 141.258V140.676C145.831 140.574 145.748 140.491 145.646 140.491H144.428C144.325 140.491 144.243 140.574 144.243 140.676V141.258C144.243 141.361 144.325 141.443 144.428 141.443Z" fill="#3F3D56"/>
<path d="M141.25 141.443H142.468C142.57 141.443 142.653 141.361 142.653 141.258V140.676C142.653 140.574 142.57 140.491 142.468 140.491H141.25C141.148 140.491 141.065 140.574 141.065 140.676V141.258C141.065 141.361 141.148 141.443 141.25 141.443Z" fill="#3F3D56"/>
<path d="M138.073 141.443H139.291C139.394 141.443 139.477 141.36 139.477 141.258V140.676C139.477 140.574 139.394 140.491 139.291 140.491H138.073C137.971 140.491 137.888 140.574 137.888 140.676V141.258C137.888 141.36 137.971 141.443 138.073 141.443Z" fill="#3F3D56"/>
<path d="M134.896 141.443H136.115C136.217 141.443 136.3 141.36 136.3 141.258V140.676C136.3 140.574 136.217 140.491 136.115 140.491H134.896C134.794 140.491 134.711 140.574 134.711 140.676V141.258C134.711 141.36 134.794 141.443 134.896 141.443Z" fill="#3F3D56"/>
<path d="M131.72 141.443H132.938C133.04 141.443 133.123 141.361 133.123 141.258V140.676C133.123 140.574 133.04 140.491 132.938 140.491H131.72C131.617 140.491 131.535 140.574 131.535 140.676V141.258C131.535 141.361 131.617 141.443 131.72 141.443Z" fill="#3F3D56"/>
<path d="M128.542 141.443H129.76C129.862 141.443 129.945 141.361 129.945 141.258V140.676C129.945 140.574 129.862 140.491 129.76 140.491H128.542C128.44 140.491 128.357 140.574 128.357 140.676V141.258C128.357 141.361 128.44 141.443 128.542 141.443Z" fill="#3F3D56"/>
<path d="M125.365 141.443H126.583C126.686 141.443 126.769 141.361 126.769 141.258V140.676C126.769 140.574 126.686 140.491 126.583 140.491H125.365C125.263 140.491 125.18 140.574 125.18 140.676V141.258C125.18 141.361 125.263 141.443 125.365 141.443Z" fill="#3F3D56"/>
<path d="M122.188 141.443H123.407C123.509 141.443 123.592 141.36 123.592 141.258V140.676C123.592 140.574 123.509 140.491 123.407 140.491H122.188C122.086 140.491 122.003 140.574 122.003 140.676V141.258C122.003 141.36 122.086 141.443 122.188 141.443Z" fill="#3F3D56"/>
<path d="M119.012 141.443H120.23C120.332 141.443 120.415 141.36 120.415 141.258V140.676C120.415 140.574 120.332 140.491 120.23 140.491H119.012C118.909 140.491 118.827 140.574 118.827 140.676V141.258C118.827 141.36 118.909 141.443 119.012 141.443Z" fill="#3F3D56"/>
<path d="M115.835 141.443H117.053C117.155 141.443 117.238 141.361 117.238 141.258V140.676C117.238 140.574 117.155 140.491 117.053 140.491H115.835C115.733 140.491 115.65 140.574 115.65 140.676V141.258C115.65 141.361 115.733 141.443 115.835 141.443Z" fill="#3F3D56"/>
<path d="M112.657 141.443H113.875C113.978 141.443 114.061 141.361 114.061 141.258V140.676C114.061 140.574 113.978 140.491 113.875 140.491H112.657C112.555 140.491 112.472 140.574 112.472 140.676V141.258C112.472 141.361 112.555 141.443 112.657 141.443Z" fill="#3F3D56"/>
<path d="M109.48 141.443H110.699C110.801 141.443 110.884 141.36 110.884 141.258V140.676C110.884 140.574 110.801 140.491 110.699 140.491H109.48C109.378 140.491 109.295 140.574 109.295 140.676V141.258C109.295 141.36 109.378 141.443 109.48 141.443Z" fill="#3F3D56"/>
<path d="M106.304 141.443H107.522C107.624 141.443 107.707 141.36 107.707 141.258V140.676C107.707 140.574 107.624 140.491 107.522 140.491H106.304C106.201 140.491 106.119 140.574 106.119 140.676V141.258C106.119 141.36 106.201 141.443 106.304 141.443Z" fill="#3F3D56"/>
<path d="M103.127 141.443H104.345C104.447 141.443 104.53 141.361 104.53 141.258V140.676C104.53 140.574 104.447 140.491 104.345 140.491H103.127C103.025 140.491 102.942 140.574 102.942 140.676V141.258C102.942 141.361 103.025 141.443 103.127 141.443Z" fill="#3F3D56"/>
<path d="M124.413 143.349H136.75C136.853 143.349 136.936 143.266 136.936 143.164V142.581C136.936 142.479 136.853 142.396 136.75 142.396H124.413C124.311 142.396 124.228 142.479 124.228 142.581V143.164C124.228 143.266 124.311 143.349 124.413 143.349Z" fill="#3F3D56"/>
</g>
<defs>
<filter id="filter0_d_104_47" x="0" y="0.0317383" width="324" height="248" filterUnits="userSpaceOnUse" color-interpolation-filters="sRGB">
<feFlood flood-opacity="0" result="BackgroundImageFix"/>
<feColorMatrix in="SourceAlpha" type="matrix" values="0 0 0 0 0 0 0 0 0 0 0 0 0 0 0 0 0 0 127 0" result="hardAlpha"/>
<feOffset dy="4"/>
<feGaussianBlur stdDeviation="2"/>
<feComposite in2="hardAlpha" operator="out"/>
<feColorMatrix type="matrix" values="0 0 0 0 0 0 0 0 0 0 0 0 0 0 0 0 0 0 0.25 0"/>
<feBlend mode="normal" in2="BackgroundImageFix" result="effect1_dropShadow_104_47"/>
<feBlend mode="normal" in="SourceGraphic" in2="effect1_dropShadow_104_47" result="shape"/>
</filter>
<clipPath id="clip0_104_47">
<rect width="316" height="240" fill="white" transform="translate(4 0.0317383)"/>
</clipPath>
</defs>
</svg>
