<svg width="69" height="39" viewBox="0 0 69 39" fill="none" xmlns="http://www.w3.org/2000/svg">
<g clip-path="url(#clip0_79_33)">
<path d="M31.5475 35.2259C31.936 37.1118 34.1506 34.7938 34.1506 34.7938L36.7925 34.4795C36.7925 34.4795 38.4631 34.5188 39.5509 35.3831C40.6387 36.2474 41.3769 35.1081 41.3769 35.1081C42.6025 35.5212 44.104 35.5195 45.4045 35.3872C47.2783 35.1966 48.7803 33.734 49.0379 31.8474C50.4907 21.205 42.5036 15.9749 42.5036 15.9749L40.1725 9.61031C40.1725 9.61031 40.9107 7.76378 41.1438 6.1137C41.3769 4.46361 39.6675 2.8921 37.5695 1.32059C36.6516 0.633053 35.5999 0.68247 34.7071 0.955604C33.7056 1.26201 32.832 1.89209 32.1865 2.72482C31.6517 3.41471 30.7344 4.39178 29.7262 4.56104C29.3773 4.61919 29.0331 4.75906 28.7114 5.01364C28.3788 5.27687 28.2319 5.71611 28.2273 6.26221C28.2024 8.64776 30.1504 11.5197 31.8583 11.9676C33.9563 12.5176 32.8296 17.7429 32.8296 17.7429C29.4107 22.6146 31.8195 28.0363 31.8195 28.0363L31.1979 32.4365C31.1979 32.4365 31.159 33.3401 31.5475 35.2259Z" fill="#FF8833"/>
<path d="M42.9698 25.0897L42.115 35.8545C42.115 35.8545 43.2806 38.8404 39.3177 38.6833C35.3549 38.5261 37.686 32.3972 37.686 32.3972L38.9292 24.3825" fill="#FF8833"/>
<path d="M39.6125 38.7678C39.5156 38.7678 39.4164 38.7658 39.3146 38.7618C38.4373 38.727 37.7914 38.4003 37.3945 37.7907C36.2598 36.0478 37.5218 32.6121 37.6104 32.3769L38.8523 24.3703C38.859 24.3274 38.8985 24.2986 38.9412 24.3049C38.9835 24.3116 39.0125 24.3518 39.0059 24.3947L37.7627 32.4094C37.7618 32.4149 37.7604 32.4202 37.7584 32.4255C37.7448 32.461 36.4179 36.005 37.5244 37.7044C37.8921 38.2691 38.4965 38.5721 39.3207 38.6048C40.6146 38.6558 41.4849 38.3766 41.908 37.7743C42.4616 36.9864 42.0469 35.8943 42.0426 35.8833C42.0383 35.8722 42.0366 35.8601 42.0375 35.8482L42.8922 25.0834C42.8956 25.0402 42.9323 25.0087 42.9759 25.0113C43.0187 25.0149 43.0506 25.0527 43.0471 25.096L42.1938 35.8432C42.2502 35.9973 42.6042 37.0536 42.0353 37.8644C41.6144 38.4644 40.8 38.7678 39.6125 38.7678Z" fill="#49270F"/>
<path d="M35.8988 27.2898C35.8988 27.2898 36.1319 37.2689 31.2366 37.0332C26.3413 36.7975 30.7704 33.6544 30.7704 33.6544L31.1977 32.4365" fill="#FF8833"/>
<path d="M31.4044 37.1158C31.3475 37.1158 31.2904 37.1144 31.2327 37.1117C29.8349 37.0444 29.0452 36.7277 28.8854 36.1705C28.5976 35.1663 30.4736 33.7722 30.7051 33.6047L31.1243 32.4103C31.1386 32.3693 31.183 32.348 31.2235 32.3625C31.2639 32.377 31.2851 32.4218 31.2707 32.4627L30.8434 33.6807C30.838 33.6961 30.828 33.7094 30.8148 33.7187C30.7943 33.7333 28.7652 35.1869 29.0347 36.1267C29.174 36.6124 29.916 36.8909 31.2401 36.9547C32.1219 36.9976 32.8949 36.6977 33.5363 36.0645C35.9413 33.6903 35.8224 27.3553 35.8208 27.2916C35.8198 27.2483 35.8538 27.2123 35.8967 27.2112C35.9373 27.2113 35.9752 27.2446 35.9762 27.288C35.9824 27.5509 36.0984 33.7546 33.6449 36.1768C33.0134 36.8004 32.2602 37.1158 31.4044 37.1158Z" fill="#49270F"/>
<path d="M28.2271 6.26221C28.785 6.32978 29.6583 6.32663 30.3817 5.83868C31.1564 5.31615 30.3522 4.82898 29.7259 4.56104C29.377 4.61919 29.0328 4.75905 28.7111 5.01364C28.3786 5.27687 28.2317 5.7161 28.2271 6.26221Z" fill="#49270F"/>
<path d="M37.2427 4.84934C37.2427 4.84934 35.8868 1.32787 37.8287 1.27859C39.7707 1.22932 41.3046 4.28096 41.3046 4.28096C41.3046 4.28096 46.1787 13.2655 39.5008 12.781C32.8229 12.2965 36.014 8.70993 36.014 8.70993C36.014 8.70993 37.5371 6.81631 37.2427 4.84934Z" fill="#49270F"/>
<path d="M44.682 31.1648C45.542 31.5517 46.4405 31.9465 47.3811 31.9087C48.3216 31.871 49.3113 31.2585 49.4579 30.3182C49.5335 29.8329 49.3835 29.3122 49.5673 28.8573C49.8145 28.2453 50.6121 28.0093 51.2321 28.219C51.8521 28.4288 52.3076 28.9696 52.6341 29.5423C53.2451 30.6138 53.49 32.0201 52.8348 33.0647C52.2669 33.9701 51.1898 34.3793 50.1879 34.7303C48.8533 35.1977 47.3633 35.6617 46.0701 35.0875C44.7695 34.51 44.0611 32.8414 44.5427 31.4901" fill="#FF8833"/>
<path d="M41.8129 14.1981C41.8129 14.1981 43.5223 15.0624 42.6676 16.0053C41.8129 16.9482 36.5291 19.6198 34.5865 19.2269C32.644 18.834 32.1777 17.6554 32.1777 17.3411C32.1777 17.0268 32.3243 13.2248 32.9459 13.3819C33.5675 13.5391 37.4615 17.1054 41.8129 14.1981Z" fill="#743100"/>
</g>
<defs>
<clipPath id="clip0_79_33">
<rect width="69" height="38" fill="white" transform="translate(0 0.767822)"/>
</clipPath>
</defs>
</svg>
