<svg width="72" height="34" viewBox="0 0 72 34" fill="none" xmlns="http://www.w3.org/2000/svg">
<g clip-path="url(#clip0_79_54)">
<path d="M45.4194 33.3482L33.9472 32.9604C33.9472 32.9604 34.8108 26.8146 32.0402 25.109C30.1518 23.9457 28.4759 18.5118 28.9526 14.8142C28.9591 14.765 28.9656 14.7158 28.9729 14.6676C29.2145 13.0122 29.9054 11.7302 31.2262 11.382C35.4959 10.2572 38.5429 11.1292 38.5429 11.1292C38.5429 11.1292 39.2483 11.1398 40.2935 11.3733C40.3308 11.381 40.3681 11.3897 40.4054 11.3993C43.364 12.0891 48.8329 14.5451 49.0697 23.2656C49.3956 35.2466 45.4194 33.3463 45.4194 33.3463V33.3482Z" fill="#FF8833"/>
<path d="M40.2933 11.3742C40.2738 11.9993 40.1546 12.6206 39.9373 13.211C39.4865 14.4351 38.6644 15.3699 37.6233 15.8435C34.5049 17.2635 30.866 15.8551 29.0255 14.328C29.0182 14.3763 28.8722 15.2917 28.8657 15.3409C29.6806 16.0046 33.669 16.6442 34.4255 16.6442C35.5744 16.6442 36.6803 16.4175 37.6638 15.9689C38.7333 15.4818 39.5773 14.521 40.0403 13.264C40.2617 12.664 40.3833 12.0341 40.4052 11.3993C40.3679 11.3897 40.3306 11.381 40.2933 11.3733V11.3742Z" fill="#49270F"/>
<path d="M41.1412 12.1701L39.3128 6.69951C39.3128 6.69951 41.5077 2.22349 39.7831 1.72669C38.0585 1.22893 36.282 3.902 36.282 3.902C36.282 3.902 32.9901 2.53411 31.7366 3.65312C31.7366 3.65312 29.6463 0.171663 28.3928 0.855606C27.1385 1.53955 28.8387 6.46799 28.8387 6.46799C28.8387 6.46799 26.2506 10.9884 28.2363 13.5987C30.222 16.2101 37.6936 18.3236 41.142 12.1691L41.1412 12.1701Z" fill="#FF8833"/>
<path d="M45.0631 30.0741C45.6858 30.4041 46.336 30.7398 47.0171 30.7079C47.6982 30.6761 48.4141 30.1542 48.5204 29.3535C48.5755 28.9397 48.4669 28.4969 48.5998 28.1091C48.779 27.5882 49.3563 27.3866 49.8047 27.5651C50.2539 27.7435 50.5831 28.2046 50.8198 28.6918C51.2625 29.6044 51.4393 30.8025 50.965 31.6919C50.5539 32.4626 49.7739 32.8118 49.049 33.1109C48.0825 33.5093 47.0042 33.9038 46.0677 33.4148C45.1263 32.9228 44.6131 31.5018 44.9617 30.351" fill="#FF8833"/>
<path d="M34.7627 9.71117C34.7627 9.71117 33.6373 9.17578 32.9067 9.84526L33.7508 11.3849L34.7635 9.71213L34.7627 9.71117Z" fill="#49270F"/>
<path d="M28.856 16.7377L30.9373 29.9227C30.9373 29.9227 27.7873 33.7379 31.8373 33.6704C35.8873 33.6038 34.706 31.1276 34.706 31.1276L33.4119 19.6828" fill="#FF8833"/>
<path d="M31.7352 33.7678C30.6382 33.7678 29.975 33.4688 29.7625 32.8774C29.3758 31.8009 30.635 30.16 30.8506 29.8899L29.4512 20.033L29.6109 20.0012L31.0241 29.9545L30.995 29.9893C30.9804 30.0066 29.5404 31.7691 29.9117 32.8012C30.1023 33.3318 30.7485 33.5913 31.8366 33.573C33.3487 33.5479 34.3233 33.1707 34.6558 32.4829C34.955 31.8636 34.6387 31.1806 34.6355 31.1739L34.6282 31.1575L34.6258 31.1391L33.7258 23.1749L33.8863 23.1489L34.7847 31.0957C34.8382 31.2163 35.1179 31.9118 34.7977 32.5774C34.4304 33.3395 33.4347 33.7398 31.839 33.7659C31.8041 33.7659 31.7701 33.7659 31.736 33.7659L31.7352 33.7678Z" fill="#2F2E41"/>
<path d="M34.1431 16.7377L36.2244 29.9227C36.2244 29.9227 33.0744 33.7379 37.1244 33.6704C41.1744 33.6038 39.9931 31.1276 39.9931 31.1276L38.699 19.6828" fill="#FF8833"/>
<path d="M37.0222 33.7678C35.9252 33.7678 35.2619 33.4688 35.0495 32.8774C34.6627 31.8028 35.9195 30.1639 36.1368 29.8909L35.3008 24.5852L35.4606 24.5495L36.3119 29.9536L36.2819 29.9893C36.2673 30.0066 34.8273 31.7691 35.1987 32.8012C35.3892 33.3318 36.0362 33.5923 37.1235 33.573C38.6365 33.5479 39.6119 33.1707 39.9435 32.481C40.2427 31.8597 39.9257 31.1806 39.9225 31.1739L39.9144 31.1575L38.6187 19.6944L38.7792 19.6684L40.0708 31.0957C40.1244 31.2163 40.4041 31.9118 40.0838 32.5774C39.7165 33.3395 38.7208 33.7398 37.1252 33.7659C37.0903 33.7659 37.0562 33.7659 37.0222 33.7659V33.7678Z" fill="#2F2E41"/>
</g>
<defs>
<clipPath id="clip0_79_54">
<rect width="72" height="33" fill="white" transform="translate(0 0.767822)"/>
</clipPath>
</defs>
</svg>
