<svg width="422" height="529" viewBox="0 0 422 529" fill="none" xmlns="http://www.w3.org/2000/svg">
<path d="M214.391 226.784C243.076 245.13 256.084 277.848 247.912 305.613C237.69 340.44 215.958 371.873 242.87 412.624C269.772 444.083 274.265 464.871 252.465 498.958C235.065 526.163 190.442 538.372 154.445 520.436C113.554 501.386 88.4479 476.045 72.4003 448.779C40.9178 445.647 7.36726 433.488 -27.0205 404.381C-58.4212 379.213 -65.9801 333.49 -48.645 306.385C-27.3113 273.027 -4.80897 267.526 34.6855 279.159C87.6102 286.72 103.02 250.498 130.131 228.258C141.16 219.296 155.334 214.309 170.526 214.043C185.718 213.777 201.109 218.248 214.391 226.784ZM415.152 326.619C410.024 312.257 348.923 316.444 326.168 323.287C313.058 326.318 301.004 334.302 293.147 346.588C277.344 371.297 284.379 404.022 308.799 419.64C327.377 431.521 350.637 430.178 367.684 418.016C399.289 396.749 425.904 356.688 415.152 326.619ZM39.5352 86.3955C7.75978 89.2663 -17.4642 130.217 -23.4933 167.841C-27.3839 188.417 -18.8581 210.089 -0.289995 221.964C24.1503 237.594 56.7886 230.241 72.5907 205.533C80.448 193.247 82.6501 178.963 79.9035 165.789C76.5605 142.257 54.7447 85.0401 39.5352 86.3955ZM385.145 80.0356C478.369 161.642 372.094 311.859 297.443 246.536C275.914 227.682 270.585 197.023 282.671 172.198C294.966 146.955 349.205 48.6003 385.145 80.0356ZM275.987 10.2245C319.614 29.663 253.068 120.147 235.31 141.896C217.837 163.289 187.796 171.314 161.651 159.678C71.0089 119.315 162.815 -40.1689 275.987 10.2245Z" fill="#D6EBDC" fill-opacity="0.6"/>
</svg>
