<svg width="439" height="529" viewBox="0 0 439 529" fill="none" xmlns="http://www.w3.org/2000/svg">
<path d="M272.391 226.784C301.076 245.13 314.084 277.848 305.913 305.613C295.69 340.44 273.958 371.873 300.87 412.624C327.772 444.083 332.265 464.871 310.465 498.958C293.065 526.163 248.442 538.372 212.445 520.436C171.554 501.386 146.448 476.045 130.4 448.779C98.9178 445.647 65.3673 433.488 30.9795 404.381C-0.421187 379.213 -7.98006 333.49 9.35504 306.385C30.6888 273.027 53.1911 267.526 92.6855 279.159C145.61 286.72 161.02 250.498 188.131 228.258C199.16 219.296 213.334 214.309 228.526 214.043C243.718 213.777 259.109 218.248 272.391 226.784ZM473.152 326.619C468.024 312.257 406.923 316.444 384.168 323.287C371.058 326.318 359.004 334.302 351.147 346.588C335.344 371.297 342.379 404.022 366.799 419.64C385.378 431.521 408.637 430.178 425.684 418.016C457.289 396.749 483.904 356.688 473.152 326.619ZM97.5352 86.3955C65.7598 89.2663 40.5358 130.217 34.5067 167.841C30.6161 188.417 39.142 210.089 57.71 221.964C82.1503 237.594 114.789 230.241 130.591 205.533C138.448 193.247 140.65 178.963 137.904 165.789C134.561 142.257 112.745 85.04 97.5352 86.3955ZM443.145 80.0356C536.37 161.642 430.094 311.859 355.443 246.536C333.915 227.682 328.585 197.023 340.671 172.198C352.966 146.955 407.205 48.6003 443.145 80.0356ZM333.987 10.2245C377.614 29.663 311.068 120.147 293.31 141.896C275.837 163.289 245.796 171.314 219.651 159.678C129.009 119.315 220.815 -40.1689 333.987 10.2245Z" fill="#FFA564" fill-opacity="0.45"/>
</svg>
