<svg width="499" height="479" viewBox="0 0 499 479" fill="none" xmlns="http://www.w3.org/2000/svg">
<g clip-path="url(#clip0_85_301)">
<path d="M49.6279 464.055C47.7383 464.174 46.694 461.825 48.1236 460.457L48.2659 459.891C48.2471 459.846 48.2283 459.8 48.2093 459.755C46.2984 455.197 39.8221 455.228 37.9274 459.793C36.2457 463.845 34.1047 467.904 33.5775 472.188C33.3412 474.079 33.4475 476.005 33.867 477.861C29.9266 469.251 27.853 459.848 27.853 450.392C27.853 448.017 27.983 445.641 28.2488 443.271C28.4674 441.333 28.7687 439.406 29.1586 437.497C31.2676 427.178 35.8342 417.35 42.4212 409.142C45.5877 407.41 48.2284 404.703 49.8234 401.459C50.3964 400.289 50.8454 399.03 51.0581 397.748C50.6978 397.795 49.6993 392.305 49.9711 391.968C49.4689 391.205 48.5701 390.826 48.0216 390.083C45.2938 386.383 41.5356 387.029 39.5737 392.056C35.3825 394.173 35.342 397.682 37.9137 401.057C39.5498 403.204 39.7746 406.11 41.2101 408.409C41.0624 408.598 40.9088 408.781 40.7611 408.97C38.0528 412.445 35.7103 416.181 33.7356 420.105C34.2937 415.743 33.4698 410.49 32.0651 407.103C30.4661 403.244 27.4691 399.994 24.8298 396.658C21.6596 392.651 15.1589 394.4 14.6003 399.479C14.5949 399.529 14.5897 399.578 14.5845 399.627C14.9765 399.848 15.3606 400.083 15.7357 400.331C17.8756 401.747 17.136 405.065 14.6006 405.457L14.5432 405.466C14.685 406.878 14.9272 408.279 15.2816 409.656C11.8957 422.755 19.2056 427.526 29.643 427.74C29.8734 427.858 30.0979 427.976 30.3283 428.089C29.2708 431.067 28.426 434.123 27.7999 437.219C27.2387 439.956 26.8487 442.721 26.6302 445.499C26.3584 449.003 26.382 452.526 26.6774 456.024L26.6597 455.9C25.9095 452.047 23.8181 448.448 20.7816 445.954C16.258 442.237 9.8672 440.868 4.98713 437.88C2.63801 436.442 -0.372204 438.3 0.0377808 441.025L0.057766 441.155C0.784393 441.451 1.49324 441.794 2.17854 442.178C2.57055 442.399 2.95462 442.634 3.32978 442.882C5.46959 444.298 4.73005 447.616 2.19461 448.008L2.13717 448.017C2.09583 448.022 2.06038 448.028 2.0191 448.034C3.2656 450.995 5.00235 453.743 7.17635 456.113C9.29343 467.548 18.3864 468.633 28.1129 465.303H28.1189C29.1822 469.936 30.7359 474.463 32.7327 478.777H49.2149C49.274 478.594 49.3272 478.405 49.3804 478.222C47.8562 478.316 46.3202 478.228 44.8196 477.95C46.0425 476.449 47.2654 474.936 48.4883 473.435C48.5178 473.405 48.5415 473.376 48.5651 473.346C49.1854 472.578 49.8116 471.815 50.4319 471.047L50.4322 471.046C50.471 468.688 50.1879 466.337 49.6279 464.055Z" fill="#F2F2F2"/>
<path d="M352.882 477.911C352.882 478.515 352.397 479 351.793 479H1.21677C0.613129 479 0.128326 478.515 0.128326 477.911C0.128326 477.307 0.613129 476.822 1.21677 476.822H351.793C352.397 476.822 352.882 477.307 352.882 477.911Z" fill="#CCCCCC"/>
<path d="M299.685 478.536H461.052C480.728 478.536 496.735 462.522 496.735 442.839V95.9195C496.735 76.2362 480.728 60.2225 461.052 60.2225H299.685C280.009 60.2225 264.001 76.2362 264.001 95.9195V442.839C264.001 462.522 280.009 478.536 299.685 478.536Z" fill="#3F3D56"/>
<path d="M264.002 187.831C264.834 187.831 265.511 188.508 265.511 189.341V237.666C265.511 238.499 264.834 239.176 264.002 239.176C263.169 239.176 262.492 238.499 262.492 237.666V189.341C262.492 188.508 263.169 187.831 264.002 187.831Z" fill="#3F3D56"/>
<path d="M267.398 95.9198V442.833C267.398 459.966 280.728 473.98 297.582 475.067H297.59C297.839 475.082 298.088 475.097 298.345 475.105C298.79 475.128 299.235 475.135 299.688 475.135C299.688 475.135 301.349 475.014 304.383 474.788C307.448 474.561 311.908 474.221 317.471 473.776C319.139 473.648 320.898 473.504 322.755 473.353C326.453 473.051 330.514 472.719 334.869 472.341C336.605 472.198 338.402 472.039 340.236 471.881C349.61 471.073 360.11 470.129 371.182 469.057C373.054 468.883 374.941 468.702 376.843 468.513C377.341 468.46 377.847 468.415 378.353 468.362C386.248 467.584 493.339 446.88 493.339 442.833V95.9198C493.339 78.0773 478.885 63.6176 461.049 63.6176H441.771C438.692 63.6176 436.216 66.0187 435.952 69.0919C435.929 69.2958 435.907 69.4996 435.869 69.7035C435.31 72.7918 432.48 74.9437 429.34 74.9437H331.397C328.257 74.9437 325.427 72.7918 324.868 69.7035C324.83 69.4996 324.808 69.2958 324.785 69.0919C324.521 66.0187 322.045 63.6176 318.966 63.6176H299.688C281.852 63.6176 267.398 78.0773 267.398 95.9198Z" fill="white"/>
<path d="M497.49 151.587C498.323 151.587 499 152.264 499 153.097V165.178C499 166.011 498.323 166.689 497.49 166.689C496.658 166.689 495.981 166.011 495.981 165.178V153.097C495.981 152.264 496.658 151.587 497.49 151.587Z" fill="#3F3D56"/>
<path d="M497.49 187.831C498.323 187.831 499 188.508 499 189.341V212.748C499 213.581 498.323 214.259 497.49 214.259C496.658 214.259 495.981 213.581 495.981 212.748V189.341C495.981 188.508 496.658 187.831 497.49 187.831Z" fill="#3F3D56"/>
<path d="M497.49 221.054C498.323 221.054 499 221.732 499 222.564V245.972C499 246.805 498.323 247.482 497.49 247.482C496.658 247.482 495.981 246.805 495.981 245.972V222.564C495.981 221.732 496.658 221.054 497.49 221.054Z" fill="#3F3D56"/>
<path d="M442.297 68.906H471.166C471.323 68.906 471.45 69.0331 471.45 69.1898V72.3976C471.45 72.5543 471.323 72.6814 471.166 72.6814H442.297C442.14 72.6814 442.013 72.5543 442.013 72.3976V69.1898C442.013 69.0331 442.14 68.906 442.297 68.906Z" fill="#E6E6E6"/>
<path d="M314.196 72.6815C312.528 72.6815 311.176 71.3293 311.176 69.6612C311.176 67.9931 312.528 66.6409 314.196 66.6409C315.863 66.6409 317.215 67.9931 317.215 69.6612C317.215 71.3293 315.863 72.6815 314.196 72.6815Z" fill="#E6E6E6"/>
<path d="M305.893 72.6815C304.225 72.6815 302.874 71.3293 302.874 69.6612C302.874 67.9931 304.225 66.6409 305.893 66.6409C307.56 66.6409 308.912 67.9931 308.912 69.6612C308.912 71.3293 307.56 72.6815 305.893 72.6815Z" fill="#E6E6E6"/>
<path d="M297.59 72.6815C295.923 72.6815 294.571 71.3293 294.571 69.6612C294.571 67.9931 295.923 66.6409 297.59 66.6409C299.258 66.6409 300.609 67.9931 300.609 69.6612C300.609 71.3293 299.258 72.6815 297.59 72.6815Z" fill="#E6E6E6"/>
<path d="M316.72 273.14H444.772C446.789 273.14 448.43 271.498 448.43 269.48C448.43 267.462 446.789 265.82 444.772 265.82H316.72C314.703 265.82 313.062 267.462 313.062 269.48C313.062 271.498 314.703 273.14 316.72 273.14Z" fill="#E6E6E6"/>
<path d="M380.287 414.964C350.988 414.964 327.237 391.204 327.237 361.895C327.237 332.585 350.988 308.825 380.287 308.825C409.585 308.825 433.336 332.585 433.336 361.895C433.336 391.204 409.585 414.964 380.287 414.964Z" fill="#FF8833"/>
<path d="M388.646 344.567C384.169 344.751 379.108 345.058 375.798 348.495C372.924 351.48 372.294 355.911 375.209 359.099C378.132 362.295 382.677 362.727 386.046 365.22C390.002 368.148 389.423 373.94 385.594 376.714C381.08 379.986 375.25 378.461 371.123 375.348C370.065 374.55 369.039 376.337 370.084 377.125C373.782 379.914 378.608 381.467 383.18 380.132C387.306 378.928 390.505 375.562 390.83 371.184C390.985 369.094 390.392 366.974 389.093 365.324C387.722 363.582 385.747 362.511 383.751 361.639C380.314 360.138 374.397 358.196 375.396 353.309C376.607 347.385 383.814 346.824 388.646 346.625C389.966 346.571 389.973 344.512 388.646 344.567Z" fill="white"/>
<path d="M380.34 341.765L380.143 386.959C380.137 388.284 382.195 388.286 382.201 386.959L382.398 341.765C382.404 340.44 380.346 340.438 380.34 341.765Z" fill="white"/>
<path d="M99.2191 0H360.773C370.367 0 378.169 7.80487 378.169 17.4032V196.705C378.169 206.304 370.367 214.109 360.773 214.109H99.2191C89.6245 214.109 81.8225 206.304 81.8225 196.705V17.4032C81.8225 7.80487 89.6245 0 99.2191 0Z" fill="white"/>
<path d="M231.198 106.611C215.034 106.611 201.93 93.5022 201.93 77.3314C201.93 61.1607 215.034 48.0516 231.198 48.0516C247.363 48.0516 260.467 61.1607 260.467 77.3314C260.467 93.5022 247.363 106.611 231.198 106.611Z" fill="#FF8833"/>
<path d="M239.659 64.2654C236.036 64.4147 231.957 64.6445 229.216 67.3417C226.946 69.576 226.152 73.0541 228.238 75.6847C230.435 78.4544 234.087 78.9799 236.955 80.7499C238.737 81.8499 239.918 83.5165 239.956 85.6582C239.992 87.6633 239.067 89.5366 237.52 90.7933C233.726 93.8766 228.552 92.6003 224.963 89.9037C224.257 89.3732 223.572 90.5642 224.27 91.0888C227.243 93.3221 231.071 94.6192 234.77 93.6583C238.174 92.7738 240.917 90.0943 241.286 86.5139C241.675 82.7402 239.198 80.1707 235.986 78.6966C233.051 77.3492 227.902 75.9136 228.387 71.7276C229.004 66.4054 235.517 65.8086 239.659 65.6378C240.538 65.6016 240.543 64.2289 239.659 64.2654Z" fill="white"/>
<path d="M233.362 61.7765L233.198 99.436C233.194 100.319 234.566 100.32 234.57 99.436L234.734 61.7765C234.738 60.8933 233.366 60.8921 233.362 61.7765Z" fill="white"/>
<path d="M99.2191 0H360.773C370.367 0 378.169 7.80487 378.169 17.4032V196.705C378.169 206.304 370.367 214.109 360.773 214.109H99.2191C89.6245 214.109 81.8225 206.304 81.8225 196.705V17.4032C81.8225 7.80487 89.6245 0 99.2191 0ZM83.6518 196.705C83.6518 205.297 90.6306 212.279 99.2191 212.279H360.773C369.361 212.279 376.34 205.297 376.34 196.705V17.4032C376.34 8.8114 369.361 1.82999 360.773 1.82999H99.2191C90.6306 1.82999 83.6518 8.81139 83.6518 17.4032V196.705Z" fill="#3F3D56"/>
<path d="M260.152 17.7051H285.817C287.107 17.7051 288.159 18.7573 288.159 20.0475C288.159 21.3467 287.107 22.399 285.817 22.399H260.152C258.862 22.399 257.811 21.3467 257.811 20.0475C257.811 18.7574 258.862 17.7051 260.152 17.7051Z" fill="#E6E6E6"/>
<path d="M217.163 17.7051H242.828C244.118 17.7051 245.17 18.7573 245.17 20.0475C245.17 21.3467 244.118 22.399 242.828 22.399H217.163C215.874 22.399 214.822 21.3467 214.822 20.0475C214.822 18.7574 215.874 17.7051 217.163 17.7051Z" fill="#E6E6E6"/>
<path d="M174.175 17.7051H199.84C201.13 17.7051 202.182 18.7573 202.182 20.0475C202.182 21.3467 201.13 22.399 199.84 22.399H174.175C172.885 22.399 171.833 21.3467 171.833 20.0475C171.833 18.7574 172.885 17.7051 174.175 17.7051Z" fill="#E6E6E6"/>
<path d="M131.845 123.081H328.147C336.315 123.081 342.956 129.724 342.956 137.895V151.272C342.956 159.443 336.315 166.086 328.147 166.086H131.845C123.677 166.086 117.037 159.443 117.037 151.272V137.895C117.037 129.724 123.677 123.081 131.845 123.081Z" fill="#FF8833"/>
<path d="M432.067 193.514L439.594 189.947C436.507 194.257 433.846 200.989 432.422 206.346C430.011 201.356 426.123 195.25 422.275 191.603L430.231 193.651C425.329 169.616 406.89 152.361 385.775 152.361V150.531C407.83 150.531 427.061 168.508 432.067 193.514Z" fill="#3F3D56"/>
<path d="M397.42 230.136H444.982C446.999 230.136 448.641 228.494 448.641 226.476C448.641 224.457 446.999 222.816 444.982 222.816H397.42C395.403 222.816 393.762 224.457 393.762 226.476C393.762 228.494 395.403 230.136 397.42 230.136Z" fill="#E6E6E6"/>
<path d="M81.0238 218.215L81.5036 255.582L90.7978 288.893L98.2275 286.121L94.9287 255.588L95.3624 214.269L81.0238 218.215Z" fill="#FFB6B6"/>
<path d="M90.8296 294.265C89.9578 289.475 91.5557 285.172 94.3986 284.654C97.2415 284.136 100.253 287.6 101.125 292.389C101.996 297.179 100.399 301.482 97.5556 302C94.7127 302.518 91.7014 299.054 90.8296 294.265Z" fill="#FFB6B6"/>
<path d="M92.3018 173.722C92.3018 173.722 76.3804 173.941 76.3938 182.402C76.4014 187.179 77.4269 230.552 80.2809 256.901C82.4818 277.22 86.6835 282.521 86.6835 282.521L96.7446 259.646L92.3018 173.722Z" fill="#E6E6E6"/>
<path d="M92.7113 250.067H146.481C141.975 240.006 139.204 230.424 143.535 222.803L92.7113 219.856C95.2511 230.144 95.5616 240.241 92.7113 250.067Z" fill="#FFB6B6"/>
<path d="M99.3404 160.907L120.701 159.434L129.54 170.486L134.021 171.301C140.738 172.523 145.521 178.52 145.221 185.343L143.478 224.974L92.4216 228.698L80.1894 177.09L94.9209 171.223L99.3404 160.907Z" fill="#E6E6E6"/>
<path d="M229.607 172.862C228.092 174.226 227.01 175.819 226.438 177.365L211.181 189.445L217.139 196.54L231.975 183.522C233.571 183.116 235.269 182.208 236.785 180.844C240.247 177.728 241.447 173.416 239.465 171.212C237.483 169.007 233.069 169.747 229.607 172.862Z" fill="#FFB6B6"/>
<path d="M121.736 183.032L180.197 222.523L222.104 193.349L215.812 181.949L182.83 201.124L152.413 177.76C141.582 167.582 128.007 169.555 121.736 183.032Z" fill="#E6E6E6"/>
<path d="M111.288 156.124C102.535 156.124 95.4404 149.026 95.4404 140.271C95.4404 131.515 102.535 124.418 111.288 124.418C120.04 124.418 127.135 131.515 127.135 140.271C127.135 149.026 120.04 156.124 111.288 156.124Z" fill="#FFB6B6"/>
<path d="M89.7479 136.376V139.45L107.62 134.418L121.02 137.227C121.175 135.186 121.779 133.183 122.785 131.408C122.085 134.255 122.007 136.457 122.749 137.593L124.55 137.968C124.843 137.172 125.41 136.477 126.151 136.056C126.224 136.01 126.316 135.973 126.398 136.001C126.526 136.047 126.535 136.211 126.535 136.339C126.517 137.016 126.499 137.694 126.471 138.371L131.648 139.45V136.376C136.615 125.197 123.524 115.523 110.693 115.423C104.904 115.377 99.6719 117.765 95.876 121.553C92.0894 125.35 89.7479 130.584 89.7479 136.376Z" fill="#2F2E41"/>
<path d="M79.6935 172.425L81.0432 172.313C80.9471 171.872 80.851 171.436 80.7632 170.994C80.0153 167.289 81.6616 162.572 81.7828 159.012C82.4179 162.773 81.3315 167.401 82.4555 170.972C82.5809 171.369 87.4646 173.93 87.5983 174.321C93.0034 172.343 98.6319 166.025 105.006 169.716C108.775 171.898 113.076 170.942 117.356 169.942C118.415 169.695 118.563 164.462 119.611 164.256C121.489 163.888 124.246 168.645 126.014 168.831L118.696 140.466C118.696 125.036 120.125 108.846 100.586 114.302C95.6721 115.675 90.8084 116.75 87.1814 120.808C83.5545 124.871 80.9722 130.549 80.0571 137.015C79.5055 140.916 76.0624 154.161 79.6935 172.425Z" fill="#2F2E41"/>
<path d="M92.3112 457.662L101.034 457.868L105.896 418.666L93.0236 418.361L92.3112 457.662Z" fill="#FFB7B7"/>
<path d="M122.237 475.867C122.237 477.341 121.192 478.536 119.902 478.536H102.588C102.588 478.536 100.884 471.685 93.9374 468.736L93.458 478.536H84.5265L85.6086 462.778C85.6086 462.778 83.2194 454.348 88.1813 450.038C93.1433 445.729 89.1243 446.329 89.1243 446.329L91.0762 436.576L104.573 438.163L104.672 453.473L111.222 468.67L120.829 473.417C121.684 473.84 122.237 474.802 122.237 475.867Z" fill="#2F2E41"/>
<path d="M118.848 451.274L127.233 453.687L141.88 417.002L129.507 413.44L118.848 451.274Z" fill="#FFB7B7"/>
<path d="M143.177 476.48C142.803 477.905 141.489 478.796 140.241 478.468L123.494 474.073C123.494 474.073 123.584 467.014 117.612 462.398L114.663 471.756L106.024 469.488L111.068 454.521C111.068 454.521 110.895 445.76 116.788 442.851C122.68 439.942 118.641 439.502 118.641 439.502L123.003 430.564L135.655 435.526L131.867 450.36L134.348 466.722L142.436 473.752C143.156 474.378 143.447 475.45 143.177 476.48Z" fill="#2F2E41"/>
<path d="M97.6594 247.751L92.1715 249.581C83.5911 265.434 79.9533 286.486 80.4354 311.872L90.1835 425.891H106.132L117.803 298.869L138.383 346.545L123.326 425.891L138.383 427.426L168.71 344.92L147.589 249.027L97.6594 247.751Z" fill="#2F2E41"/>
</g>
<defs>
<clipPath id="clip0_85_301">
<rect width="499" height="479" fill="white" transform="matrix(-1 0 0 1 499 0)"/>
</clipPath>
</defs>
</svg>
